<svg width="36" height="36" viewBox="0 0 36 36" fill="none" xmlns="http://www.w3.org/2000/svg">
<path d="M29.4253 0.700684H5.85749C2.62249 0.700684 0 3.32317 0 6.55817V29.2439C0 32.4789 2.62249 35.1013 5.85749 35.1013H29.4253C32.6603 35.1013 35.2827 32.4789 35.2827 29.2439V6.55817C35.2827 3.32317 32.6603 0.700684 29.4253 0.700684Z" fill="#00005B"/>
<path d="M14.1741 21.2818H8.70657L7.59406 24.7441C7.5798 24.8034 7.54643 24.8564 7.49909 24.8949C7.45175 24.9335 7.39306 24.9554 7.33206 24.9573L4.54086 24.9571C4.38292 24.9571 4.32765 24.8703 4.3752 24.6966L9.10901 11.1198L9.15628 10.9772L9.172 10.9284L9.20369 10.8264C9.21941 10.7737 9.23512 10.7179 9.25097 10.6574C9.31299 10.3417 9.34469 10.0207 9.34565 9.69886C9.34245 9.67636 9.34454 9.65342 9.35173 9.63187C9.35892 9.61031 9.37104 9.59072 9.38711 9.57465C9.40318 9.55858 9.42276 9.54647 9.44432 9.53927C9.46588 9.53208 9.48882 9.53 9.51132 9.5332H13.2747C13.385 9.5332 13.448 9.57261 13.4641 9.65159L18.8368 24.7205C18.8841 24.8783 18.8368 24.9573 18.6949 24.9571H15.6178C15.565 24.963 15.5118 24.9494 15.4683 24.9189C15.4247 24.8884 15.3938 24.8431 15.3812 24.7915L14.1741 21.2818ZM9.55873 18.3626H13.2984L13.2451 18.1866L13.1595 17.9079L13.0342 17.5087L12.7937 16.7553L12.5647 16.0311L12.1385 14.682C12.0208 14.3096 11.9077 13.9357 11.7995 13.5604L11.6784 13.1337L11.5478 12.6661L11.4284 12.2323H11.4047C11.2864 12.8005 11.1421 13.3629 10.9725 13.9179L10.8126 14.431L10.4281 15.6714L10.2332 16.3033C10.198 16.4175 10.1629 16.5303 10.1278 16.6418L10.0231 16.9723L9.91886 17.2951L9.81522 17.6099L9.71212 17.9168C9.66085 18.0684 9.60958 18.2169 9.55873 18.3626ZM27.5471 19.9343H22.8844C22.9416 20.3956 23.0948 20.8398 23.3342 21.2382C23.5988 21.6328 23.9731 21.9413 24.411 22.1258C25.0044 22.3826 25.6462 22.5084 26.2927 22.4946C26.8056 22.4848 27.3165 22.4287 27.8193 22.327C28.269 22.2664 28.7097 22.1515 29.1318 21.985C29.2107 21.9221 29.2504 21.9613 29.2504 22.1032V24.3518C29.2542 24.4131 29.2419 24.4743 29.2147 24.5293C29.1876 24.5723 29.1513 24.6087 29.1083 24.6359C28.64 24.8433 28.1472 24.9901 27.6418 25.0728C26.9552 25.2017 26.2574 25.2611 25.5589 25.2501C24.4734 25.2501 23.5584 25.0872 22.8139 24.7616L22.7422 24.7294C22.0265 24.4141 21.3944 23.9359 20.8962 23.333C20.4308 22.7649 20.0847 22.1089 19.8784 21.404C19.6742 20.7084 19.5707 19.987 19.5709 19.262C19.5687 18.4703 19.6926 17.6833 19.9378 16.9306C20.1739 16.1963 20.5474 15.5136 21.0383 14.9188C21.5225 14.3308 22.128 13.8544 22.8135 13.5222C23.5077 13.1832 24.3283 13.0615 25.275 13.0615C26.0602 13.0416 26.8401 13.1952 27.5591 13.5112C28.1637 13.769 28.6959 14.171 29.1094 14.682C29.4971 15.1824 29.7936 15.7472 29.9851 16.3506C30.1716 16.9321 30.2674 17.5388 30.2691 18.1495C30.2691 18.4968 30.2573 18.8124 30.2337 19.0963L30.2126 19.3395L30.1906 19.5702L30.1775 19.687C30.1765 19.6953 30.1755 19.7035 30.1745 19.7117C30.1683 19.7639 30.1432 19.812 30.104 19.8469C30.0647 19.8818 30.014 19.9011 29.9615 19.9011L29.8966 19.9025L29.8157 19.9066L29.7527 19.9111L29.6055 19.9237L29.4762 19.9365C29.4411 19.9402 29.4046 19.9437 29.3667 19.9468L29.2494 19.9561L29.1241 19.9643L28.9911 19.9712L28.8503 19.9772L28.7768 19.9796L28.6242 19.9838C28.4733 19.9875 28.3187 19.9781 28.16 19.9665L27.9194 19.9489C27.7956 19.9398 27.6713 19.935 27.5471 19.9343ZM22.8844 17.7781H26.1076L26.3821 17.7763L26.5687 17.7736L26.6896 17.7709L26.8252 17.7662C26.9466 17.7541 27.0638 17.7152 27.1684 17.6525V17.5105C27.1637 17.3254 27.1318 17.142 27.0738 16.9661C26.9462 16.5623 26.6894 16.2116 26.3431 15.9678C25.9967 15.7241 25.5799 15.6008 25.1567 15.6168C24.7584 15.5928 24.3616 15.6851 24.0149 15.8827C23.6681 16.0802 23.3863 16.3744 23.2039 16.7294C23.0418 17.0595 22.9339 17.4136 22.8844 17.7781Z" fill="#9999FF"/>
</svg>
