<svg width="526" height="506" viewBox="0 0 526 506" fill="none" xmlns="http://www.w3.org/2000/svg">
<g clip-path="url(#clip0_23_10)">
<path d="M448.302 245.262C345.267 185.768 178.764 185.768 76.3932 245.262C-25.9772 304.757 -25.3828 401.195 77.6984 460.678C180.78 520.161 347.236 520.173 449.607 460.678C551.977 401.184 551.383 304.745 448.302 245.262Z" fill="#2D2D2D"/>
<path d="M151.924 341.841C186.444 321.912 242.232 321.912 276.519 341.841C306.82 359.45 310.188 386.721 286.763 406.58C305.666 405.414 325.222 409.015 339.696 417.406C365.044 432.126 364.904 456.005 339.405 470.736C313.906 485.467 272.673 485.467 247.337 470.736C227.175 459.012 223.154 441.507 235.193 427.429C206.139 431.624 174.16 427.161 151.528 414.015C117.229 394.086 117.404 361.769 151.924 341.841Z" fill="#E0E0E0"/>
<path d="M74.8083 391.406C67.1864 387.012 54.8679 387.012 47.2927 391.406C39.7175 395.799 39.7641 402.943 47.386 407.349C55.0078 411.754 67.3263 411.742 74.8898 407.349C82.4534 402.955 82.4301 395.823 74.8083 391.406Z" fill="#E0E0E0"/>
<path d="M79.5515 366.093L61.0913 366.687L42.6427 366.151C41.8502 378.61 44.2743 391.313 47.6307 397.513C48.4232 399.109 49.7051 400.414 51.2901 401.23C56.7326 404.377 65.5315 404.377 70.9391 401.23C72.5474 400.403 73.8293 399.063 74.5868 397.419C77.9316 391.161 80.3324 378.493 79.5515 366.093Z" fill="white"/>
<path d="M74.0973 358.529C81.3229 362.713 81.3695 369.473 74.1789 373.68C66.9882 377.887 55.3224 377.864 48.0851 373.68C40.8479 369.496 40.8246 362.748 48.0036 358.529C55.1825 354.311 66.8717 354.357 74.0973 358.529Z" fill="#EBEBEB"/>
<path d="M71.2421 360.196C76.8827 363.447 76.906 368.727 71.312 371.99C65.718 375.253 56.5927 375.241 50.9521 371.99C45.3115 368.738 45.2765 363.447 50.8822 360.196C56.4879 356.944 65.6014 356.944 71.2421 360.196Z" fill="#E0E0E0"/>
<g opacity="0.15">
<path d="M71.2421 360.196C76.8827 363.447 76.906 368.727 71.312 371.99C65.718 375.253 56.5927 375.241 50.9521 371.99C45.3115 368.738 45.2765 363.447 50.8822 360.196C56.4879 356.944 65.6014 356.944 71.2421 360.196Z" fill="black"/>
</g>
<path d="M91.4271 287.357C49.845 300.969 49.472 328.788 58.7954 348.6C61.1262 352.609 68.3169 354.765 74.5519 330.128L63.7135 331.527L76.4515 325.07L79.7496 315.187L69.1443 315.98L82.6049 310.316C85.0756 302.484 88.0124 294.816 91.4271 287.357Z" fill="#0066C5"/>
<path opacity="0.2" d="M91.4271 287.357C49.845 300.969 49.472 328.788 58.7954 348.6C61.1262 352.609 68.3169 354.765 74.5519 330.128L63.7135 331.527L76.4515 325.07L79.7496 315.187L69.1443 315.98L82.6049 310.316C85.0756 302.484 88.0124 294.816 91.4271 287.357Z" fill="black"/>
<path opacity="0.2" d="M91.4271 287.357C49.845 300.969 49.472 328.788 58.7954 348.6C61.1262 352.609 68.3169 354.765 74.5519 330.128L63.7135 331.527L76.4515 325.07L79.7496 315.187L69.1443 315.98L82.6049 310.316C85.0756 302.484 88.0124 294.816 91.4271 287.357Z" fill="white"/>
<path d="M79.668 294.315C57.7465 310.957 55.7653 330.035 61.9537 349.952C59.7627 332.412 57.3969 314.675 79.668 294.315Z" fill="white"/>
<path d="M21.0009 315.607C61.9886 321.434 66.965 347.225 61.5225 367.235C59.9841 371.349 53.6792 374.554 43.7848 352.702L54.192 352.189L41.2675 348.297L36.5475 339.65L46.5585 338.612L33.0746 335.582C29.4618 328.683 25.4294 322.017 21.0009 315.607Z" fill="#0066C5"/>
<path opacity="0.2" d="M21.0009 315.607C61.9886 321.434 66.965 347.225 61.5225 367.235C59.9841 371.349 53.6792 374.554 43.7848 352.702L54.192 352.189L41.2675 348.297L36.5475 339.65L46.5585 338.612L33.0746 335.582C29.4618 328.683 25.4294 322.017 21.0009 315.607Z" fill="white"/>
<path opacity="0.1" d="M21.0009 315.607C61.9886 321.434 66.965 347.225 61.5225 367.235C59.9841 371.349 53.6792 374.554 43.7848 352.702L54.192 352.189L41.2675 348.297L36.5475 339.65L46.5585 338.612L33.0746 335.582C29.4618 328.683 25.4294 322.017 21.0009 315.607Z" fill="black"/>
<path d="M33.1096 320.14C56.3014 331.993 61.3127 349.439 58.8537 369.018C57.9796 352.318 57.2337 335.407 33.1096 320.14Z" fill="white"/>
<path d="M103.431 325.292C65.8345 325.909 58.4691 348.6 61.1262 367.247C62.0469 371.139 67.3729 374.717 78.7474 356.082L69.424 354.45L81.5094 352.388L86.7305 345.115L77.8267 343.076L90.32 341.841C94.3523 336.06 98.7226 330.536 103.431 325.292Z" fill="#0066C5"/>
<path d="M92.0098 328.019C69.7853 336.107 63.3056 351.269 63.3405 369.193C66.0443 354.241 68.55 339.079 92.0098 328.019Z" fill="white"/>
<path opacity="0.2" d="M103.431 325.292C65.8345 325.909 58.4691 348.6 61.1262 367.247C62.0469 371.139 67.3729 374.717 78.7474 356.082L69.424 354.45L81.5094 352.388L86.7305 345.115L77.8267 343.076L90.32 341.841C94.3523 336.06 98.7226 330.536 103.431 325.292Z" fill="white"/>
<path d="M259.842 273.174C271.612 281.332 284.875 287.008 294.711 297.963C313.113 318.439 313.498 351.374 299.128 374.845C284.758 398.317 257.895 412.325 230.578 415.542C201.92 418.921 171.853 411.008 149.372 392.921C126.891 374.834 112.591 346.572 112.603 317.728C112.614 288.884 127.392 260.145 151.563 244.377C173.612 230.007 205.288 225.905 227.408 242.349C238.596 250.67 246.055 262.953 257.208 271.286C258.035 271.892 258.933 272.545 259.842 273.174Z" fill="#455A64"/>
<path opacity="0.2" d="M259.842 273.174C271.612 281.332 284.875 287.008 294.711 297.963C313.113 318.439 313.498 351.374 299.128 374.845C284.758 398.317 257.895 412.325 230.578 415.542C201.92 418.921 171.853 411.008 149.372 392.921C126.891 374.834 112.591 346.572 112.603 317.728C112.614 288.884 127.392 260.145 151.563 244.377C173.612 230.007 205.288 225.905 227.408 242.349C238.596 250.67 246.055 262.953 257.208 271.286C258.035 271.892 258.933 272.545 259.842 273.174Z" fill="black"/>
<path opacity="0.1" d="M259.842 273.174C271.612 281.332 284.875 287.008 294.711 297.963C313.113 318.439 313.498 351.374 299.128 374.845C284.758 398.317 257.895 412.325 230.578 415.542C201.92 418.921 171.853 411.008 149.372 392.921C126.891 374.834 112.591 346.572 112.603 317.728C112.614 288.884 127.392 260.145 151.563 244.377C173.612 230.007 205.288 225.905 227.408 242.349C238.596 250.67 246.055 262.953 257.208 271.286C258.035 271.892 258.933 272.545 259.842 273.174Z" fill="white"/>
<path opacity="0.1" d="M255.052 393.119C255.052 392.921 254.994 392.723 254.97 392.525C252.977 379.437 242.885 369.053 229.855 366.687C218.504 364.52 207.631 360.359 197.737 354.392C190.744 350.15 184.066 344.941 176.176 342.633C168.508 340.43 160.315 340.908 152.95 343.985C159.569 336.992 170.932 333.962 180.011 337.109C173.729 327.494 168.193 317.134 166.026 305.841C163.858 294.548 165.396 282.183 172.202 272.929C183.029 258.175 203.762 254.994 218.516 265.82C220.276 267.114 221.907 268.571 223.376 270.191C230.112 277.556 233.865 287.928 238.328 296.879C241.51 303.312 244.796 309.896 250.041 314.791C257.942 322.192 269.305 324.849 277.509 331.923C286.833 339.953 290.807 352.772 290.842 365.044C290.69 373.319 289.49 381.546 287.252 389.518C277.649 398.69 266.182 405.705 253.642 410.076C255.436 404.61 255.926 398.806 255.052 393.119Z" fill="black"/>
<path d="M127.928 313.707C128.674 272.556 159.056 237.99 199.764 231.953C202.515 232.221 205.242 232.676 207.922 233.317C164.93 235.589 131.005 270.692 130.189 313.731C129.653 340.535 142.787 367.946 165.315 386.942C182.971 401.825 206.431 411.696 232.21 415.25L230.555 415.46C228.224 415.74 225.893 415.926 223.562 416.054C200.65 411.614 179.917 402.174 163.87 388.644C140.818 369.24 127.392 341.223 127.928 313.707Z" fill="white"/>
<path d="M285.061 384.169C283.896 388.947 283.628 397.559 283.628 397.559L280.446 396.394C277.37 395.217 273.885 396.009 271.612 398.398L271.461 398.561C270.272 399.797 268.326 399.89 267.032 398.76C266.356 398.165 265.972 397.326 265.949 396.429L265.517 382.898L285.061 384.169Z" fill="#FFA8A7"/>
<path d="M272.789 434.421C279.386 441.484 291.529 447.649 300.352 441.635L299.361 443.873C290.539 449.898 278.383 443.733 271.799 436.671C265.214 429.608 269.468 424.725 263.548 418.467C261.31 416.322 259.562 413.724 258.408 410.845C258.676 410.169 258.933 409.295 259.236 408.281C260.518 411.218 262.312 413.91 264.538 416.218C270.47 422.488 266.193 427.371 272.789 434.421Z" fill="#F5F5F5"/>
<path d="M262.487 400.916C263.501 399.471 264.212 397.839 264.562 396.102C264.69 395.287 265.168 394.576 265.867 394.133L265.949 396.405C265.995 398.165 267.464 399.564 269.223 399.517C270.074 399.494 270.878 399.133 271.461 398.515L271.612 398.352C273.885 395.963 277.37 395.17 280.446 396.347L283.675 397.513C284.642 397.874 285.283 398.806 285.283 399.843C285.073 409.097 289.397 421.38 293.93 428.14C298.592 430.063 302.613 436.414 300.561 441.076L300.352 441.542C291.529 447.556 279.374 441.391 272.79 434.328C266.205 427.266 270.459 422.394 264.538 416.124C262.312 413.817 260.518 411.125 259.236 408.188C259.982 405.624 261.077 403.177 262.487 400.916Z" fill="#0066C5"/>
<path opacity="0.3" d="M262.487 400.916C263.501 399.471 264.212 397.839 264.562 396.102C264.69 395.287 265.168 394.576 265.867 394.133L265.949 396.405C265.995 398.165 267.464 399.564 269.223 399.517C270.074 399.494 270.878 399.133 271.461 398.515L271.612 398.352C273.885 395.963 277.37 395.17 280.446 396.347L283.675 397.513C284.642 397.874 285.283 398.806 285.283 399.843C285.073 409.097 289.397 421.38 293.93 428.14C298.592 430.063 302.613 436.414 300.561 441.076L300.352 441.542C291.529 447.556 279.374 441.391 272.79 434.328C266.205 427.266 270.459 422.394 264.538 416.124C262.312 413.817 260.518 411.125 259.236 408.188C259.982 405.624 261.077 403.177 262.487 400.916Z" fill="black"/>
<path opacity="0.2" d="M262.487 400.916C263.501 399.471 264.212 397.839 264.562 396.102C264.69 395.287 265.168 394.576 265.867 394.133L265.949 396.405C265.995 398.165 267.464 399.564 269.223 399.517C270.074 399.494 270.878 399.133 271.461 398.515L271.612 398.352C273.885 395.963 277.37 395.17 280.446 396.347L283.675 397.513C284.642 397.874 285.283 398.806 285.283 399.843C285.073 409.097 289.397 421.38 293.93 428.14C298.592 430.063 302.613 436.414 300.561 441.076L300.352 441.542C291.529 447.556 279.374 441.391 272.79 434.328C266.205 427.266 270.459 422.394 264.538 416.124C262.312 413.817 260.518 411.125 259.236 408.188C259.982 405.624 261.077 403.177 262.487 400.916Z" fill="white"/>
<path d="M275.4 414.271C274.841 414.516 274.188 414.295 273.897 413.759C273.652 413.211 273.85 412.57 274.363 412.267C278.29 410.029 283.103 410.029 287.031 412.267C287.229 412.989 287.439 413.724 287.66 414.434C283.978 412.57 280.132 411.871 275.4 414.271Z" fill="white"/>
<path d="M273.768 409.26C273.139 409.4 272.521 408.992 272.382 408.363C272.3 407.966 272.428 407.547 272.731 407.267C276.845 405.006 281.845 405.053 285.924 407.372C286.052 408.153 286.203 408.91 286.378 409.645C282.532 407.605 278.652 406.801 273.768 409.26Z" fill="white"/>
<path d="M277.183 419.248C276.624 419.492 275.971 419.271 275.68 418.735C275.435 418.187 275.633 417.546 276.146 417.243C279.98 415.075 284.665 415.029 288.546 417.127C288.826 417.907 289.117 418.677 289.42 419.457C285.667 417.231 281.017 417.15 277.183 419.248Z" fill="white"/>
<path d="M293.93 428.233C298.592 430.156 302.613 436.507 300.561 441.169L300.352 441.635C291.658 447.556 279.759 441.635 273.093 434.736C278.652 423.851 290.259 426.567 293.93 428.233Z" fill="white"/>
<path d="M279.129 424.107C278.5 424.247 277.882 423.863 277.731 423.233C277.638 422.826 277.778 422.383 278.092 422.103C281.938 419.935 286.635 419.889 290.516 421.998C290.912 422.86 291.32 423.688 291.681 424.48C287.882 422.453 283.978 421.637 279.129 424.107Z" fill="white"/>
<path d="M298.93 411.043C299.757 415.903 303.02 423.863 303.02 423.863L299.629 424.061C296.343 424.224 293.464 426.357 292.357 429.457L292.275 429.678C291.693 431.286 289.956 432.149 288.325 431.636C287.474 431.38 286.775 430.774 286.39 429.97L280.563 417.756L298.93 411.043Z" fill="#FFA8A7"/>
<path d="M307.997 461.995C316.877 465.794 330.478 466.529 336.118 457.462V459.921C330.478 468.988 316.877 468.254 307.997 464.454C299.116 460.655 301.004 454.467 293.091 451.134C290.178 450.073 287.532 448.395 285.318 446.227C285.318 445.505 285.166 444.596 285.05 443.547C287.404 445.714 290.131 447.451 293.091 448.674C301.051 452.008 299.128 458.208 307.997 461.995Z" fill="#F5F5F5"/>
<path d="M285.05 435.447C285.411 433.722 285.411 431.927 285.05 430.203C284.828 429.41 284.98 428.548 285.446 427.872L286.437 429.923C287.194 431.52 289.105 432.184 290.69 431.426C291.448 431.065 292.031 430.424 292.322 429.632L292.404 429.41C293.511 426.31 296.389 424.177 299.676 424.014L303.172 423.816C304.221 423.769 305.188 424.376 305.596 425.343C309.092 433.897 318.054 443.395 324.93 447.742C329.965 447.626 336.212 451.809 336.212 456.902V457.403C330.571 466.47 316.971 465.736 308.09 461.937C299.21 458.138 301.098 451.949 293.184 448.616C290.224 447.393 287.497 445.656 285.143 443.488C284.735 440.831 284.7 438.116 285.05 435.447Z" fill="#0066C5"/>
<path opacity="0.3" d="M285.05 435.447C285.411 433.722 285.411 431.927 285.05 430.203C284.828 429.41 284.98 428.548 285.446 427.872L286.437 429.923C287.194 431.52 289.105 432.184 290.69 431.426C291.448 431.065 292.031 430.424 292.322 429.632L292.404 429.41C293.511 426.31 296.389 424.177 299.676 424.014L303.172 423.816C304.221 423.769 305.188 424.376 305.596 425.343C309.092 433.897 318.054 443.395 324.93 447.742C329.965 447.626 336.212 451.809 336.212 456.902V457.403C330.571 466.47 316.971 465.736 308.09 461.937C299.21 458.138 301.098 451.949 293.184 448.616C290.224 447.393 287.497 445.656 285.143 443.488C284.735 440.831 284.7 438.116 285.05 435.447Z" fill="black"/>
<path opacity="0.2" d="M285.05 435.447C285.411 433.722 285.411 431.927 285.05 430.203C284.828 429.41 284.98 428.548 285.446 427.872L286.437 429.923C287.194 431.52 289.105 432.184 290.69 431.426C291.448 431.065 292.031 430.424 292.322 429.632L292.404 429.41C293.511 426.31 296.389 424.177 299.676 424.014L303.172 423.816C304.221 423.769 305.188 424.376 305.596 425.343C309.092 433.897 318.054 443.395 324.93 447.742C329.965 447.626 336.212 451.809 336.212 456.902V457.403C330.571 466.47 316.971 465.736 308.09 461.937C299.21 458.138 301.098 451.949 293.184 448.616C290.224 447.393 287.497 445.656 285.143 443.488C284.735 440.831 284.7 438.116 285.05 435.447Z" fill="white"/>
<path d="M302.24 442.509C301.715 442.894 300.993 442.778 300.608 442.253C300.363 441.915 300.317 441.472 300.491 441.088C303.195 437.475 307.601 435.54 312.087 435.995C312.565 436.589 313.043 437.16 313.544 437.731C309.36 437.51 305.608 438.407 302.24 442.509Z" fill="white"/>
<path d="M298.743 438.582C298.335 439.036 297.648 439.095 297.17 438.722C296.692 438.349 296.599 437.661 296.972 437.183L296.984 437.172C299.839 433.442 304.419 431.473 309.092 431.951C309.512 432.58 309.955 433.209 310.421 433.839C306.12 433.536 302.205 434.363 298.743 438.582Z" fill="white"/>
<path d="M305.887 446.344C305.479 446.798 304.792 446.856 304.314 446.483C303.86 446.087 303.778 445.411 304.128 444.922C306.761 441.391 311.027 439.456 315.42 439.806C315.992 440.412 316.586 440.971 317.157 441.565C312.985 441.344 309.244 442.241 305.887 446.344Z" fill="white"/>
<path d="M324.837 447.8C329.872 447.684 336.118 451.868 336.118 456.961V457.462C330.559 466.401 317.285 465.806 308.393 462.123C309.081 449.956 320.805 447.754 324.837 447.8Z" fill="white"/>
<path d="M309.617 450.003C309.104 450.388 308.37 450.283 307.985 449.758C307.729 449.42 307.682 448.978 307.857 448.593C310.502 445.05 314.78 443.115 319.185 443.477C319.896 444.106 320.595 444.642 321.294 445.26C316.97 444.945 313.113 445.773 309.617 450.003Z" fill="white"/>
<path d="M246.742 295.492L291.203 320.269C299.478 324.884 303.883 334.265 302.146 343.577L293.511 389.996L300.585 412.477C294.478 420.635 280.47 421.077 280.47 421.077C272.65 405.402 266.904 398.736 262.464 385.59C258.024 372.444 255.064 363.389 255.064 363.389L218.143 353.297C200.86 348.6 188.18 333.857 186.141 316.062C185.511 310.479 185.476 306.668 185.476 306.668L246.742 295.492Z" fill="#263238"/>
<path opacity="0.2" d="M246.404 307.985C246.393 312.95 244.633 317.751 241.428 321.539L272.801 341.176C277.405 344.055 280.819 348.507 282.404 353.705L293.511 389.996L283.5 349.544C282.346 344.894 279.421 340.873 275.342 338.356L246.37 320.455C249.33 313.078 246.404 307.985 246.404 307.985Z" fill="black"/>
<path d="M211.255 325.35C211.244 325.548 211.255 325.746 211.314 325.933C211.372 326.096 211.442 326.247 211.547 326.387C211.663 326.55 211.792 326.702 211.943 326.842C212.13 327.005 212.328 327.145 212.537 327.273L245.076 346.176C245.367 346.339 245.682 346.479 246.008 346.584L246.37 346.7L246.847 346.817L247.418 346.91H247.558C247.826 346.91 248.094 346.91 248.351 346.91H248.479C248.747 346.91 249.003 346.91 249.271 346.91H249.388C249.644 346.91 249.901 346.84 250.145 346.782H250.285L250.938 346.584H251.054C251.299 346.491 251.544 346.374 251.777 346.246L305.456 315.257C305.678 315.129 305.876 314.989 306.074 314.826L306.225 314.651C306.33 314.558 306.424 314.453 306.505 314.348C306.54 314.278 306.575 314.208 306.61 314.139C306.668 314.045 306.727 313.94 306.762 313.836C306.762 313.766 306.762 313.684 306.762 313.614C306.762 313.509 306.762 313.416 306.762 313.311V315.222C306.762 315.316 306.762 315.421 306.762 315.514C306.762 315.595 306.762 315.665 306.762 315.735C306.715 315.84 306.668 315.945 306.61 316.05C306.61 316.108 306.552 316.178 306.505 316.248C306.459 316.318 306.319 316.458 306.225 316.563C306.132 316.668 306.132 316.679 306.074 316.726C305.887 316.889 305.678 317.04 305.456 317.157L251.777 348.157C251.544 348.285 251.299 348.402 251.054 348.495H250.938C250.728 348.577 250.507 348.635 250.285 348.693H250.145C249.901 348.752 249.644 348.798 249.388 348.821H249.271C249.003 348.833 248.747 348.833 248.479 348.821H248.351C248.083 348.833 247.826 348.833 247.558 348.821H247.418C247.22 348.798 247.034 348.763 246.847 348.717L246.37 348.6L246.008 348.495C245.682 348.39 245.379 348.25 245.076 348.087L212.537 329.172C212.328 329.056 212.118 328.904 211.943 328.741C211.792 328.613 211.663 328.462 211.547 328.298V328.24C211.442 328.1 211.36 327.949 211.314 327.786C211.302 327.646 211.302 327.494 211.314 327.354V325.292L211.255 325.35Z" fill="#E0E0E0"/>
<path opacity="0.2" d="M211.255 325.35C211.244 325.548 211.255 325.746 211.314 325.933C211.372 326.096 211.442 326.247 211.547 326.387C211.663 326.55 211.792 326.702 211.943 326.842C212.13 327.005 212.328 327.145 212.537 327.273L245.076 346.176C245.367 346.339 245.682 346.479 246.008 346.584L246.37 346.7L246.847 346.817L247.418 346.91H247.558C247.826 346.91 248.094 346.91 248.351 346.91H248.479C248.747 346.91 249.003 346.91 249.271 346.91H249.388C249.644 346.91 249.901 346.84 250.145 346.782H250.285L250.938 346.584H251.054C251.299 346.491 251.544 346.374 251.777 346.246L305.456 315.257C305.678 315.129 305.876 314.989 306.074 314.826L306.225 314.651C306.33 314.558 306.424 314.453 306.505 314.348C306.54 314.278 306.575 314.208 306.61 314.139C306.668 314.045 306.727 313.94 306.762 313.836C306.762 313.766 306.762 313.684 306.762 313.614C306.762 313.509 306.762 313.416 306.762 313.311V315.222C306.762 315.316 306.762 315.421 306.762 315.514C306.762 315.595 306.762 315.665 306.762 315.735C306.715 315.84 306.668 315.945 306.61 316.05C306.61 316.108 306.552 316.178 306.505 316.248C306.459 316.318 306.319 316.458 306.225 316.563C306.132 316.668 306.132 316.679 306.074 316.726C305.887 316.889 305.678 317.04 305.456 317.157L251.777 348.157C251.544 348.285 251.299 348.402 251.054 348.495H250.938C250.728 348.577 250.507 348.635 250.285 348.693H250.145C249.901 348.752 249.644 348.798 249.388 348.821H249.271C249.003 348.833 248.747 348.833 248.479 348.821H248.351C248.083 348.833 247.826 348.833 247.558 348.821H247.418C247.22 348.798 247.034 348.763 246.847 348.717L246.37 348.6L246.008 348.495C245.682 348.39 245.379 348.25 245.076 348.087L212.537 329.172C212.328 329.056 212.118 328.904 211.943 328.741C211.792 328.613 211.663 328.462 211.547 328.298V328.24C211.442 328.1 211.36 327.949 211.314 327.786C211.302 327.646 211.302 327.494 211.314 327.354V325.292L211.255 325.35Z" fill="black"/>
<path d="M306.831 313.882C306.796 313.987 306.738 314.092 306.68 314.185C306.645 314.255 306.61 314.325 306.575 314.395C306.493 314.5 306.4 314.605 306.295 314.698L306.144 314.873C305.946 315.036 305.748 315.176 305.526 315.304L251.847 346.292C251.614 346.421 251.369 346.537 251.124 346.63H251.008L250.355 346.829H250.215C249.971 346.887 249.714 346.922 249.458 346.957H249.341C249.073 346.957 248.817 346.957 248.549 346.957H248.421C248.164 346.957 247.896 346.957 247.628 346.957H247.488L246.917 346.864L246.439 346.747L246.078 346.63C245.752 346.526 245.437 346.386 245.146 346.223L212.607 327.319C212.398 327.191 212.199 327.051 212.013 326.888C211.861 326.748 211.733 326.597 211.617 326.434C211.512 326.294 211.442 326.142 211.384 325.979C211.325 325.793 211.314 325.595 211.325 325.397C211.454 324.592 211.966 323.893 212.712 323.555L266.391 292.567C268.489 291.494 270.971 291.494 273.069 292.567L305.608 311.47C306.389 311.808 306.925 312.554 306.995 313.404C306.995 313.509 306.995 313.602 306.995 313.707C306.855 313.731 306.855 313.812 306.831 313.882Z" fill="#E0E0E0"/>
<path d="M302.368 313.358L250.18 343.472L249.971 343.565H249.854C249.726 343.612 249.586 343.659 249.446 343.682L249.167 343.74H248.968H248.456H247.92L247.582 343.682L247.162 343.565C247.034 343.53 246.917 343.484 246.801 343.414L230.019 333.659L283.884 302.589L302.368 313.358Z" fill="#E0E0E0"/>
<path d="M252.744 305.072L262.557 310.899C263.035 311.178 263.186 311.784 262.918 312.251C262.837 312.402 262.709 312.519 262.557 312.612L247.85 321.038C247.337 321.341 246.719 321.341 246.206 321.038L236.394 315.269C235.916 314.989 235.764 314.383 236.032 313.917C236.114 313.766 236.242 313.649 236.394 313.556L251.066 305.083C251.579 304.78 252.22 304.769 252.744 305.072Z" fill="#E0E0E0"/>
<path opacity="0.4" d="M302.368 313.358L250.18 343.472L249.971 343.565H249.854C249.726 343.612 249.586 343.659 249.446 343.682L249.167 343.74H248.968H248.456H247.92L247.582 343.682L247.162 343.565C247.034 343.53 246.917 343.484 246.801 343.414L230.019 333.659L283.884 302.589L302.368 313.358Z" fill="black"/>
<path opacity="0.4" d="M252.744 305.072L262.557 310.899C263.035 311.178 263.186 311.784 262.918 312.251C262.837 312.402 262.709 312.519 262.557 312.612L247.85 321.038C247.337 321.341 246.719 321.341 246.206 321.038L236.394 315.269C235.916 314.989 235.764 314.383 236.032 313.917C236.114 313.766 236.242 313.649 236.394 313.556L251.066 305.083C251.579 304.78 252.22 304.769 252.744 305.072Z" fill="black"/>
<path d="M248.817 344.37L254.376 309.034C254.667 307.076 255.833 305.363 257.546 304.372L311.598 272.906C312.029 272.65 312.565 272.615 313.031 272.813L314.325 273.454L313.882 273.617C314.034 273.908 314.08 274.246 314.034 274.573L308.451 309.978C308.16 311.936 306.995 313.649 305.281 314.64L251.229 346.106C251.113 346.164 250.996 346.211 250.88 346.246V346.77L249.633 346.153C248.992 345.815 248.654 345.08 248.817 344.37Z" fill="#E0E0E0"/>
<path opacity="0.3" d="M248.817 344.37L254.376 309.034C254.667 307.076 255.833 305.363 257.546 304.372L311.598 272.906C312.029 272.65 312.565 272.615 313.031 272.813L314.325 273.454L313.882 273.617C314.034 273.908 314.08 274.246 314.034 274.573L308.451 309.978C308.16 311.936 306.995 313.649 305.281 314.64L251.229 346.106C251.113 346.164 250.996 346.211 250.88 346.246V346.77L249.633 346.153C248.992 345.815 248.654 345.08 248.817 344.37Z" fill="black"/>
<path d="M258.63 304.92L312.682 273.454C313.474 273.011 314.477 273.279 314.919 274.071C315.094 274.386 315.164 274.759 315.118 275.12L309.617 310.526C309.325 312.484 308.16 314.197 306.447 315.187L252.395 346.654C251.614 347.108 250.612 346.84 250.169 346.071C249.982 345.745 249.912 345.372 249.959 344.999L255.46 309.582C255.751 307.624 256.917 305.911 258.63 304.92Z" fill="#E0E0E0"/>
<path d="M284.828 305.864C282.055 307.589 280.12 310.386 279.467 313.591C279.106 316.341 280.936 317.367 283.546 315.852C286.32 314.115 288.255 311.33 288.919 308.125C289.269 305.375 287.474 304.349 284.828 305.864Z" fill="white"/>
<path d="M252.907 252.173L267.557 264.13L277.218 248.456L265.063 234.762C254.376 239.447 252.907 252.173 252.907 252.173Z" fill="#F28F8F"/>
<path d="M231.417 211.687C242.932 210.393 243.992 212.945 251.462 219.984C258.933 227.024 266.496 234.995 266.496 234.995C254.982 240.624 253.677 254.318 253.677 254.318C247.407 249.458 242.104 245.612 242.104 245.612L231.417 211.687Z" fill="#455A64"/>
<path opacity="0.5" d="M231.417 211.687C242.932 210.393 243.992 212.945 251.462 219.984C258.933 227.024 266.496 234.995 266.496 234.995C254.982 240.624 253.677 254.318 253.677 254.318C247.407 249.458 242.104 245.612 242.104 245.612L231.417 211.687Z" fill="white"/>
<path d="M189.369 220.847C205.743 213.178 218.027 212.281 231.417 211.698C251.462 224.599 243.957 235.345 243.607 252.57C243.258 269.794 239.517 280.202 251.462 298.114C225.194 319.092 192.026 312.46 184.09 307.437C178.973 259.737 180.465 224.506 189.369 220.847Z" fill="#455A64"/>
<path opacity="0.7" d="M189.369 220.847C205.743 213.178 218.027 212.281 231.417 211.698C251.462 224.599 243.957 235.345 243.607 252.57C243.258 269.794 239.517 280.202 251.462 298.114C225.194 319.092 192.026 312.46 184.09 307.437C178.973 259.737 180.465 224.506 189.369 220.847Z" fill="white"/>
<path d="M239.284 185.616C244.575 180.675 245.227 172.505 240.775 166.795C242.256 165.886 243.386 164.499 243.98 162.867C244.598 160.7 243.351 158.439 241.183 157.821C240.123 157.518 238.981 157.658 238.025 158.206C238.561 155.63 237.268 153.019 234.902 151.889C232.513 150.957 229.797 151.831 228.41 153.987C228.259 152.378 227.058 151.05 225.474 150.747C223.889 150.537 222.28 150.852 220.893 151.633C219.472 152.332 218.178 153.253 216.745 153.963C214.251 154.942 211.652 155.618 209.006 155.991C206.349 156.364 203.832 157.401 201.676 158.998C199.636 160.735 198.179 164.347 199.694 167.098C198.809 166.212 197.573 165.746 196.315 165.827C195.091 165.956 193.972 166.608 193.261 167.622C195.056 168.438 196.758 169.335 198.587 170.139C196.816 169.603 194.485 171.107 193.797 172.808C193.238 174.568 193.168 176.456 193.599 178.251C194.73 185.162 196.851 191.875 199.916 198.179C201.489 201.431 203.599 204.822 207.025 205.976L239.284 185.616Z" fill="#37474F"/>
<path d="M239.109 168.729C236.009 171.713 231.918 173.426 227.63 173.554C223.586 173.554 219.681 172.272 215.789 171.223C215.439 173.111 214.507 174.848 213.108 176.165C211.547 177.493 209.635 178.332 207.596 178.565C208.179 182.213 208.179 185.919 207.596 189.567C207.491 190.348 206.955 191 206.209 191.257C204.892 191.641 204.03 190.301 203.389 189.206C202.713 187.935 201.734 186.852 200.545 186.036C199.333 185.22 197.783 185.068 196.431 185.616C195.371 186.164 194.59 187.12 194.264 188.262C193.949 189.404 193.891 190.593 194.1 191.758C194.345 193.716 195.126 195.557 196.361 197.084C197.62 198.611 199.45 199.555 201.419 199.694C203.366 199.869 205.242 198.937 206.291 197.294L206.384 197.643C206.524 198.226 206.699 198.785 206.908 199.345C208.668 203.995 212.677 207.433 217.549 208.447C220.019 208.971 222.758 209.461 225.543 209.88C226.919 210.09 228.305 210.288 229.681 210.451C234.937 211.081 239.762 207.503 240.682 202.293C242.512 191.641 243.188 179.253 239.109 168.729Z" fill="#FFA8A7"/>
<path d="M206.862 199.31V217.84C210.393 222.63 215.847 225.637 221.779 226.091C223.667 226.359 225.59 225.87 227.128 224.728C228.912 223.131 229.063 220.392 227.466 218.609C227.21 218.318 226.907 218.061 226.581 217.852C225.905 217.409 225.509 216.675 225.497 215.87V209.845C222.712 209.426 219.973 208.936 217.502 208.412C212.631 207.398 208.622 203.96 206.862 199.31Z" fill="#FFA8A7"/>
<path opacity="0.2" d="M219.239 212.491C221.29 213.027 223.387 213.4 225.497 213.598V209.845C222.712 209.426 219.973 208.936 217.502 208.412C212.945 207.456 209.123 204.368 207.223 200.114C207.678 203.016 208.983 205.708 210.976 207.864C213.26 210.125 216.115 211.722 219.239 212.491Z" fill="black"/>
<path d="M231.056 182.155H228.655C223.772 178.833 217.549 178.204 212.106 180.465V182.994L212.77 183.344C213.132 184.975 213.33 186.63 213.377 188.297C213.423 189.94 214.076 191.513 215.218 192.69C216.535 193.856 218.423 193.949 220.148 193.972C221.546 194.089 222.945 193.879 224.25 193.378C225.73 192.574 226.849 191.234 227.373 189.625C227.968 188.052 227.863 187.131 228.597 185.243C228.807 184.707 229.331 184.358 229.914 184.358C230.473 184.358 230.963 184.719 231.137 185.243C231.825 187.131 231.732 188.052 232.303 189.625C232.769 191.199 233.818 192.539 235.228 193.378C236.44 193.879 237.757 194.077 239.062 193.972C240.717 194.147 242.384 193.693 243.724 192.69C244.796 191.478 245.402 189.917 245.437 188.297C245.484 186.63 245.67 184.975 246.008 183.344L246.626 182.994V180.465C241.51 178.181 235.566 178.822 231.056 182.155ZM227.455 183.449L227.35 184.346C227.152 185.977 226.756 187.586 226.184 189.124C225.765 190.394 224.879 191.478 223.714 192.143C222.781 192.515 221.768 192.679 220.765 192.62H220.229C218.796 192.772 217.362 192.422 216.15 191.641C215.264 190.697 214.763 189.45 214.752 188.145C214.752 187.726 214.682 187.294 214.647 186.852C214.565 185.686 214.647 183.006 214.74 181.094C216.115 180.71 217.525 180.523 218.947 180.523C221.931 180.535 224.856 181.386 227.385 182.982C227.49 183.029 227.455 183.449 227.455 183.449ZM244.202 186.817C244.202 187.259 244.144 187.691 244.109 188.11C244.109 189.392 243.631 190.639 242.792 191.606C241.685 192.387 240.333 192.725 238.981 192.585H238.526C237.582 192.644 236.638 192.481 235.764 192.108C234.645 191.42 233.818 190.348 233.433 189.089C232.862 187.551 232.478 185.943 232.268 184.311L232.175 183.414C232.175 183.414 232.175 182.994 232.268 182.912C234.599 181.327 237.349 180.477 240.169 180.453C241.498 180.453 242.827 180.64 244.097 181.024C244.213 182.971 244.272 185.616 244.202 186.817Z" fill="#0066C5"/>
<path d="M212.106 180.465L198.622 185.313C199.59 185.5 200.499 185.919 201.256 186.549C201.408 186.677 212.106 182.994 212.106 182.994V180.465Z" fill="#0066C5"/>
<path d="M229.844 184.567L236.638 192.795L230.403 195.009L229.844 184.567Z" fill="#F28F8F"/>
<path d="M220.229 185.593C220.217 186.63 221.045 187.481 222.082 187.493C223.119 187.504 223.97 186.677 223.982 185.64C223.993 184.602 223.166 183.752 222.129 183.74H222.117C221.092 183.728 220.241 184.556 220.229 185.581V185.593Z" fill="#37474F"/>
<path d="M235.916 185.092C235.904 186.129 236.743 186.968 237.78 186.98C238.818 186.991 239.657 186.152 239.668 185.115C239.68 184.078 238.841 183.239 237.804 183.227C236.766 183.215 235.927 184.055 235.916 185.092Z" fill="#37474F"/>
<path d="M234.937 176.794L239.936 177.365C239.762 176.27 238.922 175.396 237.839 175.162C236.638 175.116 235.519 175.745 234.937 176.794Z" fill="#37474F"/>
<path d="M223.376 176.165L218.714 178.251C218.528 177.155 219.064 176.06 220.031 175.512C221.173 175.058 222.49 175.314 223.376 176.165Z" fill="#37474F"/>
<path d="M223.679 198.471L229.214 200.324C228.445 201.641 226.907 202.305 225.415 201.967C224.075 201.361 223.352 199.904 223.679 198.471Z" fill="#F28F8F"/>
<path opacity="0.3" d="M223.679 198.471L229.214 200.324C228.445 201.641 226.907 202.305 225.415 201.967C224.075 201.361 223.352 199.904 223.679 198.471Z" fill="black"/>
<path d="M227.245 201.897C226.651 202.095 226.021 202.119 225.415 201.967C224.366 201.547 223.667 200.534 223.656 199.403C225.322 199.147 226.895 200.242 227.245 201.897Z" fill="#F28F8F"/>
<path d="M241.02 224.681L236.289 226.837C235.345 227.268 234.925 228.399 235.368 229.343C235.38 229.366 235.391 229.378 235.391 229.401C235.764 230.159 236.592 230.566 237.419 230.415L249.073 228.329L245.577 223.819L241.02 224.681Z" fill="#F28F8F"/>
<path d="M251.427 228.842L266.112 263.431C268.256 268.477 274.013 270.913 279.129 268.955C284.374 266.939 286.996 261.065 284.991 255.809C284.619 254.819 284.082 253.898 283.418 253.082L259.434 223.178C258.606 222.14 257.627 221.231 256.544 220.462L249.236 215.299C247.162 213.831 244.761 212.899 242.244 212.572L238.678 209.962C237.699 209.228 236.417 209.053 235.286 209.507L229.797 211.617C230.508 213.19 232.245 214.029 233.923 213.621L236.114 213.073L238.678 214.961L235.345 219.623C234.436 220.893 234.692 222.653 235.927 223.609L242.221 228.445C242.803 228.888 243.549 229.016 244.248 228.807C245.367 228.469 246.032 227.338 245.798 226.196C247.244 227.804 249.271 228.76 251.427 228.842Z" fill="#FFA8A7"/>
<path d="M238.724 214.961C239.389 214.204 240.169 213.563 241.055 213.073L236.65 213.4L238.724 214.961Z" fill="#F28F8F"/>
<path d="M193.716 265.459L188.716 282.626L219.32 304.361L229.611 308.684C232.338 309.838 234.692 311.714 236.428 314.115L244.819 325.769C245.752 327.716 241.323 330.886 239.284 331.422C236.813 332.063 234.179 331.41 232.291 329.685L225.811 323.753L224.028 323.124C218.796 321.271 214.251 317.868 211.011 313.358L175.139 299.431C168.624 296.89 165.058 289.875 166.853 283.115L172.808 260.972L193.716 265.459Z" fill="#FFA8A7"/>
<path d="M193.751 267.86L202.247 242.465C202.247 242.465 202.526 219.215 192.667 219.938C182.808 220.66 177.796 226.371 170.209 260.832L170.046 261.578C177.12 266.042 185.395 268.233 193.751 267.86Z" fill="#455A64"/>
<path opacity="0.5" d="M193.751 267.86L202.247 242.465C202.247 242.465 202.526 219.215 192.667 219.938C182.808 220.66 177.796 226.371 170.209 260.832L170.046 261.578C177.12 266.042 185.395 268.233 193.751 267.86Z" fill="white"/>
<path d="M217.351 130.294C217.386 132.566 215.579 134.443 213.307 134.478C211.034 134.513 209.158 132.706 209.123 130.434C209.088 128.161 210.894 126.285 213.167 126.25C215.439 126.215 217.316 128.021 217.351 130.294Z" fill="#37474F"/>
<path d="M208.225 130.737C205.475 129.198 205.428 126.646 208.132 125.026C211.209 123.395 214.892 123.348 218.015 124.875C220.765 126.413 220.812 128.965 218.108 130.573C215.031 132.205 211.36 132.263 208.225 130.737Z" fill="#455A64"/>
<path d="M208.086 129.257C205.242 127.672 205.195 125.038 207.981 123.371C211.162 121.693 214.95 121.635 218.178 123.208C221.01 124.793 221.057 127.415 218.26 129.035C215.101 130.737 211.314 130.818 208.086 129.257Z" fill="#37474F"/>
<path d="M207.911 127.776C204.997 126.145 204.951 123.441 207.841 121.786C211.116 120.073 215.008 120.015 218.33 121.623C221.255 123.255 221.313 125.97 218.434 127.683C215.136 129.385 211.232 129.42 207.911 127.776Z" fill="#455A64"/>
<path d="M207.713 126.133C204.706 124.467 204.671 121.67 207.619 119.898C210.987 118.115 215.008 118.057 218.434 119.723C221.453 121.402 221.5 124.199 218.528 125.97C215.16 127.742 211.139 127.811 207.713 126.133Z" fill="#37474F"/>
<path d="M207.549 124.502C204.438 122.719 204.414 119.933 207.445 118.115C210.894 116.297 214.996 116.239 218.493 117.952C221.569 119.654 221.616 122.509 218.586 124.327C215.148 126.145 211.046 126.203 207.549 124.502Z" fill="#455A64"/>
<path d="M212.328 76.3699C201.524 76.5214 192.877 85.3786 193.005 96.182V96.3102C193.25 111.892 206.116 114.281 206.244 120.539C206.384 121.751 207.153 122.8 208.272 123.278C211.302 124.758 214.857 124.7 217.84 123.138C218.936 122.614 219.658 121.553 219.751 120.353C219.646 114.083 232.454 111.286 232.21 95.7042C232.07 84.9007 223.201 76.2533 212.398 76.3815L212.328 76.3699Z" fill="#0066C5"/>
<g opacity="0.6">
<path d="M212.328 76.3699C201.524 76.5214 192.877 85.3786 193.005 96.182V96.3102C193.25 111.892 206.116 114.281 206.244 120.539C206.384 121.751 207.153 122.8 208.272 123.278C211.302 124.758 214.857 124.7 217.84 123.138C218.936 122.614 219.658 121.553 219.751 120.353C219.646 114.083 232.454 111.286 232.21 95.7042C232.07 84.9007 223.201 76.2533 212.398 76.3815L212.328 76.3699Z" fill="white"/>
</g>
<path d="M209.472 122.451C207.514 121.285 207.421 119.479 209.344 118.313C211.593 117.136 214.262 117.101 216.546 118.208C218.504 119.374 218.586 121.18 216.616 122.369C214.379 123.523 211.733 123.558 209.472 122.451Z" fill="#0066C5"/>
<path d="M215.637 119.782C215.276 119.782 214.985 119.502 214.961 119.152C214.915 115.376 215.299 111.612 216.127 107.929C216.36 106.869 216.675 105.82 217.059 104.806C216.453 104.585 215.882 104.317 215.334 103.979C214.344 103.384 213.446 102.638 212.677 101.776C211.931 102.638 211.069 103.396 210.113 104.014C209.577 104.352 209.006 104.631 208.412 104.864C208.831 105.878 209.169 106.904 209.449 107.964C210.416 111.624 210.941 115.376 210.999 119.164C210.987 119.525 210.684 119.817 210.323 119.817C209.962 119.805 209.67 119.514 209.67 119.152C209.589 115.493 209.076 111.845 208.155 108.302C207.887 107.253 207.538 106.228 207.118 105.226C205.778 105.505 204.391 105.121 203.389 104.188C202.62 103.478 202.48 102.312 203.051 101.438C203.447 100.844 204.158 100.529 204.857 100.657C206.244 101.17 207.34 102.265 207.852 103.652C208.388 103.454 208.901 103.198 209.379 102.883C210.323 102.3 211.151 101.566 211.85 100.704C210.999 99.6666 210.626 98.3147 210.813 96.9861C211.011 96.1703 211.745 95.6109 212.584 95.6342C213.411 95.576 214.169 96.1237 214.379 96.9279C214.612 98.2564 214.286 99.6083 213.47 100.681C214.192 101.508 215.043 102.219 215.987 102.79C216.476 103.081 217.001 103.314 217.549 103.489C218.026 102.091 219.087 100.972 220.451 100.412C221.161 100.273 221.884 100.587 222.269 101.193C222.875 102.044 222.77 103.209 222.024 103.932C221.057 104.899 219.681 105.331 218.33 105.097C217.933 106.111 217.619 107.149 217.374 108.209C216.57 111.787 216.173 115.446 216.208 119.106C216.22 119.467 215.94 119.782 215.567 119.793L215.637 119.782ZM204.578 101.986C204.414 101.997 204.275 102.091 204.216 102.242C203.89 102.685 204.275 103.163 204.403 103.291C204.985 103.815 205.766 104.06 206.535 103.955C206.186 103.081 205.522 102.382 204.682 101.974L204.578 101.986ZM218.994 103.815C219.786 103.885 220.555 103.606 221.127 103.058C221.231 102.93 221.616 102.452 221.29 101.997C221.196 101.823 220.998 101.741 220.812 101.776C220.357 101.858 219.681 102.487 218.994 103.815ZM212.677 97.0328C212.444 96.9861 212.211 97.1376 212.164 97.3707C212.164 97.3824 212.164 97.3824 212.164 97.394C212.083 98.1632 212.281 98.9324 212.724 99.5734C213.132 98.9207 213.295 98.1399 213.19 97.3824C213.143 97.1376 212.922 96.9745 212.677 97.0094V97.0328Z" fill="white"/>
<path d="M212.339 68.9345C212.223 68.9578 212.118 68.9578 212.001 68.9345C211.29 68.9462 210.708 68.3868 210.684 67.6759L210.556 61.0563C210.533 60.357 211.092 59.7743 211.792 59.751C212.502 59.7394 213.085 60.2988 213.097 61.0097L213.248 67.6875C213.248 68.2586 212.887 68.7597 212.339 68.9345Z" fill="#E0E0E0"/>
<path d="M198.168 73.0717C197.608 73.2466 197.014 73.0135 196.711 72.524L193.215 66.8134C192.923 66.1608 193.203 65.3916 193.856 65.1003C194.392 64.8555 195.033 65.007 195.406 65.4732L198.902 71.1721C199.275 71.7781 199.077 72.5706 198.471 72.9435C198.378 73.0018 198.273 73.0484 198.168 73.0717Z" fill="#E0E0E0"/>
<path d="M187.97 83.747C187.644 83.8519 187.283 83.8169 186.98 83.6421L181.153 80.4255C180.523 80.0876 180.29 79.3184 180.628 78.6891C180.978 78.0714 181.747 77.85 182.376 78.1763L188.203 81.3812C188.821 81.7192 189.043 82.5 188.705 83.1177C188.553 83.4207 188.285 83.6421 187.97 83.747Z" fill="#E0E0E0"/>
<path d="M184.462 98.0816C184.369 98.1399 184.264 98.1865 184.148 98.2098L177.47 98.3497C176.794 98.373 176.211 97.8602 176.165 97.1843C176.141 96.5083 176.654 95.9256 177.33 95.8673L184.02 95.6459C184.731 95.6576 185.302 96.2403 185.29 96.9512C185.267 97.4873 184.905 97.9418 184.404 98.1166L184.462 98.0816Z" fill="#E0E0E0"/>
<path d="M248.164 96.6715C248.071 96.7297 247.966 96.7647 247.85 96.788L241.148 96.8696C240.449 96.9395 239.82 96.4151 239.75 95.7158C239.68 95.0166 240.204 94.3873 240.904 94.3173C240.985 94.3057 241.067 94.3057 241.148 94.3173L247.826 94.1542C248.537 94.1775 249.108 94.7718 249.085 95.4827C249.073 96.0188 248.724 96.4967 248.211 96.6715H248.164Z" fill="#E0E0E0"/>
<path d="M237.361 82.6515C236.685 82.8613 235.962 82.4767 235.764 81.8007C235.589 81.2297 235.834 80.6237 236.335 80.3206L242.057 76.8244C242.64 76.4631 243.409 76.6379 243.771 77.2206C243.771 77.2206 243.771 77.2323 243.782 77.2323C244.155 77.8266 243.98 78.6075 243.386 78.9804C243.386 78.9804 243.374 78.9804 243.374 78.9921L237.664 82.4883C237.571 82.5582 237.466 82.6049 237.361 82.6515Z" fill="#E0E0E0"/>
<path d="M226.686 72.4424C226.01 72.6405 225.299 72.2559 225.089 71.58C224.996 71.2537 225.031 70.9041 225.194 70.6011L228.434 64.774C228.853 64.2029 229.657 64.0747 230.228 64.4943C230.683 64.8206 230.858 65.4033 230.683 65.9394L227.466 71.7665C227.315 72.0928 227.024 72.3375 226.686 72.4424Z" fill="#E0E0E0"/>
<path d="M336.631 256.986L336.596 247.675L330.349 244.074L330.373 253.164V253.362L336.631 256.986Z" fill="#E0E0E0"/>
<path d="M336.934 392.513L336.631 256.975L330.373 253.374L330.676 388.69C330.618 389.401 330.921 390.089 331.492 390.508L337.668 394.273C337.144 393.842 336.876 393.189 336.934 392.513Z" fill="#0066C5"/>
<path opacity="0.2" d="M336.934 392.513L336.631 256.975L330.373 253.374L330.676 388.69C330.618 389.401 330.921 390.089 331.492 390.508L337.668 394.273C337.144 393.842 336.876 393.189 336.934 392.513Z" fill="white"/>
<path d="M336.619 247.663V242.302C336.724 240.286 337.785 238.433 339.475 237.326L501.911 143.568C502.493 143.148 503.251 143.078 503.915 143.358L497.727 139.582C497.063 139.244 496.258 139.314 495.652 139.757L333.216 233.515C331.515 234.61 330.454 236.463 330.349 238.48V243.841V244.062L336.596 247.663H336.619Z" fill="#0066C5"/>
<path opacity="0.3" d="M336.619 247.663V242.302C336.724 240.286 337.785 238.433 339.475 237.326L501.911 143.568C502.493 143.148 503.251 143.078 503.915 143.358L497.727 139.582C497.063 139.244 496.258 139.314 495.652 139.757L333.216 233.515C331.515 234.61 330.454 236.463 330.349 238.48V243.841V244.062L336.596 247.663H336.619Z" fill="white"/>
<path opacity="0.2" d="M336.631 256.986L336.596 247.675L330.349 244.074L330.373 253.164V253.362L336.631 256.986Z" fill="black"/>
<path d="M501.911 143.568C503.496 142.659 504.789 143.393 504.789 145.223V150.584L336.654 247.663V242.302C336.759 240.286 337.82 238.433 339.51 237.326L501.911 143.568Z" fill="#0066C5"/>
<path d="M490.979 152.437C491.818 151.947 492.517 152.344 492.517 153.322C492.448 154.406 491.877 155.385 490.979 155.98C490.14 156.469 489.441 156.073 489.441 155.094C489.499 154.01 490.07 153.031 490.979 152.437Z" fill="white"/>
<path d="M495.664 149.733C496.515 149.243 497.203 149.64 497.214 150.607C497.156 151.691 496.585 152.67 495.676 153.264C494.825 153.754 494.137 153.357 494.137 152.39C494.184 151.306 494.755 150.316 495.664 149.733Z" fill="white"/>
<path d="M500.349 147.029C501.2 146.54 501.887 146.924 501.899 147.903C501.841 148.987 501.27 149.966 500.361 150.56C499.51 151.05 498.822 150.654 498.822 149.686C498.869 148.603 499.44 147.612 500.349 147.029Z" fill="white"/>
<path d="M370.44 222.816C371.069 222.455 371.605 222.513 371.955 222.98L373.482 225.31C373.785 225.777 374.367 225.846 374.997 225.485L504.743 150.572V159.895L336.608 256.975V247.651L341.596 244.773C342.295 244.318 342.831 243.642 343.111 242.85L344.614 238.748C344.894 237.955 345.43 237.291 346.129 236.836L370.44 222.816Z" fill="#E0E0E0"/>
<path d="M504.766 159.907L505.069 295.434C504.964 297.45 503.904 299.291 502.214 300.398L339.813 394.156C338.228 395.065 336.934 394.331 336.934 392.513L336.631 256.975L504.766 159.907Z" fill="#0066C5"/>
<g opacity="0.4">
<path d="M504.766 159.907L505.069 295.434C504.964 297.45 503.904 299.291 502.214 300.398L339.813 394.156C338.228 395.065 336.934 394.331 336.934 392.513L336.631 256.975L504.766 159.907Z" fill="white"/>
</g>
<path d="M498.111 156.329C499.277 155.677 500.163 156.189 500.163 157.495C500.081 158.916 499.324 160.21 498.135 160.991L355.802 243.153C354.637 243.806 353.751 243.281 353.751 241.988C353.844 240.566 354.602 239.272 355.791 238.491L498.111 156.329Z" fill="white"/>
<path d="M339.312 248.502C339.381 248.456 339.463 248.456 339.533 248.502C339.638 248.572 339.626 248.794 339.533 248.98L338.636 250.448L340.966 249.085C341.13 248.992 341.258 249.085 341.258 249.248C341.246 249.446 341.141 249.633 340.978 249.749L338.647 251.101L339.556 251.532C339.673 251.532 339.684 251.789 339.556 251.987C339.51 252.08 339.44 252.162 339.347 252.22C339.288 252.255 339.207 252.255 339.148 252.22L337.703 251.532H337.645V251.416V251.264L337.703 251.148L339.137 248.817C339.16 248.7 339.218 248.584 339.312 248.502Z" fill="#E0E0E0"/>
<path d="M344.416 245.554C344.474 245.53 344.556 245.53 344.614 245.554L346.059 246.241L346.118 246.311V246.439V246.579L346.059 246.684L344.626 249.015C344.579 249.097 344.509 249.166 344.428 249.213C344.358 249.248 344.288 249.248 344.218 249.213C344.113 249.143 344.113 248.933 344.218 248.735L345.115 247.278L342.785 248.642C342.621 248.724 342.493 248.642 342.493 248.467C342.505 248.269 342.61 248.083 342.785 247.978L345.115 246.614L344.218 246.183C344.09 246.183 344.09 245.927 344.218 245.728C344.265 245.659 344.335 245.6 344.416 245.554Z" fill="#E0E0E0"/>
<path d="M349.241 242.768C349.532 242.57 349.882 242.512 350.22 242.582L350.441 242.291C350.488 242.232 350.535 242.186 350.593 242.151C350.639 242.127 350.698 242.127 350.744 242.151C350.849 242.151 350.896 242.267 350.873 242.407L350.756 243.293C350.744 243.398 350.698 243.503 350.628 243.596C350.581 243.654 350.535 243.701 350.476 243.736H350.406L349.707 243.934C349.614 243.957 349.521 243.91 349.486 243.817C349.486 243.806 349.486 243.794 349.486 243.782C349.486 243.642 349.532 243.491 349.626 243.386L349.684 243.293C349.532 243.304 349.381 243.351 349.241 243.421C348.635 243.829 348.262 244.493 348.215 245.216C348.215 245.868 348.682 246.136 349.253 245.798C349.684 245.519 349.998 245.111 350.162 244.633C350.208 244.505 350.29 244.388 350.406 244.318C350.453 244.307 350.5 244.307 350.546 244.318C350.686 244.318 350.744 244.505 350.663 244.703C350.406 245.437 349.905 246.055 349.253 246.474C348.367 246.987 347.644 246.579 347.644 245.554C347.691 244.423 348.285 243.386 349.241 242.768Z" fill="#E0E0E0"/>
<g opacity="0.3">
<path d="M339.312 248.502C339.381 248.456 339.463 248.456 339.533 248.502C339.638 248.572 339.626 248.794 339.533 248.98L338.636 250.448L340.966 249.085C341.13 248.992 341.258 249.085 341.258 249.248C341.246 249.446 341.141 249.633 340.978 249.749L338.647 251.101L339.556 251.532C339.673 251.532 339.684 251.789 339.556 251.987C339.51 252.08 339.44 252.162 339.347 252.22C339.288 252.255 339.207 252.255 339.148 252.22L337.703 251.532H337.645V251.416V251.264L337.703 251.148L339.137 248.817C339.16 248.7 339.218 248.584 339.312 248.502Z" fill="black"/>
</g>
<g opacity="0.3">
<path d="M344.416 245.554C344.474 245.53 344.556 245.53 344.614 245.554L346.059 246.241L346.118 246.311V246.439V246.579L346.059 246.684L344.626 249.015C344.579 249.097 344.509 249.166 344.428 249.213C344.358 249.248 344.288 249.248 344.218 249.213C344.113 249.143 344.113 248.933 344.218 248.735L345.115 247.278L342.785 248.642C342.621 248.724 342.493 248.642 342.493 248.467C342.505 248.269 342.61 248.083 342.785 247.978L345.115 246.614L344.218 246.183C344.09 246.183 344.09 245.927 344.218 245.728C344.265 245.659 344.335 245.6 344.416 245.554Z" fill="black"/>
</g>
<g opacity="0.3">
<path d="M349.241 242.768C349.532 242.57 349.882 242.512 350.22 242.582L350.441 242.291C350.488 242.232 350.535 242.186 350.593 242.151C350.639 242.127 350.698 242.127 350.744 242.151C350.849 242.151 350.896 242.267 350.873 242.407L350.756 243.293C350.744 243.398 350.698 243.503 350.628 243.596C350.581 243.654 350.535 243.701 350.476 243.736H350.406L349.707 243.934C349.614 243.957 349.521 243.91 349.486 243.817C349.486 243.806 349.486 243.794 349.486 243.782C349.486 243.642 349.532 243.491 349.626 243.386L349.684 243.293C349.532 243.304 349.381 243.351 349.241 243.421C348.635 243.829 348.262 244.493 348.215 245.216C348.215 245.868 348.682 246.136 349.253 245.798C349.684 245.519 349.998 245.111 350.162 244.633C350.208 244.505 350.29 244.388 350.406 244.318C350.453 244.307 350.5 244.307 350.546 244.318C350.686 244.318 350.744 244.505 350.663 244.703C350.406 245.437 349.905 246.055 349.253 246.474C348.367 246.987 347.644 246.579 347.644 245.554C347.691 244.423 348.285 243.386 349.241 242.768Z" fill="black"/>
</g>
<path d="M435.051 234.878L435.307 326.737L346.607 377.945L346.351 286.087L435.051 234.878Z" fill="white"/>
<path d="M422.709 261.543L382.758 325.082L382.817 340.827L390.508 325.548L382.817 340.827L377.036 324.732L422.709 261.543Z" fill="#0066C5"/>
<path opacity="0.3" d="M422.709 261.543L382.758 325.082L382.817 340.827L390.508 325.548L382.817 340.827L377.036 324.732L422.709 261.543Z" fill="black"/>
<path d="M382.758 325.082L390.508 325.548L382.817 340.827L382.758 325.082Z" fill="#0066C5"/>
<path opacity="0.5" d="M382.758 325.082L390.508 325.548L382.817 340.827L382.758 325.082Z" fill="black"/>
<path d="M422.709 261.543L377.036 324.732L357.947 323.578L422.709 261.543Z" fill="#0066C5"/>
<path d="M382.758 325.082L422.709 261.543L414.353 326.981L390.508 325.548L382.758 325.082Z" fill="#0066C5"/>
<path opacity="0.3" d="M357.947 323.578L377.036 324.732L382.817 340.827L390.508 325.548L414.353 326.981L422.709 261.543L357.947 323.578Z" fill="white"/>
<path d="M497.098 168.31C498.718 167.377 500.034 168.123 500.034 169.988C499.93 172.051 498.834 173.927 497.109 175.046L369.659 248.689C368.039 249.621 366.722 248.875 366.711 247.01C366.839 244.971 367.923 243.106 369.636 241.988L497.098 168.31Z" fill="#0066C5"/>
<g opacity="0.7">
<path d="M497.098 168.31C498.718 167.377 500.034 168.123 500.034 169.988C499.93 172.051 498.834 173.927 497.109 175.046L369.659 248.689C368.039 249.621 366.722 248.875 366.711 247.01C366.839 244.971 367.923 243.106 369.636 241.988L497.098 168.31Z" fill="white"/>
</g>
<path d="M360.417 247.092C362.037 246.16 363.354 246.906 363.354 248.77C363.249 250.821 362.165 252.709 360.441 253.828L349.089 260.529C347.47 261.473 346.153 260.716 346.153 258.863C346.257 256.8 347.341 254.924 349.078 253.805L360.417 247.092Z" fill="#0066C5"/>
<path d="M370.894 253.758C372.514 252.826 373.831 253.572 373.831 255.436C373.726 257.499 372.643 259.376 370.906 260.494L348.821 273.384C347.201 274.328 345.885 273.582 345.873 271.717C345.978 269.655 347.073 267.778 348.798 266.659L370.894 253.758Z" fill="#0066C5"/>
<path d="M402.652 235.275C404.272 234.342 405.589 235.088 405.589 236.953C405.484 239.016 404.4 240.892 402.664 242.011L380.579 254.9C378.959 255.844 377.642 255.098 377.631 253.234C377.735 251.171 378.831 249.295 380.556 248.176L402.652 235.275Z" fill="#0066C5"/>
<path d="M434.41 216.791C436.03 215.859 437.347 216.605 437.347 218.469C437.242 220.532 436.146 222.408 434.421 223.527L412.337 236.417C410.717 237.361 409.4 236.615 409.388 234.75C409.493 232.687 410.589 230.811 412.313 229.692L434.41 216.791Z" fill="#0066C5"/>
<path d="M466.167 198.308C467.787 197.375 469.104 198.121 469.104 199.986C468.999 202.049 467.904 203.925 466.179 205.044L444.094 217.933C442.474 218.877 441.158 218.12 441.146 216.267C441.251 214.204 442.346 212.328 444.071 211.209L466.167 198.308Z" fill="#0066C5"/>
<path d="M497.925 179.824C499.545 178.892 500.862 179.638 500.862 181.502C500.757 183.565 499.662 185.441 497.937 186.56L475.852 199.45C474.232 200.394 472.915 199.636 472.904 197.783C473.008 195.72 474.104 193.844 475.829 192.725L497.925 179.824Z" fill="#0066C5"/>
<g opacity="0.2">
<path d="M370.894 253.758C372.514 252.826 373.831 253.572 373.831 255.436C373.726 257.499 372.643 259.376 370.906 260.494L348.821 273.384C347.201 274.328 345.885 273.582 345.873 271.717C345.978 269.655 347.073 267.778 348.798 266.659L370.894 253.758Z" fill="white"/>
<path d="M402.652 235.275C404.272 234.342 405.589 235.088 405.589 236.953C405.484 239.016 404.4 240.892 402.664 242.011L380.579 254.9C378.959 255.844 377.642 255.098 377.631 253.234C377.735 251.171 378.831 249.295 380.556 248.176L402.652 235.275Z" fill="white"/>
<path d="M434.41 216.791C436.03 215.859 437.347 216.605 437.347 218.469C437.242 220.532 436.146 222.408 434.421 223.527L412.337 236.417C410.717 237.361 409.4 236.615 409.388 234.75C409.493 232.687 410.589 230.811 412.313 229.692L434.41 216.791Z" fill="white"/>
<path d="M466.167 198.308C467.787 197.375 469.104 198.121 469.104 199.986C468.999 202.049 467.904 203.925 466.179 205.044L444.094 217.933C442.474 218.877 441.158 218.12 441.146 216.267C441.251 214.204 442.346 212.328 444.071 211.209L466.167 198.308Z" fill="white"/>
<path d="M497.925 179.824C499.545 178.892 500.862 179.638 500.862 181.502C500.757 183.565 499.662 185.441 497.937 186.56L475.852 199.45C474.232 200.394 472.915 199.636 472.904 197.783C473.008 195.72 474.104 193.844 475.829 192.725L497.925 179.824Z" fill="white"/>
</g>
<path d="M476.446 212.491L476.458 218.19L444.875 236.475L444.852 230.776L476.446 212.491Z" fill="#0066C5"/>
<path d="M484.29 217.281L484.301 220.754L444.887 243.444V239.96L484.29 217.281Z" fill="#0066C5"/>
<g opacity="0.1">
<path d="M476.446 212.491L476.458 218.19L444.875 236.475L444.852 230.776L476.446 212.491Z" fill="white"/>
<path d="M484.29 217.281L484.301 220.754L444.887 243.444V239.96L484.29 217.281Z" fill="white"/>
<path d="M477.507 241.848L477.519 245.332L444.957 264.34L444.945 260.856L477.507 241.848Z" fill="white"/>
<path d="M484.336 231.207L484.348 234.692L444.933 257.371L444.922 253.898L484.336 231.207Z" fill="white"/>
<path d="M463.335 236.277L463.347 239.762L444.91 250.402L444.898 246.929L463.335 236.277Z" fill="white"/>
</g>
<path d="M482.67 282.847V286.46L446.041 307.74L446.029 304.128L482.67 282.847Z" fill="#0066C5"/>
<path d="M499.172 266.659L499.184 270.272L446.017 301.179L446.006 297.578L499.172 266.659Z" fill="#0066C5"/>
<g opacity="0.1">
<path d="M482.67 282.847V286.46L446.041 307.74L446.029 304.128L482.67 282.847Z" fill="white"/>
<path d="M499.172 266.659L499.184 270.272L446.017 301.179L446.006 297.578L499.172 266.659Z" fill="white"/>
</g>
<path d="M477.507 241.848L477.519 245.332L444.957 264.34L444.945 260.856L477.507 241.848Z" fill="#0066C5"/>
<path d="M484.336 231.207L484.348 234.692L444.933 257.371L444.922 253.898L484.336 231.207Z" fill="#0066C5"/>
<path d="M463.335 236.277L463.347 239.762L444.91 250.402L444.899 246.929L463.335 236.277Z" fill="#0066C5"/>
<path d="M139.897 48.9359C138.999 47.1528 137.228 45.9874 135.235 45.8825C135.025 45.8942 134.827 45.9291 134.629 46.0107L60.3453 88.9797C59.0983 89.7023 58.3175 91.0308 58.3175 92.476V153.963C58.4107 156.085 60.2171 157.728 62.3382 157.623C62.7228 157.6 63.1074 157.53 63.4687 157.401H63.6318L137.974 114.386C139.233 113.675 140.002 112.335 139.99 110.89V49.3671C140.002 49.2156 139.967 49.0641 139.897 48.9359Z" fill="#0066C5"/>
<path opacity="0.2" d="M58.3175 92.441V153.928C58.4107 156.05 60.2171 157.693 62.3382 157.588C62.7228 157.565 63.1074 157.495 63.4687 157.366C62.9559 157.553 62.3848 157.285 62.1983 156.772C62.1634 156.667 62.1401 156.551 62.1401 156.434V94.935C62.1401 94.1542 62.3732 93.385 62.816 92.7324L58.7254 90.6929C58.4574 91.2406 58.3175 91.835 58.3175 92.441Z" fill="white"/>
<path opacity="0.4" d="M135.293 45.8825C135.084 45.8942 134.886 45.9291 134.687 46.0107L60.3453 88.9797C59.6461 89.3759 59.0867 89.9703 58.7371 90.6929L62.8277 92.7324C63.1656 92.2079 63.6318 91.7767 64.1679 91.4737L138.51 48.528C138.988 48.26 139.594 48.4231 139.862 48.8893C139.873 48.9126 139.885 48.9359 139.897 48.9592C139.023 47.1878 137.263 46.0224 135.293 45.8825Z" fill="white"/>
<path opacity="0.3" d="M139.897 48.9359C138.999 47.1528 137.228 45.9874 135.235 45.8825C135.025 45.8942 134.827 45.9291 134.629 46.0107L60.3453 88.9797C59.0983 89.7023 58.3175 91.0308 58.3175 92.476V153.963C58.4107 156.085 60.2171 157.728 62.3382 157.623C62.7228 157.6 63.1074 157.53 63.4687 157.401H63.6318L137.974 114.386C139.233 113.675 140.002 112.335 139.99 110.89V49.3671C140.002 49.2156 139.967 49.0641 139.897 48.9359Z" fill="white"/>
<g opacity="0.6">
<path d="M90.5414 92.4876L115.866 94.667L90.6463 126.028L90.5414 92.4876Z" fill="white"/>
</g>
<path d="M93.3267 223.586L93.8978 223.271L94.4805 222.968V231.79L69.1443 246.265L40.4983 262.58V255.157L40.6498 255.005L41.2325 254.446C42.4795 253.292 43.843 252.278 45.2998 251.416L45.463 251.322L45.7077 251.183C46.6284 250.682 47.584 250.227 48.563 249.854L49.3671 249.563C52.7468 248.595 56.2081 247.978 59.7044 247.721L60.7183 247.582C63.6668 247.197 66.5221 246.311 69.1676 244.948L69.8086 244.586L70.3447 244.272C75.1928 241.277 79.668 235.997 84.1549 231.324L84.8425 230.613L85.1804 230.275L85.7981 229.657L86.1128 229.354C88.2222 227.233 90.5763 225.357 93.1053 223.76L93.3267 223.586Z" fill="#0066C5"/>
<path opacity="0.4" d="M93.3267 223.586L93.8978 223.271L94.4805 222.968V231.79L69.1443 246.265L40.4983 262.58V255.157L40.6498 255.005L41.2325 254.446C42.4795 253.292 43.843 252.278 45.2998 251.416L45.463 251.322L45.7077 251.183C46.6284 250.682 47.584 250.227 48.563 249.854L49.3671 249.563C52.7468 248.595 56.2081 247.978 59.7044 247.721L60.7183 247.582C63.6668 247.197 66.5221 246.311 69.1676 244.948L69.8086 244.586L70.3447 244.272C75.1928 241.277 79.668 235.997 84.1549 231.324L84.8425 230.613L85.1804 230.275L85.7981 229.657L86.1128 229.354C88.2222 227.233 90.5763 225.357 93.1053 223.76L93.3267 223.586Z" fill="black"/>
<path d="M63.2239 221.196C66.3588 219.39 68.9111 220.847 68.9228 224.46C68.713 228.445 66.6036 232.093 63.2588 234.261C60.1122 236.079 57.5716 234.622 57.5599 231.021C57.7697 227.024 59.8675 223.376 63.2239 221.196Z" fill="white"/>
<path d="M45.9408 240.181C46.3487 239.948 46.7799 239.75 47.2344 239.598C48.4581 239.272 49.7517 239.272 50.9754 239.598L58.2592 240.822C59.6228 240.985 60.998 240.659 62.1517 239.913C63.5969 239.039 64.8672 237.885 65.8927 236.533C67.0232 234.867 68.4567 233.422 70.0999 232.256L70.2631 232.163C71.3352 231.604 72.5822 231.464 73.7593 231.778C75.1228 231.977 76.5214 231.662 77.6751 230.904C79.2717 229.937 80.6353 228.643 81.7075 227.117C83.0943 225.229 84.4928 223.329 85.7748 221.488C86.7188 219.984 87.8609 218.621 89.1661 217.42C89.4458 217.199 89.7372 217.001 90.0519 216.826C91.4037 216.104 92.9421 215.812 94.4571 215.975V222.968L93.8744 223.271L93.3383 223.562L93.012 223.76C90.4831 225.357 88.1289 227.233 86.0195 229.354L85.7048 229.657L85.0872 230.275L84.7492 230.613L84.0616 231.324C79.5631 235.986 75.0995 241.277 70.2514 244.272L69.7153 244.586L69.0743 244.948C66.4288 246.311 63.5736 247.197 60.625 247.582L59.6111 247.721C56.1149 247.978 52.6536 248.595 49.2739 249.563L48.4697 249.854C47.4908 250.239 46.5351 250.693 45.6145 251.206L45.3697 251.346L45.2066 251.439C43.7498 252.301 42.3862 253.315 41.1392 254.469L40.5565 255.029L40.405 255.18V245.729C40.8945 245.029 41.3956 244.365 41.9201 243.736C43.0505 242.337 44.4141 241.137 45.9408 240.181Z" fill="#0066C5"/>
<g opacity="0.2">
<path d="M45.9408 240.181C46.3487 239.948 46.7799 239.75 47.2344 239.598C48.4581 239.272 49.7517 239.272 50.9754 239.598L58.2592 240.822C59.6228 240.985 60.998 240.659 62.1517 239.913C63.5969 239.039 64.8672 237.885 65.8927 236.533C67.0232 234.867 68.4567 233.422 70.0999 232.256L70.2631 232.163C71.3352 231.604 72.5822 231.464 73.7593 231.778C75.1228 231.977 76.5214 231.662 77.6751 230.904C79.2717 229.937 80.6353 228.643 81.7075 227.117C83.0943 225.229 84.4928 223.329 85.7748 221.488C86.7188 219.984 87.8609 218.621 89.1661 217.42C89.4458 217.199 89.7372 217.001 90.0519 216.826C91.4037 216.104 92.9421 215.812 94.4571 215.975V222.968L93.8744 223.271L93.3383 223.562L93.012 223.76C90.4831 225.357 88.1289 227.233 86.0195 229.354L85.7048 229.657L85.0872 230.275L84.7492 230.613L84.0616 231.324C79.5631 235.986 75.0995 241.277 70.2514 244.272L69.7153 244.586L69.0743 244.948C66.4288 246.311 63.5736 247.197 60.625 247.582L59.6111 247.721C56.1149 247.978 52.6536 248.595 49.2739 249.563L48.4697 249.854C47.4908 250.239 46.5351 250.693 45.6145 251.206L45.3697 251.346L45.2066 251.439C43.7498 252.301 42.3862 253.315 41.1392 254.469L40.5565 255.029L40.405 255.18V245.729C40.8945 245.029 41.3956 244.365 41.9201 243.736C43.0505 242.337 44.4141 241.137 45.9408 240.181Z" fill="black"/>
</g>
<path d="M35.7433 227.28L99.0256 190.709L99.1654 241.207L35.9065 277.778L35.7433 227.28ZM94.4338 215.975V198.762L40.405 229.937L40.5216 269.794L94.5271 238.608V231.79V222.968V215.975" fill="#0066C5"/>
<g opacity="0.6">
<path d="M35.7433 227.28L99.0256 190.709L99.1654 241.207L35.9065 277.778L35.7433 227.28ZM94.4338 215.975V198.762L40.405 229.937L40.5216 269.794L94.5271 238.608V231.79V222.968V215.975" fill="white"/>
</g>
<path d="M40.4983 262.604L69.1443 246.288L94.5038 231.813V238.631L40.5216 269.794L40.4983 262.604Z" fill="#455A64"/>
<path d="M40.405 229.937L94.4105 198.762V215.975C92.8955 215.812 91.3571 216.104 90.0052 216.826C89.6906 217.001 89.3992 217.199 89.1195 217.42C87.8143 218.621 86.6721 219.984 85.7282 221.488C84.4462 223.329 83.0477 225.229 81.6608 227.117C80.612 228.643 79.2601 229.925 77.6984 230.904C76.5447 231.662 75.1462 231.977 73.7826 231.778C72.6055 231.464 71.3585 231.604 70.2864 232.163L70.1232 232.256C68.48 233.422 67.0465 234.867 65.916 236.533C64.8905 237.885 63.6202 239.039 62.175 239.913C61.0213 240.659 59.6461 240.985 58.2825 240.822L50.9987 239.563C49.775 239.237 48.4814 239.237 47.2577 239.563C46.8032 239.715 46.372 239.913 45.9641 240.146C44.449 241.102 43.1088 242.302 41.99 243.701C41.4656 244.33 40.9644 244.994 40.475 245.694L40.405 229.937ZM63.2589 234.261C66.592 232.093 68.7014 228.48 68.9228 224.506C68.9228 220.893 66.3589 219.437 63.2239 221.243C59.8675 223.422 57.7698 227.07 57.56 231.068C57.56 234.669 60.1123 236.125 63.2589 234.307" fill="#0066C5"/>
<path d="M356.49 131.273L426.648 90.7628L426.846 162.844L356.688 203.354L356.49 131.273ZM420.215 159.068L420.052 102.137L363.121 135.002L363.284 191.886L420.215 159.021" fill="#0066C5"/>
<path opacity="0.6" d="M356.49 131.273L426.648 90.7628L426.846 162.844L356.688 203.354L356.49 131.273ZM420.215 159.068L420.052 102.137L363.121 135.002L363.284 191.886L420.215 159.021" fill="white"/>
<path d="M392.07 124.653L408.572 126.075L391.382 147.53L374.88 146.109L392.07 124.653Z" fill="#FAFAFA"/>
<path d="M408.572 126.075L408.584 147.868L391.382 169.324V147.53L408.572 126.075Z" fill="#EBEBEB"/>
<path d="M374.88 146.109L391.382 147.53V169.324L374.88 167.902V146.109Z" fill="#E0E0E0"/>
<path d="M363.121 135.014L420.052 102.137L420.215 159.021L363.284 191.875L363.121 135.014ZM408.572 147.833V126.04L392.07 124.618L374.88 146.109V167.902L391.382 169.324L408.584 147.868" fill="#0066C5"/>
<g opacity="0.2">
<path d="M363.121 135.014L420.052 102.137L420.215 159.021L363.284 191.875L363.121 135.014ZM408.572 147.833V126.04L392.07 124.618L374.88 146.109V167.902L391.382 169.324L408.584 147.868" fill="white"/>
</g>
<path d="M421.497 62.5131L453.721 43.8664L453.861 92.4993L421.637 111.146L421.497 62.5131ZM442.265 83.4906V83.3041C442.521 81.3928 443.185 79.5631 444.199 77.9315C446.111 74.9364 447.194 71.4868 447.323 67.9322C447.323 61.8138 442.976 59.3315 437.65 62.3849C432.324 65.4383 427.953 72.9902 427.977 79.097C427.977 82.3252 429.142 84.5278 431.088 85.4601C432.242 86.0778 432.988 87.2432 433.093 88.5485V88.7583C433.151 89.3643 433.419 89.9237 433.862 90.3316V91.6485L434.41 91.3339V91.7767L433.862 92.103V93.42L434.41 93.1053V93.5598L433.85 93.8745V95.203L434.398 94.8767V95.7275V96.0305C434.561 97.2891 435.564 97.7087 436.729 97.0211L436.612 97.091V97.1843C436.612 97.5572 436.95 97.6854 437.3 97.4756L437.801 97.1959C438.174 96.9512 438.43 96.5433 438.489 96.1004V95.9955L438.372 96.0538C439.654 95.2147 440.505 93.8512 440.703 92.3361V91.9865V91.1474L441.251 90.8327V89.5042L440.703 89.8188V89.376L441.251 89.0496V87.7327L440.691 88.0474V87.5929L441.251 87.2782V85.9496C441.647 85.1804 441.903 84.353 442.02 83.4906M442.766 59.2149C442.696 59.3897 442.766 59.5529 442.859 59.5645H442.987C443.092 59.5063 443.174 59.4014 443.22 59.2848L445.248 54.0521C445.318 53.8773 445.248 53.7141 445.155 53.7025C445.108 53.6908 445.062 53.6908 445.015 53.7025C444.91 53.7608 444.829 53.8656 444.794 53.9822L442.766 59.2149ZM429.608 62.6412C429.492 62.7928 429.445 63.0025 429.527 63.0958L431.799 66.0093C431.799 66.0792 431.939 66.0792 432.032 66.0093L432.161 65.8928C432.277 65.7646 432.312 65.5898 432.254 65.4266L430.203 62.5131C430.203 62.4431 430.074 62.4431 429.981 62.5131C429.923 62.5364 429.876 62.583 429.841 62.6296M445.47 84.5628C445.586 84.4346 445.621 84.2598 445.563 84.0966L443.512 81.2297C443.512 81.1597 443.383 81.1481 443.29 81.2297C443.232 81.253 443.197 81.2996 443.162 81.3462C443.034 81.4628 442.999 81.6492 443.057 81.8124L445.108 84.691C445.178 84.7492 445.271 84.7492 445.341 84.691L445.47 84.5744M432.324 88.0008C432.324 87.8143 432.324 87.6511 432.219 87.6511C432.184 87.6278 432.126 87.6278 432.091 87.6511C431.986 87.7094 431.904 87.8143 431.869 87.9308L429.841 93.1519C429.771 93.3384 429.841 93.5015 429.935 93.5132H430.063C430.168 93.4433 430.249 93.35 430.296 93.2335L432.324 88.0008ZM428.105 85.8214C428.233 85.7049 428.268 85.5184 428.21 85.3553C428.14 85.297 428.047 85.297 427.977 85.3553C427.93 85.3902 427.883 85.4368 427.848 85.4834L424.352 89.8538C424.236 89.982 424.189 90.1568 424.259 90.3199C424.317 90.3782 424.422 90.3782 424.48 90.3199L424.609 90.1917L428.105 85.8214ZM451.134 74.7616C451.203 74.5751 451.134 74.4236 451.04 74.412L447.544 74.109C447.497 74.0973 447.451 74.0973 447.404 74.109C447.299 74.1789 447.229 74.2721 447.183 74.3887C447.113 74.5751 447.183 74.7266 447.276 74.7383L450.772 75.0413H450.9C451.005 74.9714 451.075 74.8781 451.122 74.7616M447.206 61.3476C447.09 61.4758 447.055 61.6506 447.113 61.8138C447.171 61.8837 447.276 61.8837 447.346 61.8138L447.474 61.6973L450.97 57.3269C451.087 57.1987 451.122 57.0239 451.064 56.8608C450.994 56.8025 450.9 56.8025 450.831 56.8608C450.784 56.8957 450.737 56.9307 450.702 56.9773L447.206 61.3476ZM424.189 72.4191C424.107 72.5939 424.189 72.7571 424.282 72.7687L427.779 73.0717H427.907C428.012 73.0018 428.093 72.9086 428.128 72.792C428.21 72.6056 428.128 72.4424 428.035 72.4308L424.539 72.1394C424.492 72.1278 424.457 72.1278 424.41 72.1394C424.306 72.2093 424.224 72.3142 424.189 72.4308M437.347 56.2198V60.8815C437.347 61.0446 437.463 61.1145 437.615 61.033C437.766 60.9281 437.859 60.7649 437.871 60.5785V55.9168C437.871 55.7536 437.755 55.6837 437.603 55.7653C437.452 55.8702 437.358 56.0333 437.347 56.2198ZM452.963 65.1003C453.115 64.9954 453.208 64.8322 453.22 64.6458C453.22 64.4826 453.103 64.4127 452.963 64.5059L448.884 66.8368C448.733 66.9416 448.64 67.1048 448.628 67.2913C448.616 67.3845 448.674 67.4661 448.756 67.4777C448.803 67.4894 448.849 67.4777 448.896 67.4428L452.963 65.1003ZM422.161 82.5932C422.161 82.7564 422.278 82.8263 422.429 82.7447L426.497 80.4139C426.648 80.3206 426.753 80.1458 426.753 79.9594C426.753 79.7962 426.636 79.7379 426.497 79.8195L422.429 82.1504C422.278 82.2552 422.173 82.4184 422.161 82.5932Z" fill="#0066C5"/>
<path d="M438.675 96.0072V96.1121C438.617 96.5549 438.361 96.9628 437.988 97.2076L437.486 97.4873C437.137 97.697 436.845 97.5688 436.799 97.1959V97.1027L436.915 97.0328L438.594 96.0655L438.675 96.0072Z" fill="#37474F"/>
<path d="M440.948 91.9981V92.3478C440.75 93.8628 439.899 95.2264 438.617 96.0655L436.939 97.0328C435.773 97.7204 434.748 97.3008 434.608 96.0422V95.7391L440.948 91.9981Z" fill="#455A64"/>
<path d="M434.48 93.5715L434.468 93.1169L440.948 89.3876V89.8305L434.48 93.5715Z" fill="#37474F"/>
<path d="M441.495 87.7444V89.0613L440.948 89.3876L434.468 93.1169L433.92 93.4316V92.1147L434.468 91.8L440.936 88.059L441.495 87.7444Z" fill="#455A64"/>
<path d="M440.796 72.3958C441.332 72.0811 441.775 72.3958 441.775 72.9552V77.7684C441.752 78.3861 441.577 78.9804 441.251 79.5049L440.47 80.8684C440.225 81.2763 440.085 81.7425 440.074 82.2203V86.7654L439.677 86.9868V82.4417C439.701 81.8357 439.876 81.2413 440.19 80.7169L440.983 79.3417C441.227 78.9338 441.367 78.4793 441.379 78.0015V73.1766C441.379 72.8154 441.111 72.6638 440.785 72.8503C440.435 73.0717 440.225 73.4563 440.202 73.8642V78.2462C440.167 78.9338 439.806 79.5631 439.223 79.9477C438.687 80.2624 438.244 80.006 438.244 79.3883V74.9947C438.244 74.6217 437.988 74.4702 437.661 74.6567C437.312 74.8781 437.102 75.2627 437.079 75.6706V80.0642C437.032 80.7518 436.671 81.3812 436.1 81.7541C435.564 82.0688 435.121 81.7541 435.121 81.1947V76.8011C435.121 76.4281 434.853 76.2766 434.526 76.4631C434.188 76.6845 433.967 77.0691 433.944 77.477V82.3252C433.909 82.6748 434.06 83.0128 434.352 83.1992L435.144 83.6537C435.517 83.9218 435.715 84.3646 435.657 84.8192V89.3177L435.272 89.5391V84.994C435.307 84.6443 435.144 84.3064 434.864 84.1083L434.072 83.6654C433.699 83.3974 433.501 82.9545 433.559 82.5V77.6751C433.594 76.9876 433.967 76.3699 434.538 75.9969C435.074 75.6823 435.517 75.9969 435.517 76.5563V80.9383C435.517 81.3112 435.785 81.4744 436.111 81.2879C436.461 81.0549 436.671 80.6819 436.694 80.2624V75.8687C436.729 75.1811 437.09 74.5518 437.673 74.1789C438.209 73.8642 438.652 74.1789 438.652 74.7383V79.1319C438.652 79.5049 438.92 79.6564 439.246 79.4699C439.596 79.2485 439.806 78.8639 439.829 78.456V74.0623C439.876 73.3864 440.237 72.7687 440.796 72.3958Z" fill="white"/>
<path d="M457.998 36.4426L417.208 60.0074L417.371 118.535L458.161 94.9583L457.998 36.4426ZM421.625 111.099L421.497 62.5131L453.721 43.8664L453.861 92.4993L421.637 111.146" fill="#0066C5"/>
<g opacity="0.6">
<path d="M457.998 36.4426L417.208 60.0074L417.371 118.535L458.161 94.9583L457.998 36.4426ZM421.625 111.099L421.497 62.5131L453.721 43.8664L453.861 92.4993L421.637 111.146" fill="white"/>
</g>
<path d="M434.48 95.7391V94.8884L440.948 91.159V91.9981L434.48 95.7391Z" fill="#37474F"/>
<path d="M441.495 89.5158V90.8444L440.948 91.159L434.48 94.8884L433.932 95.2147L433.92 93.8861L434.48 93.5715L440.948 89.8305L441.495 89.5158Z" fill="#455A64"/>
<path d="M434.468 91.3455L440.936 87.6045V88.059L434.468 91.8V91.3455Z" fill="#37474F"/>
<path d="M437.638 62.4082C442.987 59.3431 447.311 61.8255 447.334 67.9439C447.206 71.4984 446.122 74.9481 444.211 77.9432C443.197 79.5748 442.533 81.4045 442.276 83.3158V83.5022C442.16 84.3647 441.903 85.1921 441.507 85.9613L440.132 86.7654V82.2203C440.144 81.7425 440.283 81.2763 440.528 80.8684L441.309 79.5049C441.635 78.9804 441.81 78.3861 441.833 77.7684V72.9552C441.833 72.3375 441.391 72.0811 440.854 72.3958C440.283 72.7687 439.922 73.3981 439.876 74.0857V78.4793C439.852 78.8872 439.642 79.2718 439.293 79.4932C438.967 79.6797 438.698 79.4932 438.698 79.1552V74.7616C438.698 74.1439 438.256 73.8875 437.719 74.2022C437.137 74.5751 436.776 75.2045 436.741 75.8921V80.2857C436.717 80.7052 436.507 81.0782 436.158 81.3112C435.832 81.4977 435.563 81.3113 435.563 80.9616V76.5797C435.563 75.962 435.121 75.7056 434.585 76.0203C434.013 76.3932 433.641 77.0109 433.606 77.6985V82.5233C433.547 82.9778 433.745 83.4207 434.118 83.6887L434.911 84.1316C435.191 84.3297 435.354 84.6677 435.319 85.0173V89.5624L433.932 90.3666C433.489 89.9587 433.221 89.3993 433.163 88.7932V88.5835C433.058 87.2782 432.312 86.1128 431.158 85.4951C429.259 84.5628 428.058 82.3601 428.047 79.1319C427.965 73.0018 432.324 65.4849 437.638 62.4082Z" fill="#0066C5"/>
<path d="M440.214 80.7169C439.899 81.2413 439.724 81.8357 439.701 82.4417V86.9868L435.668 89.3177V84.7725C435.727 84.318 435.529 83.8752 435.156 83.6071L434.363 83.1526C434.072 82.9662 433.92 82.6282 433.955 82.2786V77.4537C433.979 77.0458 434.2 76.6612 434.538 76.4398C434.864 76.2533 435.132 76.4398 435.132 76.7778V81.1598C435.132 81.7774 435.575 82.0338 436.111 81.7192C436.682 81.3462 437.044 80.7169 437.09 80.0293V75.6357C437.113 75.2278 437.323 74.8432 437.673 74.6218C437.999 74.4353 438.256 74.6218 438.256 74.9597V79.3534C438.256 79.971 438.698 80.2274 439.235 79.9128C439.817 79.5282 440.179 78.8988 440.214 78.2112V73.8293C440.237 73.4214 440.447 73.0368 440.796 72.8154C441.123 72.6289 441.391 72.8154 441.391 73.1417V77.9665C441.379 78.4443 441.239 78.8988 440.994 79.3067L440.214 80.7169Z" fill="#0066C5"/>
<g opacity="0.4">
<path d="M437.638 62.4082C442.987 59.3431 447.311 61.8255 447.334 67.9439C447.206 71.4984 446.122 74.9481 444.211 77.9432C443.197 79.5748 442.533 81.4045 442.276 83.3158V83.5022C442.16 84.3647 441.903 85.1921 441.507 85.9613L440.132 86.7654V82.2203C440.144 81.7425 440.283 81.2763 440.528 80.8684L441.309 79.5049C441.635 78.9804 441.81 78.3861 441.833 77.7684V72.9552C441.833 72.3375 441.391 72.0811 440.854 72.3958C440.283 72.7687 439.922 73.3981 439.876 74.0857V78.4793C439.852 78.8872 439.642 79.2718 439.293 79.4932C438.967 79.6797 438.698 79.4932 438.698 79.1552V74.7616C438.698 74.1439 438.256 73.8875 437.719 74.2022C437.137 74.5751 436.776 75.2045 436.741 75.8921V80.2857C436.717 80.7052 436.507 81.0782 436.158 81.3112C435.832 81.4977 435.563 81.3113 435.563 80.9616V76.5797C435.563 75.962 435.121 75.7056 434.585 76.0203C434.013 76.3932 433.641 77.0109 433.606 77.6985V82.5233C433.547 82.9778 433.745 83.4207 434.118 83.6887L434.911 84.1316C435.191 84.3297 435.354 84.6677 435.319 85.0173V89.5624L433.932 90.3666C433.489 89.9587 433.221 89.3993 433.163 88.7932V88.5835C433.058 87.2782 432.312 86.1128 431.158 85.4951C429.259 84.5628 428.058 82.3601 428.047 79.1319C427.965 73.0018 432.324 65.4849 437.638 62.4082Z" fill="white"/>
<path d="M440.214 80.7169C439.899 81.2413 439.724 81.8357 439.701 82.4417V86.9868L435.668 89.3177V84.7725C435.727 84.318 435.529 83.8752 435.156 83.6071L434.363 83.1526C434.072 82.9661 433.92 82.6282 433.955 82.2786V77.4537C433.979 77.0458 434.2 76.6612 434.538 76.4398C434.864 76.2533 435.132 76.4398 435.132 76.7778V81.1598C435.132 81.7774 435.575 82.0338 436.111 81.7192C436.682 81.3462 437.044 80.7169 437.09 80.0293V75.6357C437.113 75.2278 437.323 74.8432 437.673 74.6218C437.999 74.4353 438.256 74.6218 438.256 74.9597V79.3533C438.256 79.971 438.698 80.2274 439.235 79.9128C439.817 79.5282 440.179 78.8988 440.214 78.2112V73.8293C440.237 73.4214 440.447 73.0368 440.796 72.8154C441.123 72.6289 441.391 72.8154 441.391 73.1417V77.9665C441.379 78.4443 441.239 78.8988 440.994 79.3067L440.214 80.7169Z" fill="white"/>
</g>
<path d="M441.484 85.9613L441.495 87.2898L440.936 87.6045L434.468 91.3455L433.92 91.6602L433.909 90.3432L441.484 85.9613Z" fill="#455A64"/>
<path d="M424.41 72.1744C424.457 72.1627 424.492 72.1627 424.539 72.1744L428.035 72.4657C428.163 72.4657 428.21 72.6405 428.128 72.827C428.093 72.9436 428.012 73.0368 427.907 73.1067H427.779L424.282 72.8037C424.154 72.8037 424.107 72.6289 424.189 72.4541C424.236 72.3375 424.306 72.2443 424.41 72.1744Z" fill="white"/>
<path d="M443.29 81.2297C443.383 81.2297 443.465 81.2297 443.512 81.2297L445.563 84.0966C445.621 84.2598 445.586 84.4346 445.47 84.5628L445.341 84.6793C445.271 84.7376 445.178 84.7376 445.108 84.6793L443.057 81.8007C442.999 81.6376 443.034 81.4511 443.162 81.3346C443.197 81.2879 443.244 81.253 443.29 81.2297Z" fill="white"/>
<path d="M452.963 64.5059C453.103 64.4127 453.22 64.5059 453.22 64.6458C453.208 64.8322 453.115 64.9954 452.963 65.1003L448.896 67.4311C448.826 67.4894 448.721 67.4894 448.663 67.4195C448.628 67.3845 448.616 67.3379 448.628 67.2796C448.639 67.0931 448.733 66.93 448.884 66.8251L452.963 64.5059Z" fill="white"/>
<path d="M450.854 56.9074C450.924 56.8491 451.017 56.8491 451.087 56.9074C451.145 57.0706 451.11 57.2454 450.994 57.3736L447.497 61.7439L447.369 61.8604C447.311 61.9303 447.206 61.9303 447.136 61.8604C447.078 61.6973 447.113 61.5224 447.229 61.3943L450.726 57.0239C450.761 56.9773 450.807 56.9424 450.854 56.9074Z" fill="white"/>
<path d="M427.977 85.3436C428.047 85.2853 428.14 85.2853 428.21 85.3436C428.268 85.5068 428.233 85.6932 428.105 85.8098L424.609 90.1801L424.48 90.3083C424.422 90.3666 424.317 90.3666 424.259 90.3083C424.189 90.1451 424.236 89.9703 424.352 89.8421L427.848 85.4718C427.883 85.4252 427.93 85.3786 427.977 85.3436Z" fill="white"/>
<path d="M445.248 53.7141C445.295 53.7025 445.341 53.7025 445.388 53.7141C445.505 53.7141 445.551 53.889 445.481 54.0638L443.453 59.2965C443.407 59.413 443.325 59.5179 443.22 59.5762H443.092C442.964 59.5762 442.929 59.4014 442.999 59.2266L445.027 53.9938C445.062 53.8773 445.143 53.7724 445.248 53.7141Z" fill="white"/>
<path d="M426.462 79.7846C426.601 79.703 426.718 79.7846 426.718 79.9244C426.718 80.1109 426.613 80.2857 426.462 80.3789L422.394 82.7098C422.243 82.7913 422.126 82.7097 422.126 82.5582C422.138 82.3718 422.243 82.2086 422.394 82.1037L426.462 79.7846Z" fill="white"/>
<path d="M437.603 55.7653C437.754 55.6837 437.871 55.7653 437.871 55.9168V60.5785C437.859 60.7649 437.766 60.9281 437.615 61.033C437.463 61.1146 437.347 61.033 437.347 60.8815V56.2198C437.358 56.0333 437.451 55.8702 437.603 55.7653Z" fill="white"/>
<path d="M429.981 62.5131C430.074 62.5131 430.156 62.5131 430.203 62.5131L432.254 65.3916C432.312 65.5548 432.277 65.7296 432.16 65.8578L431.986 66.0093C431.892 66.0093 431.799 66.0093 431.753 66.0093L429.713 63.1307C429.632 63.0375 429.713 62.8277 429.795 62.6762C429.841 62.6063 429.9 62.548 429.981 62.5131Z" fill="white"/>
<path d="M447.369 74.1672C447.416 74.1556 447.462 74.1556 447.509 74.1672L451.005 74.4703C451.133 74.4703 451.168 74.6334 451.098 74.8199C451.052 74.9364 450.982 75.0297 450.877 75.0996H450.749L447.253 74.7966C447.136 74.7966 447.089 74.6334 447.159 74.4469C447.194 74.3304 447.276 74.2372 447.369 74.1672Z" fill="white"/>
<path d="M432.091 87.6977C432.126 87.6744 432.184 87.6744 432.219 87.6977C432.347 87.6977 432.382 87.8609 432.324 88.0474L430.296 93.2801C430.249 93.3966 430.168 93.4899 430.063 93.5598H429.935C429.818 93.5598 429.771 93.385 429.841 93.1985L431.869 87.9774C431.904 87.8609 431.986 87.756 432.091 87.6977Z" fill="white"/>
<path d="M308.008 132.753L316.073 130.026L308.859 143.195L299.373 154.756L308.008 132.753Z" fill="#455A64"/>
<path d="M334.207 98.8391L324.569 133.464L309.162 151.271L305.095 162.844L287.8 172.832L299.373 154.756L308.859 143.195L316.073 130.026L334.207 98.8391Z" fill="#37474F"/>
<path d="M364.042 68.2003L364.182 116.332L357.271 108.57L352.877 113.488L334.207 98.8391L316.073 130.026L308.008 132.753L299.373 154.756L287.8 172.832L305.095 162.844L324.616 151.574L334.324 145.969L364.217 128.709L287.8 172.832L287.625 112.323L364.042 68.2003Z" fill="#0066C5"/>
<path opacity="0.2" d="M364.042 68.2003L364.182 116.332L357.271 108.57L352.877 113.488L334.207 98.8391L316.073 130.026L308.008 132.753L299.373 154.756L287.8 172.832L305.095 162.844L324.616 151.574L334.324 145.969L364.217 128.709L287.8 172.832L287.625 112.323L364.042 68.2003Z" fill="black"/>
<path d="M357.271 108.57L364.182 116.332L364.217 128.709L334.324 145.969L337.144 140.421L344.987 131.984L357.271 108.57Z" fill="#455A64"/>
<path d="M334.207 98.8391L352.877 113.488L335.885 132.508L324.616 151.574L305.095 162.844L309.162 151.271L324.569 133.464L334.207 98.8391Z" fill="#455A64"/>
<path d="M280.994 108.535L370.638 56.7792L370.848 132.531L281.204 184.299L280.994 108.535ZM364.182 116.332L364.042 68.2003L287.625 112.323L287.8 172.832L364.217 128.709V116.332" fill="#0066C5"/>
<path opacity="0.6" d="M280.994 108.535L370.638 56.7792L370.848 132.531L281.204 184.299L280.994 108.535ZM364.182 116.332L364.042 68.2003L287.625 112.323L287.8 172.832L364.217 128.709V116.332" fill="white"/>
<path d="M357.271 108.57L344.987 131.984L337.144 140.421L334.324 145.969L324.616 151.574L335.885 132.508L352.877 113.488L357.271 108.57Z" fill="#37474F"/>
<path d="M138.731 142.752L138.836 178.903L93.1869 205.254L93.082 169.102L138.731 142.752Z" fill="#0066C5"/>
<g opacity="0.1">
<path d="M138.731 142.752L138.836 178.903L93.1869 205.254L93.082 169.102L138.731 142.752Z" fill="black"/>
</g>
<path d="M89.1195 166.853L142.729 135.934L142.857 181.153L89.2477 212.071L89.1195 166.853ZM138.836 178.892L138.731 142.764L93.0936 169.114L93.1868 205.242L138.836 178.892Z" fill="#0066C5"/>
<g opacity="0.6">
<path d="M89.1195 166.853L142.729 135.934L142.857 181.153L89.2477 212.071L89.1195 166.853ZM138.836 178.892L138.731 142.764L93.0936 169.114L93.1868 205.242L138.836 178.892Z" fill="white"/>
</g>
<path d="M130.923 153.148C131.739 152.67 132.403 153.054 132.415 153.998L132.473 174.976C132.415 176.013 131.867 176.969 130.993 177.528L123.15 182.05C126.529 177.388 128.755 171.678 128.732 166.597C128.709 161.515 126.471 158.345 123.068 157.658L130.923 153.148Z" fill="#37474F"/>
<path d="M115.936 163.904C120.772 161.119 124.711 163.357 124.723 168.916C124.408 175.069 121.169 180.71 115.994 184.066C111.146 186.863 107.207 184.626 107.195 179.067C107.51 172.901 110.761 167.273 115.936 163.904ZM113.244 174.393C114.84 173.368 115.843 171.631 115.947 169.732C115.947 168.007 114.782 167.319 113.232 168.182C111.635 169.219 110.633 170.944 110.517 172.843C110.517 174.556 111.682 175.256 113.244 174.393Z" fill="#263238"/>
<path d="M108.734 165.956C105.342 170.617 103.128 176.328 103.14 181.409C103.151 186.49 105.4 189.672 108.803 190.359L100.995 194.858C100.179 195.336 99.5151 194.951 99.5151 194.019L99.4451 173.041C99.5034 172.004 100.051 171.048 100.925 170.477L108.734 165.956Z" fill="#37474F"/>
<path d="M113.232 168.123C114.724 167.261 115.947 167.948 115.947 169.673C115.843 171.573 114.84 173.309 113.244 174.335C111.74 175.209 110.517 174.51 110.517 172.797C110.621 170.897 111.635 169.161 113.232 168.123Z" fill="white"/>
<path d="M123.15 157.658C126.553 158.345 128.802 161.527 128.814 166.597C128.825 171.666 126.611 177.435 123.231 182.05C121.308 184.742 118.873 187.026 116.041 188.74C113.92 190.138 111.356 190.709 108.838 190.359C105.435 189.672 103.186 186.479 103.174 181.409C103.163 176.339 105.377 170.571 108.768 165.956C110.668 163.252 113.104 160.968 115.924 159.243C118.057 157.844 120.632 157.285 123.15 157.658ZM116.029 184.066C121.204 180.71 124.443 175.069 124.758 168.916C124.758 163.357 120.807 161.119 115.971 163.904C110.796 167.261 107.556 172.901 107.23 179.055C107.23 184.614 111.181 186.852 116.029 184.055" fill="#455A64"/>
<path d="M348.518 33.2261L406.078 0L406.241 59.1333L348.693 92.3594L348.518 33.2261ZM400.799 56.0333L400.671 9.41658L353.961 36.3377L354.101 82.9545L400.799 55.9867" fill="#0066C5"/>
<path opacity="0.6" d="M348.518 33.2261L406.078 0L406.241 59.1333L348.693 92.3594L348.518 33.2261ZM400.799 56.0333L400.671 9.41658L353.961 36.3377L354.101 82.9545L400.799 55.9867" fill="white"/>
<path d="M400.671 9.36996L353.961 36.3377L354.101 83.0011L400.799 56.0333L400.671 9.36996Z" fill="#0066C5"/>
<path d="M372.106 41.2675C372.654 41.687 373.062 42.2581 373.272 42.9224C372.514 44.181 371.967 45.5679 371.687 47.013C371.349 47.2927 370.999 47.5374 370.626 47.7589C370.207 47.9919 369.776 48.2017 369.321 48.3649C369.484 47.1295 369.811 45.9291 370.265 44.7754C370.755 43.54 371.372 42.3746 372.106 41.2675Z" fill="#F0F0F0"/>
<path d="M365.079 48.6912C365.359 48.7611 365.638 48.8077 365.918 48.831C367.084 48.9243 368.261 48.7611 369.356 48.3649C369.274 48.9359 369.228 49.507 369.24 50.0897C369.24 50.6141 369.286 51.1386 369.368 51.663C368.109 52.7002 366.955 53.8773 365.941 55.1593C365.627 55.5439 365.347 55.9168 365.102 56.2548C362.399 57.5251 361.862 56.2548 361.851 54.3435C361.839 52.4322 362.375 50.5559 365.079 48.6912Z" fill="#F0F0F0"/>
<path d="M382.653 49.4953C383.493 50.0897 384.483 50.451 385.52 50.5092C385.812 50.5209 386.115 50.5209 386.406 50.5092C387.572 52.7002 386.616 54.5416 385.241 56.3363C384.74 57.0239 384.122 57.6066 383.411 58.0728C382.537 58.6322 381.383 58.4224 380.766 57.595C380.766 57.222 380.766 56.8375 380.766 56.4296C380.789 55.1243 380.602 53.819 380.183 52.5837C380.649 52.1175 381.08 51.6397 381.488 51.1269C381.908 50.6025 382.304 50.0664 382.653 49.4953Z" fill="#F0F0F0"/>
<path d="M385.369 42.4096C386.488 41.99 387.676 41.8385 388.865 41.9434C389.145 41.9667 389.425 42.0017 389.704 42.0716C391.93 42.6077 391.697 44.4024 390.87 46.5468C390.462 47.9453 389.588 49.1457 388.387 49.9731C387.793 50.3111 387.117 50.4976 386.429 50.5325C386.138 50.5442 385.835 50.5442 385.544 50.5325C384.507 50.4743 383.516 50.113 382.677 49.5186C382.852 49.2506 383.015 48.9825 383.178 48.7028C383.679 47.8404 384.122 46.9431 384.483 46.0107C384.821 45.125 385.089 44.216 385.276 43.2836C385.369 42.969 385.369 42.7009 385.369 42.4096Z" fill="white"/>
<path d="M381.453 47.8404C381.651 48.5047 382.059 49.0758 382.619 49.4953C382.269 50.0664 381.873 50.6141 381.453 51.1386C381.045 51.6514 380.614 52.1292 380.148 52.5953L379.6 53.1081L380.148 52.5837C379.95 51.9077 379.542 51.325 378.982 50.8938C379.95 50.0081 380.789 48.9709 381.453 47.8404Z" fill="#E0E0E0"/>
<path d="M384.087 43.0156C384.506 42.7709 384.949 42.5727 385.404 42.4096C385.404 42.6893 385.311 42.969 385.252 43.2603C385.066 44.1927 384.798 45.1017 384.46 45.9874C384.099 46.9197 383.656 47.8171 383.155 48.6795C382.991 48.9592 382.828 49.2273 382.653 49.4953C382.094 49.0758 381.686 48.5047 381.488 47.8404C382.234 46.5701 382.758 45.1949 383.038 43.7498C383.364 43.4701 383.714 43.2254 384.087 43.0156Z" fill="#F0F0F0"/>
<path d="M389.669 34.543C392.373 33.2727 392.898 34.543 392.909 36.4543C392.921 38.3656 392.385 40.2419 389.681 42.1066C389.401 42.0367 389.122 42.0017 388.842 41.9784C387.653 41.8735 386.464 42.025 385.346 42.4445C385.427 41.8735 385.474 41.2908 385.474 40.7081C385.474 40.1836 385.427 39.6592 385.334 39.1348C386.628 38.0975 387.793 36.9321 388.83 35.6385L389.669 34.543Z" fill="#F0F0F0"/>
<path d="M380.171 52.5837C380.579 53.8307 380.777 55.136 380.754 56.4412C380.754 56.8491 380.754 57.2337 380.754 57.6066C380.497 60.8698 379.122 62.2683 377.467 63.224C375.812 64.1796 374.437 64.3894 374.169 61.4059C374.146 61.0213 374.146 60.6251 374.169 60.2405C374.158 58.7254 374.356 57.2104 374.729 55.742L375.265 55.6254C376.046 55.4273 376.791 55.1126 377.491 54.7047C378.283 54.2386 379.029 53.6908 379.705 53.0615L380.171 52.5837Z" fill="white"/>
<path d="M385.369 39.1115C385.462 39.6242 385.509 40.1487 385.509 40.6731C385.509 41.2558 385.462 41.8385 385.381 42.4096C385.381 42.6893 385.287 42.969 385.229 43.2603C385.287 42.969 385.334 42.6893 385.381 42.4096C384.926 42.5727 384.483 42.7709 384.064 43.0156C383.691 43.2254 383.341 43.4701 383.015 43.7498C383.12 43.1788 383.178 42.6077 383.178 42.025C383.19 41.5122 383.143 40.9878 383.038 40.4866C383.411 40.3701 383.761 40.2069 384.099 40.0088C384.541 39.7408 384.973 39.4378 385.369 39.1115Z" fill="#E0E0E0"/>
<path d="M378.994 50.8589C379.553 51.2901 379.961 51.8728 380.159 52.5487L379.612 53.0732C378.936 53.7025 378.19 54.2502 377.397 54.7164C376.698 55.1243 375.952 55.439 375.171 55.6371L374.635 55.742C374.892 54.6814 375.288 53.6559 375.801 52.7002C376.36 52.5604 376.896 52.339 377.397 52.0359C377.98 51.7096 378.505 51.3134 378.994 50.8589Z" fill="#F0F0F0"/>
<path d="M369.368 51.663C369.368 51.8961 369.461 52.1292 369.519 52.3506C369.694 52.9916 369.962 53.5859 370.335 54.1337C370.685 54.6115 371.128 55.0078 371.64 55.2991C371.803 55.3923 371.978 55.4739 372.153 55.5439C371.337 57.0705 370.382 58.5157 369.298 59.8559C368.983 60.2405 368.692 60.5901 368.412 60.8931C367.853 61.5574 367.2 62.1285 366.466 62.5946C365.743 63.1657 364.706 63.0375 364.147 62.3266C364.077 62.2334 364.018 62.1401 363.96 62.0352C363.133 60.8698 362.888 59.3315 365.126 56.2081C365.37 55.8702 365.65 55.4972 365.965 55.1126C366.979 53.8423 368.109 52.6886 369.368 51.663Z" fill="white"/>
<path d="M372.153 55.5205C372.526 55.672 372.922 55.7653 373.318 55.8002C373.761 55.8469 374.192 55.8469 374.635 55.8002C374.262 57.2687 374.064 58.7837 374.076 60.2988C374.053 60.6833 374.053 61.0796 374.076 61.4642C373.563 62.8743 372.642 64.0864 371.43 64.9604C370.883 65.2868 370.23 65.4149 369.601 65.3334C368.167 65.2168 367.27 64.436 368.354 60.9397C368.633 60.6367 368.925 60.2871 369.239 59.9025C370.347 58.539 371.326 57.0705 372.153 55.5205Z" fill="#F0F0F0"/>
<path d="M373.342 52.5254C374.111 52.8983 374.985 52.9799 375.801 52.7352C375.288 53.6908 374.892 54.7164 374.635 55.7769C374.204 55.8585 373.761 55.8818 373.319 55.8469C372.922 55.8119 372.526 55.7187 372.153 55.5672C372.678 54.6115 373.074 53.5859 373.342 52.5254Z" fill="#E0E0E0"/>
<path d="M382.619 35.2073C383.353 35.487 383.982 35.9881 384.425 36.6291C384.926 37.375 385.264 38.2257 385.392 39.1114C384.984 39.4378 384.541 39.7408 384.087 40.0088C383.749 40.2069 383.399 40.3701 383.026 40.4866C382.84 39.5427 382.257 38.7152 381.418 38.2374C381.686 37.1769 382.094 36.1629 382.619 35.2073Z" fill="#F0F0F0"/>
<path d="M388.306 28.1449C389.017 27.5855 390.054 27.702 390.613 28.4129C390.683 28.5061 390.753 28.5994 390.8 28.7043C391.627 29.8697 391.872 31.408 389.634 34.5313L388.795 35.6268C387.758 36.9205 386.593 38.0859 385.299 39.1231C385.159 38.2374 384.833 37.3983 384.332 36.6524C383.889 36.0114 383.259 35.5103 382.525 35.2306C383.329 33.7039 384.285 32.2471 385.369 30.9069C385.684 30.5223 385.975 30.1727 386.255 29.8697C386.837 29.1937 387.537 28.611 388.306 28.1449Z" fill="white"/>
<path d="M380.125 34.9859C380.556 34.9043 380.999 34.881 381.43 34.9159C381.826 34.9509 382.222 35.0441 382.595 35.1956C382.082 36.1629 381.686 37.1769 381.43 38.2374C380.661 37.8645 379.775 37.7945 378.959 38.0393C379.472 37.072 379.868 36.0464 380.125 34.9859Z" fill="#E0E0E0"/>
<path d="M370.685 50.754C371.011 50.5559 371.372 50.3927 371.733 50.2762C371.92 51.2201 372.514 52.0359 373.342 52.5254C373.085 53.5859 372.689 54.6115 372.176 55.5672C372.002 55.4972 371.827 55.4157 371.664 55.3224C371.151 55.0311 370.708 54.6348 370.358 54.157C369.985 53.6093 369.717 53.0149 369.543 52.3739C369.543 52.1525 369.438 51.9194 369.391 51.6863C369.799 51.3483 370.23 51.0337 370.685 50.754Z" fill="#F0F0F0"/>
<path d="M377.362 38.6919C377.864 38.4005 378.4 38.1908 378.959 38.0393C379.775 37.7945 380.649 37.8761 381.418 38.249C382.257 38.7269 382.84 39.5427 383.038 40.4866C383.155 40.9878 383.213 41.5122 383.213 42.025C383.201 42.6077 383.143 43.1788 383.038 43.7498C382.455 46.4769 381.045 48.9592 378.994 50.8589C378.505 51.3134 377.968 51.698 377.397 52.0243C376.896 52.3273 376.36 52.5487 375.801 52.6886C374.985 52.9333 374.111 52.8517 373.342 52.4788C372.514 51.9893 371.92 51.1735 371.734 50.2295C371.617 49.7284 371.559 49.204 371.559 48.6912C371.559 48.1085 371.617 47.5374 371.734 46.9664C372.013 45.5212 372.561 44.1344 373.318 42.8758C373.983 41.7453 374.799 40.7081 375.766 39.8224C376.255 39.3911 376.791 39.0182 377.362 38.6919Z" fill="#0066C5"/>
<g opacity="0.5">
<path d="M377.362 38.6919C377.864 38.4005 378.4 38.1908 378.959 38.0393C379.775 37.7945 380.649 37.8761 381.418 38.249C382.257 38.7269 382.84 39.5427 383.038 40.4866C383.155 40.9878 383.213 41.5122 383.213 42.025C383.201 42.6077 383.143 43.1788 383.038 43.7498C382.455 46.4769 381.045 48.9592 378.994 50.8589C378.505 51.3134 377.968 51.698 377.397 52.0243C376.896 52.3273 376.36 52.5487 375.801 52.6886C374.985 52.9333 374.111 52.8517 373.342 52.4788C372.514 51.9893 371.92 51.1735 371.734 50.2295C371.617 49.7284 371.559 49.204 371.559 48.6912C371.559 48.1085 371.617 47.5374 371.734 46.9664C372.013 45.5212 372.561 44.1344 373.318 42.8758C373.983 41.7453 374.799 40.7081 375.766 39.8224C376.255 39.3911 376.791 39.0182 377.362 38.6919Z" fill="white"/>
</g>
<path d="M366.396 40.7897C366.99 40.4517 367.666 40.2652 368.354 40.2419C368.645 40.2186 368.948 40.2186 369.24 40.2419C370.277 40.3002 371.267 40.6615 372.106 41.2558C371.384 42.3513 370.79 43.5284 370.312 44.7521C369.857 45.9058 369.531 47.1062 369.368 48.3416C368.249 48.7378 367.06 48.901 365.871 48.8077C365.592 48.7844 365.312 48.7378 365.032 48.6679C362.818 48.1318 363.04 46.337 363.867 44.2043C364.298 42.8058 365.184 41.6054 366.396 40.7897Z" fill="white"/>
<path d="M369.356 48.3649C369.811 48.2017 370.253 47.9919 370.673 47.7589C371.046 47.5374 371.396 47.2927 371.734 47.013C371.617 47.584 371.559 48.1551 371.559 48.7378C371.559 49.2506 371.617 49.775 371.734 50.2762C371.372 50.3927 371.011 50.5559 370.685 50.754C370.218 51.022 369.787 51.325 369.368 51.663C369.368 51.8961 369.461 52.1292 369.519 52.3506C369.519 52.1292 369.414 51.8961 369.368 51.663C369.286 51.1386 369.24 50.6141 369.24 50.0897C369.228 49.507 369.274 48.9359 369.356 48.3649Z" fill="#E0E0E0"/>
<path d="M383.271 25.8257C383.831 25.511 384.472 25.3828 385.101 25.4527C386.534 25.5693 387.432 26.3501 386.348 29.8464C386.068 30.1494 385.777 30.499 385.462 30.8836C384.378 32.2238 383.423 33.6689 382.619 35.1956C382.246 35.0441 381.849 34.9509 381.453 34.9159C381.022 34.881 380.579 34.9043 380.148 34.9859C380.521 33.5058 380.707 31.9907 380.707 30.4757C380.707 30.0678 380.707 29.6949 380.707 29.3686C381.185 27.9584 382.082 26.7231 383.271 25.8257Z" fill="#F0F0F0"/>
<path d="M377.351 36.0231C378.202 35.5103 379.146 35.1607 380.125 34.9859C379.856 36.0464 379.472 37.0603 378.959 38.0276C378.4 38.1791 377.864 38.4005 377.362 38.6919C376.791 39.0299 376.255 39.4145 375.766 39.8573C375.206 39.4261 374.799 38.8434 374.6 38.1675C375.416 37.34 376.349 36.6175 377.351 36.0231Z" fill="#F0F0F0"/>
<path d="M374.589 38.1675C374.787 38.8434 375.195 39.4378 375.754 39.869C374.787 40.7547 373.971 41.7919 373.307 42.9224C373.097 42.2581 372.689 41.687 372.141 41.2675C372.503 40.6964 372.887 40.1487 373.307 39.6242C373.703 39.1114 374.134 38.6336 374.589 38.1675Z" fill="#E0E0E0"/>
<path d="M377.328 27.5505C378.994 26.5948 380.369 26.3851 380.637 29.3802C380.637 29.7065 380.637 30.0794 380.637 30.4873C380.637 32.0024 380.451 33.5174 380.078 34.9975C379.099 35.1723 378.155 35.522 377.304 36.0347C376.302 36.6291 375.37 37.3517 374.554 38.1908C374.134 36.9554 373.936 35.6501 373.959 34.3449C373.959 33.937 373.959 33.5407 373.959 33.1795C374.297 29.8813 375.673 28.4945 377.328 27.5505Z" fill="white"/>
<path d="M371.384 32.6783C372.258 32.1189 373.412 32.3287 374.029 33.1678C374.029 33.5291 374.029 33.9253 374.029 34.3332C374.006 35.6385 374.204 36.9321 374.612 38.1675C374.146 38.6336 373.715 39.1115 373.307 39.6242C372.887 40.1487 372.503 40.6964 372.141 41.2675C371.302 40.6731 370.312 40.3118 369.274 40.2536C368.983 40.2303 368.68 40.2303 368.389 40.2536C367.223 38.0509 368.179 36.2096 369.612 34.4265C370.102 33.7505 370.696 33.1562 371.384 32.6783Z" fill="#F0F0F0"/>
</g>
<defs>
<clipPath id="clip0_23_10">
<rect width="526" height="505.291" fill="white"/>
</clipPath>
</defs>
</svg>
