<svg width="27" height="17" viewBox="0 0 27 17" fill="none" xmlns="http://www.w3.org/2000/svg">
<path d="M24.049 0.98351H17.476V2.77437H24.0749L24.049 0.98351ZM22.6618 13.3036C22.1631 13.6273 21.5743 13.7915 20.9764 13.7735C20.5806 13.814 20.1806 13.7739 19.8014 13.6559C19.4221 13.5379 19.0719 13.3444 18.7724 13.0877C18.2189 12.4728 17.9307 11.6713 17.9687 10.8523H26.5511C26.613 9.99946 26.5386 9.14241 26.3307 8.31205C26.1296 7.52207 25.7777 6.77652 25.2935 6.11476C24.8062 5.47285 24.1768 4.94742 23.4526 4.57793C22.6468 4.18869 21.758 3.99278 20.8597 4.00637C20.0148 4.00031 19.1773 4.1601 18.3965 4.47632C17.6815 4.77161 17.0337 5.20337 16.4907 5.74643C15.9493 6.30034 15.5301 6.9575 15.2591 7.677C14.9683 8.45374 14.8234 9.27561 14.8313 10.1029C14.8179 10.942 14.9584 11.7765 15.2461 12.5669C15.4905 13.2827 15.8784 13.9434 16.387 14.5102C16.9132 15.0667 17.56 15.5007 18.2798 15.7803C19.0824 16.0799 19.9361 16.2265 20.7949 16.2121C21.9998 16.2489 23.1895 15.9399 24.2175 15.3231C25.2558 14.6002 26.0034 13.5443 26.3307 12.3383H23.4656C23.3122 12.7373 23.0299 13.0762 22.6618 13.3036ZM18.215 8.07073C18.3159 7.75407 18.4834 7.46163 18.7067 7.21224C18.93 6.96286 19.2041 6.76207 19.5114 6.6228C19.9184 6.44332 20.3617 6.35647 20.8079 6.36878C21.1302 6.34181 21.4546 6.38347 21.759 6.49089C22.0633 6.59832 22.3403 6.76897 22.571 6.99114C23.0115 7.51942 23.2942 8.15683 23.3878 8.8328H18.0075C18.0285 8.57469 18.0763 8.31935 18.1502 8.07073H18.215ZM11.3568 7.46108C12.0166 7.19189 12.59 6.75306 13.0163 6.19097C13.4081 5.59402 13.6027 4.89333 13.5737 4.18419C13.5991 3.5375 13.4704 2.8939 13.1978 2.30443C12.9687 1.79374 12.601 1.35442 12.1347 1.03431C11.6403 0.701511 11.0789 0.476307 10.4882 0.373856C9.78918 0.230224 9.0762 0.162078 8.36203 0.170639H0.622284V16.1486H8.53057C9.25228 16.1492 9.97112 16.0595 10.6697 15.8819C11.3318 15.7141 11.9592 15.4347 12.5236 15.0563C13.0704 14.6851 13.5156 14.1879 13.82 13.6084C14.157 12.9604 14.322 12.2397 14.2997 11.5127C14.3243 10.6119 14.0664 9.72532 13.5608 8.97251C13.017 8.21543 12.2105 7.67816 11.292 7.46108H11.3568ZM4.21342 2.90138H7.5712C7.87969 2.90101 8.18763 2.9265 8.49168 2.97758C8.77164 3.01823 9.04051 3.11323 9.28251 3.25701C9.51631 3.38658 9.70577 3.58102 9.82701 3.81586C9.97716 4.09746 10.0487 4.41293 10.0344 4.73034C10.0586 5.00371 10.0159 5.27879 9.90996 5.5328C9.804 5.7868 9.6378 6.01242 9.42511 6.19097C8.96114 6.50345 8.40596 6.65949 7.84346 6.63551H4.21342V2.90138ZM10.4882 12.351C10.355 12.6099 10.1536 12.8291 9.9048 12.9861C9.6459 13.1438 9.36064 13.2556 9.06211 13.3163C8.7303 13.3891 8.39087 13.4232 8.05089 13.4179H4.16157V9.03602H8.05089C8.71831 9.00738 9.37743 9.18997 9.93073 9.55676C10.1807 9.77653 10.3743 10.0509 10.496 10.3576C10.6176 10.6643 10.6638 10.9948 10.6308 11.3222C10.6659 11.6713 10.617 12.0237 10.4882 12.351Z" fill="#D9D9D9"/>
</svg>
