<svg width="43" height="42" viewBox="0 0 43 42" fill="none" xmlns="http://www.w3.org/2000/svg">
<circle cx="21.5334" cy="20.8444" r="20.8444" fill="#0066C5"/>
<path d="M33.049 13.9835H26.476V15.7744H33.0749L33.049 13.9835ZM31.6618 26.3036C31.1631 26.6273 30.5743 26.7915 29.9764 26.7735C29.5806 26.814 29.1806 26.7739 28.8014 26.6559C28.4221 26.5379 28.0719 26.3444 27.7724 26.0877C27.2189 25.4728 26.9307 24.6713 26.9687 23.8523H35.5511C35.613 22.9995 35.5386 22.1424 35.3307 21.3121C35.1296 20.5221 34.7777 19.7765 34.2935 19.1148C33.8062 18.4728 33.1768 17.9474 32.4526 17.5779C31.6468 17.1887 30.758 16.9928 29.8597 17.0064C29.0148 17.0003 28.1773 17.1601 27.3965 17.4763C26.6815 17.7716 26.0337 18.2034 25.4907 18.7464C24.9493 19.3003 24.5301 19.9575 24.2591 20.677C23.9683 21.4537 23.8234 22.2756 23.8313 23.1029C23.8179 23.942 23.9584 24.7765 24.2461 25.5669C24.4905 26.2827 24.8784 26.9434 25.387 27.5102C25.9132 28.0667 26.56 28.5007 27.2798 28.7803C28.0824 29.0799 28.9361 29.2265 29.7949 29.2121C30.9998 29.2489 32.1895 28.9399 33.2175 28.3231C34.2558 27.6002 35.0034 26.5443 35.3307 25.3383H32.4656C32.3122 25.7373 32.0299 26.0762 31.6618 26.3036ZM27.215 21.0707C27.3159 20.7541 27.4834 20.4616 27.7067 20.2122C27.93 19.9629 28.2041 19.7621 28.5114 19.6228C28.9184 19.4433 29.3617 19.3565 29.8079 19.3688C30.1302 19.3418 30.4546 19.3835 30.759 19.4909C31.0633 19.5983 31.3403 19.769 31.571 19.9911C32.0115 20.5194 32.2942 21.1568 32.3878 21.8328H27.0075C27.0285 21.5747 27.0763 21.3193 27.1502 21.0707H27.215ZM20.3568 20.4611C21.0166 20.1919 21.59 19.7531 22.0163 19.191C22.4081 18.594 22.6027 17.8933 22.5737 17.1842C22.5991 16.5375 22.4704 15.8939 22.1978 15.3044C21.9687 14.7937 21.601 14.3544 21.1347 14.0343C20.6403 13.7015 20.0789 13.4763 19.4882 13.3739C18.7892 13.2302 18.0762 13.1621 17.362 13.1706H9.62228V29.1486H17.5306C18.2523 29.1492 18.9711 29.0595 19.6697 28.8819C20.3318 28.7141 20.9592 28.4347 21.5236 28.0563C22.0704 27.6851 22.5156 27.1879 22.82 26.6084C23.157 25.9604 23.322 25.2397 23.2997 24.5127C23.3243 23.6119 23.0664 22.7253 22.5608 21.9725C22.017 21.2154 21.2105 20.6782 20.292 20.4611H20.3568ZM13.2134 15.9014H16.5712C16.8797 15.901 17.1876 15.9265 17.4917 15.9776C17.7716 16.0182 18.0405 16.1132 18.2825 16.257C18.5163 16.3866 18.7058 16.581 18.827 16.8159C18.9772 17.0975 19.0487 17.4129 19.0344 17.7303C19.0586 18.0037 19.0159 18.2788 18.91 18.5328C18.804 18.7868 18.6378 19.0124 18.4251 19.191C17.9611 19.5035 17.406 19.6595 16.8435 19.6355H13.2134V15.9014ZM19.4882 25.351C19.355 25.6099 19.1536 25.8291 18.9048 25.9861C18.6459 26.1438 18.3606 26.2556 18.0621 26.3163C17.7303 26.3891 17.3909 26.4232 17.0509 26.4179H13.1616V22.036H17.0509C17.7183 22.0074 18.3774 22.19 18.9307 22.5568C19.1807 22.7765 19.3743 23.0509 19.496 23.3576C19.6176 23.6643 19.6638 23.9948 19.6308 24.3222C19.6659 24.6713 19.617 25.0237 19.4882 25.351Z" fill="#D9D9D9"/>
</svg>
