<svg width="36" height="36" viewBox="0 0 36 36" fill="none" xmlns="http://www.w3.org/2000/svg">
<path d="M27.0133 0.494629H8.26939C3.70233 0.494629 0 4.19696 0 8.76402V27.508C0 32.075 3.70233 35.7774 8.26939 35.7774H27.0133C31.5804 35.7774 35.2827 32.075 35.2827 27.508V8.76402C35.2827 4.19696 31.5804 0.494629 27.0133 0.494629Z" fill="#242938"/>
<path d="M14.5475 19.4153C14.6543 17.5023 15.5866 15.8169 16.9931 14.6221C18.3724 13.4487 20.229 12.7314 22.2547 12.7314C24.2784 12.7314 26.135 13.4487 27.5153 14.6221C28.9208 15.8169 29.8531 17.5023 29.9608 19.4133C30.0675 21.3789 29.2812 23.2049 27.9019 24.5585C26.4954 25.9353 24.4949 26.7993 22.2547 26.7993C20.0146 26.7993 18.0101 25.9353 16.6045 24.5585C15.2241 23.2049 14.4399 21.3789 14.5475 19.4153Z" fill="white"/>
<path d="M18.3004 19.5873C18.3552 18.6057 18.8335 17.7409 19.5552 17.1279C20.2629 16.5257 21.2155 16.1577 22.255 16.1577C23.2934 16.1577 24.246 16.5257 24.9541 17.1279C25.6754 17.7409 26.1538 18.6057 26.209 19.5862C26.2637 20.5948 25.8603 21.5317 25.1526 22.2263C24.4308 22.9328 23.4045 23.3761 22.255 23.3761C21.1056 23.3761 20.077 22.9328 19.3558 22.2263C18.6476 21.5317 18.2452 20.5948 18.3004 19.5873Z" fill="#265787"/>
<path d="M12.003 21.5702C12.0097 21.9543 12.1316 22.7008 12.3145 23.2838C12.699 24.5176 13.3509 25.659 14.2579 26.665C15.1889 27.6991 16.3352 28.5296 17.6593 29.1192C19.051 29.7384 20.5589 30.0541 22.1253 30.0514C23.689 30.0494 25.1969 29.7276 26.5887 29.1036C27.9128 28.5082 29.0581 27.6741 29.9874 26.6396C30.894 25.6294 31.5449 24.4859 31.9303 23.2521C32.1225 22.6374 32.245 22.003 32.2955 21.361C32.3436 20.7347 32.3234 20.105 32.2352 19.483C32.0626 18.2631 31.6425 17.1185 30.9957 16.0752C30.4043 15.1165 29.6417 14.2772 28.7351 13.5707L28.7372 13.569L19.5877 6.51013C19.5794 6.50379 19.5728 6.49704 19.564 6.49139C18.9636 6.0283 17.9542 6.02996 17.294 6.49401C16.6265 6.96329 16.5502 7.73924 17.1442 8.22879L17.1416 8.23141L20.9578 11.3495L9.32646 11.3619H9.31103C8.34957 11.363 7.42547 11.9967 7.24258 12.7978C7.05459 13.6137 7.70746 14.2905 8.70709 14.2942L8.70557 14.2978L14.601 14.2864L4.08091 22.4002C4.06755 22.4101 4.05307 22.4204 4.04067 22.4304C3.04834 23.1939 2.72749 24.4635 3.35252 25.267C3.98692 26.0842 5.33579 26.0857 6.33846 25.2717L12.08 20.5502C12.08 20.5502 11.9962 21.1876 12.003 21.5702ZM26.7566 23.7047C25.5736 24.9157 23.9174 25.6025 22.1253 25.6061C20.3305 25.6093 18.6743 24.9287 17.4914 23.7197C16.9134 23.1305 16.4886 22.4527 16.2267 21.7306C15.9691 21.0197 15.8701 20.2611 15.9365 19.5078C15.9989 18.7651 16.219 18.0565 16.5703 17.4155C16.9154 16.7853 17.3906 16.2159 17.9775 15.7342C19.1275 14.7926 20.5914 14.2828 22.1227 14.2807C23.6554 14.2787 25.1184 14.7837 26.2695 15.7222C26.8552 16.2019 27.33 16.7693 27.6751 17.3983C28.0311 18.0433 28.2479 18.7558 28.3115 19.4898C28.3769 20.2425 28.2775 21.0005 28.0201 21.7109C27.7577 22.4351 27.3346 23.1129 26.7566 23.7047Z" fill="#EA7600"/>
</svg>
