<svg width="28" height="31" viewBox="0 0 28 31" fill="none" xmlns="http://www.w3.org/2000/svg">
<path d="M2.82884 27.5814L0.386841 0.181152H27.2293L24.784 27.577L13.7918 30.6246L2.82884 27.5814Z" fill="#1572B6"/>
<path d="M13.808 28.2956L22.691 25.8329L24.7807 2.42188H13.808V28.2956Z" fill="#33A9DC"/>
<path d="M13.808 12.3488H18.255L18.5616 8.90762H13.808V5.54688H22.2344L22.1539 6.44822L21.3287 15.7096H13.808V12.3488Z" fill="white"/>
<path d="M13.8287 21.0761L13.8135 21.0804L10.0711 20.0693L9.83189 17.3892H6.4581L6.92889 22.6657L13.8124 24.5771L13.8287 24.5727V21.0761Z" fill="#EBEBEB"/>
<path d="M17.969 15.5669L17.5646 20.0671L13.8168 21.0782V24.5749L20.7057 22.6657L20.7568 22.0981L21.3407 15.5669H17.969Z" fill="white"/>
<path d="M13.82 5.54688V8.90762H5.70242L5.63501 8.15197L5.4817 6.44822L5.40125 5.54688H13.82ZM13.808 12.3488V15.7096H10.1124L10.045 14.9539L9.89274 13.2502L9.81229 12.3488H13.808Z" fill="#EBEBEB"/>
</svg>
