<svg width="557" height="225" viewBox="0 0 557 225" fill="none" xmlns="http://www.w3.org/2000/svg">
<circle cx="31.7752" cy="31.7752" r="31.7752" transform="matrix(1 0 0 -1 0 224.295)" fill="#0066C5" fill-opacity="0.25"/>
<circle cx="31.7752" cy="31.7752" r="31.7752" transform="matrix(1 0 0 -1 82.2416 224.295)" fill="#0066C5" fill-opacity="0.4"/>
<circle cx="31.7752" cy="31.7752" r="31.7752" transform="matrix(1 0 0 -1 82.2416 143.923)" fill="#0066C5" fill-opacity="0.35"/>
<circle cx="31.7752" cy="31.7752" r="31.7752" transform="matrix(1 0 0 -1 164.483 224.295)" fill="#0066C5" fill-opacity="0.8"/>
<circle cx="31.7752" cy="31.7752" r="31.7752" transform="matrix(1 0 0 -1 164.483 143.923)" fill="#0066C5" fill-opacity="0.4"/>
<circle cx="31.7752" cy="31.7752" r="31.7752" transform="matrix(1 0 0 -1 164.483 63.5503)" fill="#0066C5" fill-opacity="0.25"/>
<circle cx="31.7752" cy="31.7752" r="31.7752" transform="matrix(1 0 0 -1 246.725 224.295)" fill="#0066C5"/>
<circle cx="31.7752" cy="31.7752" r="31.7752" transform="matrix(1 0 0 -1 246.725 143.923)" fill="#0066C5" fill-opacity="0.7"/>
<circle cx="31.7752" cy="31.7752" r="31.7752" transform="matrix(1 0 0 -1 246.725 63.5503)" fill="#0066C5" fill-opacity="0.35"/>
<circle cx="31.7752" cy="31.7752" r="31.7752" transform="matrix(1 0 0 -1 328.966 224.295)" fill="#0066C5" fill-opacity="0.8"/>
<circle cx="31.7752" cy="31.7752" r="31.7752" transform="matrix(1 0 0 -1 328.966 143.923)" fill="#0066C5" fill-opacity="0.4"/>
<circle cx="31.7752" cy="31.7752" r="31.7752" transform="matrix(1 0 0 -1 328.966 63.5503)" fill="#0066C5" fill-opacity="0.25"/>
<circle cx="31.7752" cy="31.7752" r="31.7752" transform="matrix(1 0 0 -1 411.208 224.295)" fill="#0066C5" fill-opacity="0.4"/>
<circle cx="31.7752" cy="31.7752" r="31.7752" transform="matrix(1 0 0 -1 411.208 143.923)" fill="#0066C5" fill-opacity="0.35"/>
<circle cx="31.7752" cy="31.7752" r="31.7752" transform="matrix(1 0 0 -1 493.45 224.295)" fill="#0066C5" fill-opacity="0.25"/>
</svg>
