<svg width="36" height="36" viewBox="0 0 36 36" fill="none" xmlns="http://www.w3.org/2000/svg">
<path d="M27.0133 0H8.26939C3.70233 0 0 3.70233 0 8.26939V27.0133C0 31.5804 3.70233 35.2827 8.26939 35.2827H27.0133C31.5804 35.2827 35.2827 31.5804 35.2827 27.0133V8.26939C35.2827 3.70233 31.5804 0 27.0133 0Z" fill="#242938"/>
<mask id="mask0_62_64" style="mask-type:luminance" maskUnits="userSpaceOnUse" x="8" y="3" width="19" height="29">
<path d="M8.40723 3.85889H26.7873V31.4235H8.40723V3.85889Z" fill="white"/>
</mask>
<g mask="url(#mask0_62_64)">
<path d="M13.0032 31.4236C15.5392 31.4236 17.5973 29.3655 17.5973 26.8296V22.2354H13.0032C10.4673 22.2354 8.40903 24.2936 8.40903 26.8296C8.40903 29.3655 10.4673 31.4236 13.0032 31.4236Z" fill="#0ACF83"/>
<path d="M8.40903 17.6409C8.40903 15.105 10.4673 13.0469 13.0032 13.0469H17.5973V22.235H13.0032C10.4673 22.235 8.40903 20.1769 8.40903 17.6409Z" fill="#A259FF"/>
<path d="M8.4093 8.45295C8.4093 5.917 10.4676 3.85889 13.0035 3.85889H17.5976V13.0471H13.0035C10.4676 13.0471 8.4093 10.9889 8.4093 8.45295Z" fill="#F24E1E"/>
<path d="M17.5973 3.85889H22.1914C24.7273 3.85889 26.7856 5.917 26.7856 8.45295C26.7856 10.9889 24.7273 13.0471 22.1914 13.0471H17.5973V3.85889Z" fill="#FF7262"/>
<path d="M26.7856 17.6409C26.7856 20.1769 24.7273 22.235 22.1914 22.235C19.6554 22.235 17.5973 20.1769 17.5973 17.6409C17.5973 15.105 19.6554 13.0469 22.1914 13.0469C24.7273 13.0469 26.7856 15.105 26.7856 17.6409Z" fill="#1ABCFE"/>
</g>
</svg>
