<svg width="28" height="32" viewBox="0 0 28 32" fill="none" xmlns="http://www.w3.org/2000/svg">
<path d="M2.82993 28.3069L0.386841 0.906738H27.2315L24.7851 28.3026L13.7928 31.3502L2.82993 28.3069Z" fill="#E44F26"/>
<path d="M13.8091 29.0212L22.6921 26.5585L24.7818 3.14746H13.8091V29.0212Z" fill="#F1662A"/>
<path d="M13.8091 13.3088H9.36221L9.0556 9.86758H13.8091V6.50684H5.38281L5.46327 7.40927L6.28851 16.6695H13.8091V13.3088ZM13.8091 22.0363L13.7939 22.0406L10.0515 21.0305L9.81234 18.3504H6.43855L6.90934 23.6259L13.7939 25.5373L13.8091 25.5329V22.0363Z" fill="#EBEBEB"/>
<path d="M13.7972 13.3088V16.6695H17.9353L17.5461 21.0284L13.7972 22.0395V25.5362L20.6872 23.6259L20.7372 23.0583L21.5266 14.2112L21.6092 13.3088H13.7972ZM13.7972 6.50684V9.86758H21.9147L21.9821 9.11302L22.1354 7.40927L22.2159 6.50684H13.7972Z" fill="white"/>
</svg>
