<svg width="36" height="36" viewBox="0 0 36 36" fill="none" xmlns="http://www.w3.org/2000/svg">
<path d="M29.4253 0.769043H5.85749C2.62249 0.769043 0 3.39153 0 6.62653V29.3122C0 32.5472 2.62249 35.1697 5.85749 35.1697H29.4253C32.6603 35.1697 35.2827 32.5472 35.2827 29.3122V6.62653C35.2827 3.39153 32.6603 0.769043 29.4253 0.769043Z" fill="#330000"/>
<path d="M17.0975 21.4134H11.6301L10.5176 24.869C10.5024 24.9321 10.4658 24.9878 10.4139 25.0267C10.3621 25.0656 10.2983 25.0852 10.2335 25.0821H7.46425C7.30644 25.0821 7.25117 24.9953 7.29859 24.8216L12.0324 11.1884C12.0797 11.0465 12.1271 10.8848 12.1744 10.7033C12.2364 10.3874 12.2681 10.0665 12.269 9.74472C12.2658 9.72221 12.2679 9.69926 12.2751 9.67768C12.2823 9.65611 12.2944 9.6365 12.3104 9.62041C12.3265 9.60433 12.3461 9.5922 12.3677 9.585C12.3892 9.5778 12.4122 9.57572 12.4347 9.57892H16.1981C16.3084 9.57892 16.3715 9.61848 16.3875 9.69745L21.7602 24.8453C21.8076 25.0033 21.7602 25.0822 21.6183 25.0821H18.5412C18.4884 25.088 18.4352 25.0744 18.3917 25.0439C18.3481 25.0134 18.3172 24.9681 18.3046 24.9164L17.0975 21.4134ZM12.4821 18.4312H16.2218L16.1685 18.2552L16.0829 17.9765L16.0218 17.7808L15.9244 17.4726L15.7172 16.8239L15.535 16.2487L15.0619 14.7506C14.9441 14.3782 14.8311 14.0043 14.7228 13.629L14.6363 13.3244L14.5351 12.9643L14.3808 12.4061L14.3518 12.3009H14.3283C14.2098 12.8691 14.0656 13.4315 13.896 13.9865L13.5449 15.1161L13.3516 15.7402L13.1566 16.3719C13.1213 16.4861 13.0863 16.5989 13.0512 16.7104L12.9464 17.0409L12.8422 17.3637L12.7386 17.6785L12.6355 17.9854C12.6013 18.0865 12.5672 18.1861 12.5331 18.2845L12.4821 18.4312ZM24.9553 12.0879C24.7139 12.0975 24.4731 12.0562 24.2488 11.9664C24.0245 11.8767 23.8216 11.7407 23.6535 11.5672C23.4858 11.3861 23.3556 11.1737 23.2703 10.9422C23.185 10.7107 23.1463 10.4646 23.1564 10.218C23.1478 9.97394 23.1908 9.7308 23.2826 9.50448C23.3743 9.27815 23.5128 9.07373 23.6889 8.90455C24.0287 8.57841 24.4811 8.3959 24.9521 8.39502L25.0025 8.39557C25.5706 8.39557 26.0165 8.56509 26.34 8.90441C26.5032 9.08072 26.6301 9.28749 26.7134 9.51289C26.7966 9.7383 26.8346 9.97791 26.8251 10.218C26.835 10.4655 26.7951 10.7125 26.7077 10.9443C26.6203 11.1761 26.4872 11.388 26.3163 11.5673C26.1437 11.7374 25.9389 11.8712 25.7138 11.9609C25.4888 12.0506 25.2481 12.0944 25.0058 12.0896L24.9553 12.0879ZM23.322 24.8453V13.5317C23.322 13.3897 23.3849 13.3186 23.5114 13.3186H26.4228C26.5489 13.3186 26.612 13.3896 26.6122 13.5317V24.8453C26.6122 25.0033 26.549 25.0822 26.4228 25.0821H23.5351C23.4006 25.0821 23.3298 25.0113 23.3227 24.8696L23.322 24.8453Z" fill="#FF9A00"/>
</svg>
