<svg width="42" height="42" viewBox="0 0 42 42" fill="none" xmlns="http://www.w3.org/2000/svg">
<circle cx="20.8444" cy="20.8444" r="20.8444" fill="#0066C5"/>
<path d="M16.4671 11.2529H25.2218C28.5569 11.2529 31.2667 13.9077 31.2667 17.1751V25.7519C31.2667 27.3226 30.6298 28.8289 29.4961 29.9395C28.3625 31.0501 26.825 31.674 25.2218 31.674H16.4671C13.132 31.674 10.4222 29.0193 10.4222 25.7519V17.1751C10.4222 15.6044 11.0591 14.0981 12.1927 12.9875C13.3264 11.8769 14.8639 11.2529 16.4671 11.2529ZM16.2587 13.295C15.2636 13.295 14.3092 13.6823 13.6056 14.3717C12.902 15.061 12.5067 15.996 12.5067 16.9708V25.9561C12.5067 27.988 14.1846 29.6319 16.2587 29.6319H25.4302C26.4253 29.6319 27.3796 29.2447 28.0833 28.5553C28.7869 27.866 29.1822 26.931 29.1822 25.9561V16.9708C29.1822 14.9389 27.5042 13.295 25.4302 13.295H16.2587ZM26.3161 14.8266C26.6616 14.8266 26.993 14.9611 27.2373 15.2005C27.4816 15.4398 27.6189 15.7644 27.6189 16.1029C27.6189 16.4414 27.4816 16.7661 27.2373 17.0054C26.993 17.2448 26.6616 17.3793 26.3161 17.3793C25.9706 17.3793 25.6392 17.2448 25.3949 17.0054C25.1506 16.7661 25.0133 16.4414 25.0133 16.1029C25.0133 15.7644 25.1506 15.4398 25.3949 15.2005C25.6392 14.9611 25.9706 14.8266 26.3161 14.8266ZM20.8444 16.3582C22.2265 16.3582 23.552 16.8961 24.5292 17.8535C25.5065 18.8109 26.0555 20.1095 26.0555 21.4635C26.0555 22.8175 25.5065 24.116 24.5292 25.0735C23.552 26.0309 22.2265 26.5688 20.8444 26.5688C19.4624 26.5688 18.1369 26.0309 17.1596 25.0735C16.1823 24.116 15.6333 22.8175 15.6333 21.4635C15.6333 20.1095 16.1823 18.8109 17.1596 17.8535C18.1369 16.8961 19.4624 16.3582 20.8444 16.3582ZM20.8444 18.4003C20.0152 18.4003 19.2199 18.723 18.6335 19.2975C18.0472 19.872 17.7178 20.6511 17.7178 21.4635C17.7178 22.2759 18.0472 23.055 18.6335 23.6295C19.2199 24.2039 20.0152 24.5267 20.8444 24.5267C21.6737 24.5267 22.469 24.2039 23.0553 23.6295C23.6417 23.055 23.9711 22.2759 23.9711 21.4635C23.9711 20.6511 23.6417 19.872 23.0553 19.2975C22.469 18.723 21.6737 18.4003 20.8444 18.4003Z" fill="#D9D9D9"/>
</svg>
