<svg width="22" height="21" viewBox="0 0 22 21" fill="none" xmlns="http://www.w3.org/2000/svg">
<path d="M6.4671 0.25293H15.2218C18.5569 0.25293 21.2667 2.90768 21.2667 6.17505V14.7519C21.2667 16.3226 20.6298 17.8289 19.4961 18.9395C18.3625 20.0501 16.825 20.674 15.2218 20.674H6.4671C3.13199 20.674 0.422211 18.0193 0.422211 14.7519V6.17505C0.422211 4.60441 1.05908 3.09809 2.19272 1.98748C3.32635 0.876866 4.8639 0.25293 6.4671 0.25293ZM6.25866 2.29504C5.26356 2.29504 4.30923 2.68231 3.60559 3.37166C2.90195 4.06101 2.50666 4.99596 2.50666 5.97084V14.9561C2.50666 16.988 4.18463 18.6319 6.25866 18.6319H15.4302C16.4253 18.6319 17.3796 18.2447 18.0833 17.5553C18.7869 16.866 19.1822 15.931 19.1822 14.9561V5.97084C19.1822 3.93894 17.5042 2.29504 15.4302 2.29504H6.25866ZM16.3161 3.82663C16.6616 3.82663 16.993 3.96109 17.2373 4.20045C17.4816 4.43981 17.6189 4.76444 17.6189 5.10295C17.6189 5.44145 17.4816 5.76608 17.2373 6.00544C16.993 6.2448 16.6616 6.37927 16.3161 6.37927C15.9706 6.37927 15.6392 6.2448 15.3949 6.00544C15.1506 5.76608 15.0133 5.44145 15.0133 5.10295C15.0133 4.76444 15.1506 4.43981 15.3949 4.20045C15.6392 3.96109 15.9706 3.82663 16.3161 3.82663ZM10.8444 5.35821C12.2265 5.35821 13.552 5.89609 14.5292 6.85351C15.5065 7.81094 16.0555 9.10948 16.0555 10.4635C16.0555 11.8175 15.5065 13.116 14.5292 14.0735C13.552 15.0309 12.2265 15.5688 10.8444 15.5688C9.46236 15.5688 8.13689 15.0309 7.15962 14.0735C6.18235 13.116 5.63332 11.8175 5.63332 10.4635C5.63332 9.10948 6.18235 7.81094 7.15962 6.85351C8.13689 5.89609 9.46236 5.35821 10.8444 5.35821ZM10.8444 7.40032C10.0152 7.40032 9.21991 7.72305 8.63355 8.2975C8.04718 8.87196 7.71777 9.65109 7.71777 10.4635C7.71777 11.2759 8.04718 12.055 8.63355 12.6295C9.21991 13.2039 10.0152 13.5267 10.8444 13.5267C11.6737 13.5267 12.469 13.2039 13.0553 12.6295C13.6417 12.055 13.9711 11.2759 13.9711 10.4635C13.9711 9.65109 13.6417 8.87196 13.0553 8.2975C12.469 7.72305 11.6737 7.40032 10.8444 7.40032Z" fill="#D9D9D9"/>
</svg>
