<svg width="22" height="21" viewBox="0 0 22 21" fill="none" xmlns="http://www.w3.org/2000/svg">
<path d="M5.17466 2.93833C5.17437 3.50664 4.94365 4.05157 4.53326 4.45322C4.12287 4.85488 3.56642 5.08037 2.98632 5.08008C2.40623 5.0798 1.85001 4.85377 1.44003 4.45171C1.03004 4.04965 0.799881 3.5045 0.800171 2.93619C0.800461 2.36787 1.03118 1.82295 1.44157 1.42129C1.85197 1.01964 2.40842 0.79415 2.98851 0.794434C3.5686 0.794718 4.12482 1.02075 4.53481 1.42281C4.94479 1.82487 5.17495 2.37002 5.17466 2.93833ZM5.24028 6.66685H0.865788V20.0809H5.24028V6.66685ZM12.152 6.66685H7.79936V20.0809H12.1082V13.0418C12.1082 9.12038 17.3248 8.7561 17.3248 13.0418V20.0809H21.6446V11.5846C21.6446 4.97401 13.9236 5.22044 12.1082 8.46682L12.152 6.66685Z" fill="#D9D9D9"/>
</svg>
