<svg width="43" height="42" viewBox="0 0 43 42" fill="none" xmlns="http://www.w3.org/2000/svg">
<circle cx="21.2224" cy="20.8449" r="20.8444" fill="#0066C5"/>
<path d="M15.1747 11.9383C15.1744 12.5066 14.9437 13.0516 14.5333 13.4532C14.1229 13.8549 13.5664 14.0804 12.9863 14.0801C12.4062 14.0798 11.85 13.8538 11.44 13.4517C11.03 13.0496 10.7999 12.5045 10.8002 11.9362C10.8005 11.3679 11.0312 10.823 11.4416 10.4213C11.852 10.0196 12.4084 9.79415 12.9885 9.79443C13.5686 9.79472 14.1248 10.0208 14.5348 10.4228C14.9448 10.8249 15.175 11.37 15.1747 11.9383ZM15.2403 15.6668H10.8658V29.0809H15.2403V15.6668ZM22.152 15.6668H17.7994V29.0809H22.1082V22.0418C22.1082 18.1204 27.3248 17.7561 27.3248 22.0418V29.0809H31.6446V20.5846C31.6446 13.974 23.9236 14.2204 22.1082 17.4668L22.152 15.6668Z" fill="#D9D9D9"/>
</svg>
