<svg width="36" height="35" viewBox="0 0 36 35" fill="none" xmlns="http://www.w3.org/2000/svg">
<path d="M29.4253 0.166016H5.85749C2.62249 0.166016 0 2.7885 0 6.0235V28.7092C0 31.9442 2.62249 34.5667 5.85749 34.5667H29.4253C32.6603 34.5667 35.2827 31.9442 35.2827 28.7092V6.0235C35.2827 2.7885 32.6603 0.166016 29.4253 0.166016Z" fill="#001E36"/>
<path d="M7.9447 24.2903V9.16584C7.9447 9.05558 7.99211 9.00018 8.0868 9.00018L8.23661 8.99976L8.49269 8.99701L8.84855 8.98998L10.0407 8.96476L11.319 8.94105C11.7686 8.93333 12.2143 8.9292 12.6562 8.9292C13.8552 8.9292 14.8651 9.07915 15.6858 9.37892C16.4262 9.62934 17.1013 10.0417 17.6622 10.586C18.1377 11.0578 18.5051 11.6271 18.7392 12.2547C18.9606 12.8655 19.0728 13.5104 19.0706 14.16C19.0706 15.4226 18.7786 16.464 18.1948 17.2843C17.6237 18.0846 16.8272 18.6967 15.9069 19.0424L15.8279 19.0713C14.8669 19.4298 13.8026 19.5594 12.6354 19.5675L12.454 19.568L12.1848 19.5667L12.0491 19.5647L11.8977 19.5612L11.8065 19.5576L11.7511 19.5547L11.6148 19.5497L11.4482 19.5463L11.1973 19.5445L11.1415 19.5443V24.2666C11.1457 24.2955 11.143 24.325 11.1338 24.3528C11.1245 24.3805 11.109 24.4057 11.0883 24.4264C11.0676 24.4471 11.0424 24.4627 11.0146 24.4719C10.9869 24.4811 10.9574 24.4838 10.9284 24.4796H8.1105C7.99983 24.4796 7.9447 24.4168 7.9447 24.2903ZM11.1416 11.8404V16.7734C11.3305 16.7886 11.52 16.7966 11.7095 16.7971H12.4907C13.0292 16.7953 13.5647 16.7151 14.0802 16.5591L14.183 16.527C14.652 16.3877 15.071 16.1165 15.3902 15.7458C15.6868 15.396 15.8405 14.914 15.8511 14.2998L15.8518 14.231C15.8642 13.7731 15.7451 13.3213 15.5084 12.9292C15.2597 12.55 14.9003 12.2566 14.4789 12.0889C13.9287 11.8751 13.341 11.7745 12.751 11.7932L12.4508 11.794L12.2615 11.7956L12.0808 11.798L11.8258 11.803L11.6397 11.8082L11.5431 11.8118L11.414 11.8178L11.304 11.8246L11.2413 11.8296L11.1871 11.8348L11.1633 11.8375L11.1416 11.8404ZM28.2221 15.8765C27.8092 15.6643 27.3712 15.5049 26.9185 15.4021L26.8138 15.3795C26.3158 15.2652 25.8074 15.2022 25.2965 15.1916L25.1689 15.1901C24.8694 15.182 24.5704 15.2179 24.2813 15.2966C24.0973 15.3375 23.9337 15.4423 23.8196 15.5924C23.7425 15.7125 23.7014 15.8521 23.7013 15.9948C23.7057 16.1332 23.7556 16.2663 23.8433 16.3734C23.9689 16.5204 24.1199 16.6435 24.2892 16.7369L24.3404 16.764C24.6779 16.9457 25.0256 17.1077 25.3818 17.2492C26.1762 17.5151 26.9352 17.8767 27.6421 18.3261C28.1238 18.6301 28.5224 19.049 28.802 19.5452C29.0372 20.0149 29.1549 20.5346 29.1452 21.0598C29.1594 21.7535 28.9612 22.4349 28.5771 23.0127C28.166 23.5991 27.595 24.055 26.9321 24.3261C26.2378 24.6313 25.3853 24.7888 24.3745 24.7991L24.2694 24.7997C23.6428 24.806 23.0171 24.7512 22.4011 24.6359L22.2694 24.6103C21.7507 24.5152 21.2459 24.3562 20.7664 24.1369C20.7182 24.112 20.6775 24.0748 20.6484 24.029C20.6193 23.9833 20.6028 23.9306 20.6007 23.8764V21.2966C20.5979 21.2716 20.6019 21.2462 20.6123 21.2233C20.6228 21.2004 20.6393 21.1807 20.66 21.1664C20.6803 21.1549 20.7037 21.1499 20.7269 21.152C20.7501 21.1541 20.7722 21.1633 20.7901 21.1782C21.3564 21.5121 21.9712 21.7557 22.6125 21.9002C23.1778 22.0419 23.7577 22.1174 24.3404 22.1251C24.8925 22.1251 25.2988 22.054 25.5593 21.912C25.677 21.8582 25.7765 21.7714 25.8458 21.6622C25.9151 21.5529 25.9513 21.426 25.9499 21.2966C25.9499 21.0918 25.8315 20.8945 25.5949 20.7049C25.4957 20.6256 25.3533 20.5391 25.1681 20.4458L25.0794 20.4023L24.9849 20.3578L24.9353 20.3352L24.8314 20.2891C24.8133 20.2813 24.7953 20.2735 24.7772 20.2657L24.6642 20.2183L24.6053 20.1942L24.4832 20.1453L24.4198 20.1204L24.2885 20.0699L24.1511 20.0185C23.4078 19.7598 22.7032 19.4015 22.0563 18.9534C21.5936 18.6316 21.2127 18.206 20.9439 17.7107C20.7111 17.2443 20.5935 16.729 20.6007 16.2078C20.5994 15.5815 20.7714 14.9671 21.0977 14.4326C21.4698 13.8441 22.004 13.3755 22.6362 13.0836C23.3305 12.7367 24.1982 12.563 25.2397 12.5628C25.8497 12.5579 26.4592 12.6014 27.0623 12.693C27.499 12.7484 27.926 12.8639 28.3311 13.0362C28.3963 13.0549 28.4488 13.103 28.4731 13.1664C28.4892 13.2242 28.497 13.2839 28.4968 13.344V15.7345C28.5002 15.791 28.4731 15.8452 28.4258 15.8765C28.3941 15.8922 28.3593 15.9004 28.3239 15.9004C28.2886 15.9004 28.2537 15.8922 28.2221 15.8765Z" fill="#31A8FF"/>
</svg>
