<svg width="36" height="35" viewBox="0 0 36 35" fill="none" xmlns="http://www.w3.org/2000/svg">
<path d="M6.24794 0.0976562H29.0348C32.4895 0.0976562 35.2827 2.89092 35.2827 6.34559V28.2504C35.2827 31.7051 32.4895 34.4983 29.0348 34.4983H6.24794C2.79326 34.4983 0 31.7051 0 28.2504V6.34559C0 2.89092 2.79326 0.0976562 6.24794 0.0976562Z" fill="#00005B"/>
<path d="M8.37964 24.2226V9.09509C8.37964 8.99213 8.42374 8.93342 8.5267 8.93342L8.74005 8.93301L8.90516 8.93163L9.02162 8.92943L9.14566 8.92626L9.27893 8.92157L9.34991 8.91867C9.48222 8.91316 9.6166 8.90972 9.75374 8.90682L10.1748 8.898C10.2226 8.8969 10.271 8.89566 10.3196 8.89414L10.4671 8.88932C10.5994 8.88436 10.735 8.88105 10.874 8.87829L11.3002 8.87071L11.5953 8.86423L11.7462 8.85982C12.05 8.85018 12.3473 8.84687 12.6424 8.84577L13.084 8.84521C14.2895 8.84521 15.2891 8.99213 16.1125 9.30086C16.8505 9.55149 17.5234 9.9633 18.0824 10.5064C18.5561 10.9817 18.9221 11.5532 19.1556 12.1823C19.3761 12.7998 19.4937 13.432 19.4937 14.0935C19.4937 15.3578 19.1997 16.4015 18.6116 17.2249C18.0235 18.0481 17.2003 18.6655 16.2448 19.0184C15.2784 19.3737 14.2159 19.509 13.0572 19.5177H12.637L12.4734 19.516L12.3685 19.5136L12.3068 19.5109L12.2514 19.5076L12.2019 19.5035C12.1702 19.5004 12.1384 19.498 12.1065 19.4963L12.0348 19.4932L11.9563 19.4911L11.8252 19.4893L11.5698 19.4887V24.2078C11.5844 24.3108 11.511 24.399 11.408 24.4137H8.55605C8.43849 24.4137 8.37964 24.3549 8.37964 24.2226ZM11.5844 11.7706V16.7102L11.7573 16.7226C11.8905 16.7328 12.0241 16.7385 12.1578 16.7397H12.937C13.5104 16.7397 14.0837 16.6515 14.6276 16.4751C15.0981 16.3428 15.5096 16.0634 15.8331 15.6959C16.1418 15.3284 16.2889 14.8285 16.2889 14.1817C16.3027 13.7223 16.1854 13.2684 15.9507 12.8732C15.7113 12.507 15.3772 12.2217 14.9746 12.0562L14.9217 12.0353C14.3777 11.8148 13.7896 11.7265 13.1869 11.7413L12.847 11.7417L12.6873 11.7427L12.5347 11.7447L12.3899 11.748C12.3193 11.75 12.2516 11.7526 12.1873 11.756C12.1557 11.7545 12.1241 11.7532 12.0925 11.7522L12.0044 11.7503C11.9906 11.7501 11.9768 11.75 11.963 11.75L11.885 11.7504L11.8142 11.7523L11.7814 11.7537L11.7212 11.7571L11.6682 11.7613L11.6444 11.7635L11.6026 11.7683L11.5844 11.7706ZM21.5518 12.6234H24.1246C24.2633 12.6234 24.3761 12.7152 24.4253 12.8369L24.4333 12.8586C24.4774 12.9762 24.5067 13.0938 24.5215 13.2261C24.5508 13.3731 24.5803 13.5348 24.595 13.6818L24.6074 13.8241C24.617 13.9455 24.6244 14.0746 24.6244 14.2111C25.0454 13.7195 25.5504 13.3066 26.1157 12.9915L26.1974 12.9468C26.8737 12.5645 27.6528 12.3735 28.4319 12.3735C28.5349 12.3587 28.6231 12.4322 28.6379 12.5352V15.4607C28.6379 15.5783 28.5643 15.6224 28.4026 15.6224C27.9086 15.6086 27.402 15.6462 26.9182 15.7468L26.8149 15.7695C26.3886 15.8577 25.9769 15.99 25.58 16.1664C25.3006 16.2987 25.036 16.4751 24.8302 16.7102V24.2078C24.8302 24.3549 24.7714 24.4137 24.6391 24.4137H21.743C21.6254 24.4283 21.5225 24.3549 21.5077 24.2373V16.0341C21.5077 15.6812 21.5077 15.3137 21.4931 14.9315L21.4843 14.6448L21.4724 14.0715C21.4701 13.9758 21.4673 13.8803 21.4636 13.7848C21.4636 13.4466 21.4343 13.1232 21.4049 12.785C21.3901 12.7116 21.4343 12.6381 21.5077 12.6234C21.5077 12.6108 21.5294 12.609 21.5448 12.6178L21.5518 12.6234Z" fill="#9999FF"/>
</svg>
