<svg width="439" height="350" viewBox="0 0 439 350" fill="none" xmlns="http://www.w3.org/2000/svg">
<path d="M309.423 325.344H299.889V325.563H309.423V325.344Z" fill="#EBEBEB"/>
<path d="M68.017 314.058H61.1134V314.277H68.017V314.058Z" fill="#EBEBEB"/>
<path d="M122.259 47.8865L122.588 48.3248C124.122 50.626 123.574 53.6943 121.273 55.2284L10.3776 131.496C8.07645 133.031 5.0082 132.483 3.47407 130.181L3.14533 129.743C1.6112 127.442 2.1591 124.374 4.46029 122.84L115.356 46.5716C117.657 45.0374 120.725 45.5853 122.259 47.8865Z" fill="#EBEBEB"/>
<path d="M27.1434 294.552H86.4265C91.5768 294.552 95.6313 298.716 95.6313 303.867V304.414H17.8291V303.867C17.8291 298.716 21.9932 294.552 27.1434 294.552Z" fill="#EBEBEB"/>
<path d="M56.4015 244.036H57.1685C60.7847 244.036 63.8529 246.995 63.8529 250.721V299.484H49.717V250.721C49.717 247.104 52.6757 244.036 56.4015 244.036Z" fill="#E0E0E0"/>
<path d="M3.03574 124.593L3.58364 124.374C6.10399 123.278 9.06267 124.484 10.1585 127.004L62.7571 250.94C63.8529 253.46 62.6475 256.419 60.1272 257.514L59.5793 257.734C57.0589 258.829 54.1003 257.624 53.0045 255.104L0.405808 131.168C-0.689997 128.648 0.515386 125.689 3.03574 124.593Z" fill="#EBEBEB"/>
<path d="M111.082 41.2025L112.068 40.2163C116.561 35.7235 124.013 35.7235 128.505 40.2163L136.724 48.4348L119.301 65.8581L111.082 57.6396C106.589 53.1468 106.589 45.8049 111.082 41.2025Z" fill="#EBEBEB"/>
<path d="M145.271 49.0918L136.176 39.9966L110.863 65.3097L119.958 74.4049L136.614 118.895L189.651 65.748L145.271 49.0918Z" fill="#EBEBEB"/>
<path d="M360.926 266.5C345.256 264.746 341.64 239.872 352.926 229.242C364.213 218.613 388.759 223.763 389.526 239.543C389.855 246.556 375.938 244.036 370.788 248.309C365.638 252.583 367.829 267.267 360.926 266.5Z" fill="#F0F0F0"/>
<path d="M382.403 233.845C374.185 234.831 369.802 241.954 368.596 244.145L367.281 242.721C366.733 240.639 365.857 234.721 369.692 231.105C369.911 230.886 369.911 230.557 369.802 230.229C369.583 230.009 369.254 229.9 368.925 230.119C365.418 233.406 365.419 238.118 365.747 241.077C363.008 238.338 360.049 235.708 356.981 233.406C356.652 233.187 356.104 233.297 355.885 233.626C355.666 233.954 355.775 234.502 356.104 234.721C359.282 237.132 362.241 239.762 364.98 242.611C360.816 242.173 356.652 242.94 353.036 245.022C352.707 245.241 352.707 245.57 352.817 245.899C353.036 246.118 353.365 246.227 353.584 246.118C358.734 243.049 364.761 243.817 366.295 244.145C366.843 244.693 367.501 245.351 368.048 246.008C363.008 247.871 358.844 251.816 356.652 256.747C356.542 257.076 356.762 257.405 357.09 257.514C357.31 257.624 357.638 257.514 357.748 257.295C359.939 252.473 363.994 248.857 368.925 247.104C376.377 255.542 383.061 264.856 388.65 274.718L389.965 273.951C384.157 263.651 377.253 254.117 369.363 245.241C370.021 243.817 374.185 236.146 382.403 235.16C382.732 235.16 382.951 234.831 382.951 234.502C383.061 234.064 382.732 233.735 382.403 233.845Z" fill="#E0E0E0"/>
<path d="M425.14 254.993C444.097 248.199 441.248 216.202 424.154 206.34C407.059 196.477 378.02 210.065 381.636 229.899C383.28 238.666 399.827 231.434 407.497 235.378C415.168 239.433 416.812 258.062 425.14 254.993Z" fill="#F0F0F0"/>
<path d="M388.759 220.696C399.279 219.49 406.84 227.051 408.922 229.462C409.36 228.695 409.799 228.038 410.127 227.271C410.127 224.531 409.579 216.86 403.772 213.573C403.333 213.354 403.224 212.915 403.333 212.587C403.553 212.148 403.991 212.039 404.32 212.148C404.32 212.148 404.429 212.148 404.429 212.258C409.799 215.326 411.223 221.134 411.552 224.969C414.072 220.696 416.921 216.751 420.209 212.915C420.647 212.477 421.305 212.587 421.633 212.915C421.962 213.244 421.962 213.792 421.743 214.23C418.456 218.175 415.606 222.23 412.976 226.613C416.264 225.517 422.291 224.093 428.537 226.065C428.975 226.175 429.194 226.613 428.975 227.051C428.756 227.49 428.427 227.709 427.989 227.49C420.757 225.188 413.415 228.038 411.661 228.695C411.114 229.572 410.566 230.558 410.018 231.544C416.921 232.421 423.167 236.037 427.331 241.516C427.551 241.845 427.551 242.283 427.222 242.612C426.893 242.831 426.455 242.831 426.126 242.502C421.962 237.242 415.935 233.845 409.251 233.078C402.457 245.79 396.868 259.268 392.814 273.185L390.841 272.637C395.115 258.172 400.813 244.256 408.045 230.996C406.73 229.353 399.388 221.024 388.869 222.23C388.43 222.23 388.102 222.011 387.992 221.572C388.102 221.134 388.321 220.696 388.759 220.696Z" fill="#E0E0E0"/>
<path d="M419.88 269.896C431.276 270.115 436.317 252.802 429.304 244.035C422.291 235.269 404.21 236.584 402.018 247.761C401.032 252.692 411.333 252.363 414.511 255.979C417.688 259.596 414.949 269.787 419.88 269.896Z" fill="#E0E0E0"/>
<path d="M407.826 245.461C413.634 246.995 416.045 252.474 416.702 254.227L417.798 253.35C418.346 251.926 419.661 247.762 417.25 244.803C417.141 244.584 417.141 244.365 417.25 244.255C417.469 244.036 417.688 244.036 417.908 244.255C420.099 246.995 419.661 250.282 419.003 252.364C421.195 250.611 423.606 249.077 426.017 247.762C426.345 247.652 426.674 247.762 426.784 247.981C426.893 248.31 426.784 248.638 426.564 248.748C424.044 250.173 421.633 251.707 419.442 253.46C422.4 253.57 425.359 254.556 427.77 256.309C427.989 256.528 427.989 256.747 427.77 256.967C427.551 257.076 427.332 257.076 427.222 256.967C424.592 255.104 421.524 254.117 418.346 254.227L416.921 255.432C420.318 257.295 422.948 260.473 424.044 264.199C424.154 264.418 423.935 264.637 423.715 264.747C423.496 264.856 423.277 264.637 423.167 264.418C422.072 260.802 419.551 257.734 416.154 255.98C409.908 261.35 404.32 267.267 399.279 273.732L398.402 273.075C403.553 266.281 409.47 260.144 416.045 254.665C415.716 253.57 413.524 247.652 407.717 246.118C407.497 246.008 407.388 245.789 407.388 245.57C407.278 245.461 407.497 245.351 407.826 245.461Z" fill="#F0F0F0"/>
<path d="M350.406 270.993H427.551V293.018C427.551 299.703 422.181 305.072 415.497 305.072H362.35C355.666 305.072 350.296 299.703 350.296 293.018L350.406 270.993Z" fill="#E0E0E0"/>
<path d="M215.184 350C332.531 350 427.66 344.456 427.66 337.617C427.66 330.779 332.531 325.235 215.184 325.235C97.836 325.235 2.70702 330.779 2.70702 337.617C2.70702 344.456 97.836 350 215.184 350Z" fill="#2D2D2D"/>
<path d="M405.087 16.2178H227.238V224.202H405.087V16.2178Z" fill="#0066C5"/>
<path opacity="0.3" d="M405.087 16.2178H227.238V224.202H405.087V16.2178Z" fill="white"/>
<path d="M252.003 35.8325H230.854V155.823H252.003V35.8325Z" fill="#263238"/>
<path opacity="0.4" d="M252.003 35.8325H230.854V155.823H252.003V35.8325Z" fill="white"/>
<path d="M405.087 16.2178H227.238V28.71H405.087V16.2178Z" fill="#263238"/>
<path opacity="0.4" d="M405.087 28.71V16.2178H227.238V28.71" fill="white"/>
<path d="M235.237 47.6675H238.305C239.401 47.6675 240.278 48.5441 240.278 49.6399V52.5986C240.278 53.6944 239.401 54.5711 238.305 54.5711H235.237C234.141 54.5711 233.264 53.6944 233.264 52.5986V49.5304C233.374 48.5441 234.251 47.6675 235.237 47.6675Z" fill="#0066C5"/>
<path d="M244.442 47.6675H247.51C248.606 47.6675 249.482 48.5441 249.482 49.6399V52.5986C249.482 53.6944 248.606 54.5711 247.51 54.5711H244.442C243.346 54.5711 242.469 53.6944 242.469 52.5986V49.5304C242.579 48.5441 243.455 47.6675 244.442 47.6675Z" fill="#0066C5"/>
<path d="M235.237 57.3105H238.305C239.401 57.3105 240.278 58.1872 240.278 59.283V62.3513C240.278 63.4471 239.401 64.3237 238.305 64.3237H235.237C234.141 64.3237 233.264 63.4471 233.264 62.3513V59.283C233.374 58.1872 234.251 57.3105 235.237 57.3105Z" fill="#0066C5"/>
<path d="M244.442 57.3105H247.51C248.606 57.3105 249.482 58.1872 249.482 59.283V62.3513C249.482 63.4471 248.606 64.3237 247.51 64.3237H244.442C243.346 64.3237 242.469 63.4471 242.469 62.3513V59.283C242.579 58.1872 243.455 57.3105 244.442 57.3105Z" fill="#0066C5"/>
<path d="M235.237 67.063H238.305C239.401 67.063 240.278 67.9396 240.278 69.0354V72.1037C240.278 73.1995 239.401 74.0761 238.305 74.0761H235.237C234.141 74.0761 233.264 73.1995 233.264 72.1037V69.0354C233.374 67.9396 234.251 67.063 235.237 67.063Z" fill="#0066C5"/>
<path d="M244.442 67.063H247.51C248.606 67.063 249.482 67.9396 249.482 69.0354V72.1037C249.482 73.1995 248.606 74.0761 247.51 74.0761H244.442C243.346 74.0761 242.469 73.1995 242.469 72.1037V69.0354C242.579 67.9396 243.455 67.063 244.442 67.063Z" fill="#0066C5"/>
<path d="M235.237 76.8154H238.305C239.401 76.8154 240.278 77.6921 240.278 78.7879V81.8561C240.278 82.9519 239.401 83.8286 238.305 83.8286H235.237C234.141 83.8286 233.264 82.9519 233.264 81.8561V78.7879C233.374 77.6921 234.251 76.8154 235.237 76.8154Z" fill="#0066C5"/>
<path d="M244.442 76.8154H247.51C248.606 76.8154 249.482 77.6921 249.482 78.7879V81.8561C249.482 82.9519 248.606 83.8286 247.51 83.8286H244.442C243.346 83.8286 242.469 82.9519 242.469 81.8561V78.7879C242.579 77.6921 243.455 76.8154 244.442 76.8154Z" fill="#0066C5"/>
<path d="M235.237 86.5684H238.305C239.401 86.5684 240.278 87.445 240.278 88.5408V91.6091C240.278 92.7049 239.401 93.5815 238.305 93.5815H235.237C234.141 93.5815 233.264 92.7049 233.264 91.6091V88.5408C233.374 87.445 234.251 86.5684 235.237 86.5684Z" fill="#0066C5"/>
<path d="M244.442 86.5684H247.51C248.606 86.5684 249.482 87.445 249.482 88.5408V91.6091C249.482 92.7049 248.606 93.5815 247.51 93.5815H244.442C243.346 93.5815 242.469 92.7049 242.469 91.6091V88.5408C242.579 87.445 243.455 86.5684 244.442 86.5684Z" fill="#0066C5"/>
<path d="M235.237 96.2114H238.305C239.401 96.2114 240.278 97.0881 240.278 98.1839V101.252C240.278 102.348 239.401 103.225 238.305 103.225H235.237C234.141 103.225 233.264 102.348 233.264 101.252V98.1839C233.374 97.0881 234.251 96.2114 235.237 96.2114Z" fill="#0066C5"/>
<path d="M244.442 96.2114H247.51C248.606 96.2114 249.482 97.0881 249.482 98.1839V101.252C249.482 102.348 248.606 103.225 247.51 103.225H244.442C243.346 103.225 242.469 102.348 242.469 101.252V98.1839C242.579 97.0881 243.455 96.2114 244.442 96.2114Z" fill="#0066C5"/>
<path d="M235.237 105.964H238.305C239.401 105.964 240.278 106.841 240.278 107.936V111.005C240.278 112.1 239.401 112.977 238.305 112.977H235.237C234.141 112.977 233.264 112.1 233.264 111.005V107.936C233.374 106.841 234.251 105.964 235.237 105.964Z" fill="#0066C5"/>
<path d="M244.442 105.964H247.51C248.606 105.964 249.482 106.841 249.482 107.936V111.005C249.482 112.1 248.606 112.977 247.51 112.977H244.442C243.346 112.977 242.469 112.1 242.469 111.005V107.936C242.579 106.841 243.455 105.964 244.442 105.964Z" fill="#0066C5"/>
<path d="M235.237 115.716H238.305C239.401 115.716 240.278 116.593 240.278 117.689V120.757C240.278 121.853 239.401 122.729 238.305 122.729H235.237C234.141 122.729 233.264 121.853 233.264 120.757V117.689C233.374 116.593 234.251 115.716 235.237 115.716Z" fill="#0066C5"/>
<path d="M244.442 115.716H247.51C248.606 115.716 249.482 116.593 249.482 117.689V120.757C249.482 121.853 248.606 122.729 247.51 122.729H244.442C243.346 122.729 242.469 121.853 242.469 120.757V117.689C242.579 116.593 243.455 115.716 244.442 115.716Z" fill="#0066C5"/>
<path d="M235.566 131.167H241.264C242.469 131.167 243.455 132.154 243.455 133.359V139.057C243.455 140.263 242.469 141.249 241.264 141.249H235.566C234.36 141.249 233.374 140.263 233.374 139.057V133.359C233.374 132.154 234.36 131.167 235.566 131.167Z" fill="#0066C5"/>
<path d="M249.373 147.167H237.538V143.879C237.538 143.441 237.867 143.003 238.415 143.003C238.853 143.003 239.182 143.331 239.291 143.77V145.523H247.839V136.976H246.195C245.757 136.976 245.428 136.647 245.318 136.209C245.318 135.77 245.647 135.332 246.195 135.332H249.482L249.373 147.167Z" fill="#0066C5"/>
<path d="M252.003 35.8325H230.854V42.9553H252.003V35.8325Z" fill="#0066C5"/>
<path d="M398.293 217.188C396.649 217.188 395.334 215.873 395.224 214.23V35.6135C395.224 33.9698 396.539 32.6548 398.183 32.6548C399.827 32.6548 401.142 33.9698 401.142 35.6135V214.23C401.251 215.873 399.936 217.188 398.293 217.188Z" fill="#263238"/>
<path opacity="0.4" d="M398.293 217.188C396.649 217.188 395.334 215.873 395.224 214.23V35.6135C395.224 33.9698 396.539 32.6548 398.183 32.6548C399.827 32.6548 401.142 33.9698 401.142 35.6135V214.23C401.251 215.873 399.936 217.188 398.293 217.188Z" fill="white"/>
<path opacity="0.4" d="M383.719 42.9556H264.824V96.2117H383.719V42.9556Z" fill="white"/>
<path d="M377.582 92.9238L325.641 69.5832L376.596 46.7904L376.157 45.8042L324.326 69.0353L272.385 45.8042L271.946 46.7904L322.901 69.5832L271.946 92.4855L272.385 93.4717L324.326 70.2407L377.144 93.91L377.582 92.9238Z" fill="#0066C5"/>
<path opacity="0.4" d="M320.819 110.895H272.166V150.344H320.819V110.895Z" fill="white"/>
<path d="M318.518 147.824L297.369 130.62L318.08 113.744L317.422 112.977L296.492 129.962L275.563 112.977L274.795 113.744L295.616 130.62L274.795 147.495L275.563 148.372L296.492 131.387L317.861 148.7L318.518 147.824Z" fill="#0066C5"/>
<path opacity="0.4" d="M376.486 110.895H327.832V150.344H376.486V110.895Z" fill="white"/>
<path d="M374.075 147.824L353.036 130.62L373.747 113.744L373.089 112.977L352.05 129.962L331.12 112.977L330.462 113.744L351.283 130.62L330.462 147.495L331.12 148.372L352.05 131.387L373.418 148.7L374.075 147.824Z" fill="#0066C5"/>
<path d="M319.504 160.645H273.48C272.713 160.645 272.166 160.097 272.166 159.33C272.166 158.673 272.713 158.015 273.48 158.015H319.504C320.162 158.015 320.819 158.563 320.819 159.33C320.819 159.988 320.271 160.645 319.504 160.645Z" fill="#263238"/>
<path opacity="0.4" d="M319.504 160.645H273.48C272.713 160.645 272.166 160.097 272.166 159.33C272.166 158.673 272.713 158.015 273.48 158.015H319.504C320.162 158.015 320.819 158.563 320.819 159.33C320.819 159.988 320.271 160.645 319.504 160.645Z" fill="white"/>
<path d="M311.286 165.795H273.48C272.713 165.795 272.166 165.247 272.166 164.48C272.166 163.713 272.713 163.165 273.48 163.165H311.286C312.053 163.165 312.601 163.713 312.601 164.48C312.601 165.247 312.053 165.795 311.286 165.795Z" fill="#263238"/>
<path opacity="0.4" d="M311.286 165.795H273.48C272.713 165.795 272.166 165.247 272.166 164.48C272.166 163.713 272.713 163.165 273.48 163.165H311.286C312.053 163.165 312.601 163.713 312.601 164.48C312.601 165.247 312.053 165.795 311.286 165.795Z" fill="white"/>
<path d="M314.025 170.945H273.48C272.713 170.945 272.166 170.398 272.166 169.631C272.166 168.973 272.823 168.316 273.48 168.425H314.025C314.792 168.425 315.34 168.973 315.34 169.74C315.34 170.398 314.683 170.945 314.025 170.945Z" fill="#263238"/>
<path opacity="0.4" d="M314.025 170.945H273.48C272.713 170.945 272.166 170.398 272.166 169.631C272.166 168.973 272.823 168.316 273.48 168.425H314.025C314.792 168.425 315.34 168.973 315.34 169.74C315.34 170.398 314.683 170.945 314.025 170.945Z" fill="white"/>
<path d="M375.062 160.645H329.038C328.38 160.645 327.723 160.097 327.832 159.33C327.832 158.673 328.38 158.015 329.147 158.015H375.171C375.829 158.015 376.486 158.563 376.486 159.33C376.486 159.988 375.829 160.645 375.062 160.645C375.171 160.645 375.171 160.645 375.062 160.645Z" fill="#263238"/>
<path opacity="0.4" d="M375.062 160.645H329.038C328.38 160.645 327.723 160.097 327.832 159.33C327.832 158.673 328.38 158.015 329.147 158.015H375.171C375.829 158.015 376.486 158.563 376.486 159.33C376.486 159.988 375.829 160.645 375.062 160.645C375.171 160.645 375.171 160.645 375.062 160.645Z" fill="white"/>
<path d="M370.24 165.795H329.147C328.38 165.795 327.832 165.247 327.832 164.48C327.832 163.713 328.38 163.165 329.147 163.165H370.24C371.007 163.165 371.555 163.713 371.555 164.48C371.555 165.247 370.898 165.795 370.24 165.795Z" fill="#263238"/>
<path opacity="0.4" d="M370.24 165.795H329.147C328.38 165.795 327.832 165.247 327.832 164.48C327.832 163.713 328.38 163.165 329.147 163.165H370.24C371.007 163.165 371.555 163.713 371.555 164.48C371.555 165.247 370.898 165.795 370.24 165.795Z" fill="white"/>
<path d="M367.391 170.945H329.038C328.271 170.945 327.723 170.397 327.723 169.63C327.723 168.863 328.271 168.315 329.038 168.315H367.391C368.158 168.315 368.706 168.863 368.706 169.63C368.706 170.397 368.158 170.945 367.391 170.945Z" fill="#263238"/>
<path opacity="0.4" d="M367.391 170.945H329.038C328.271 170.945 327.723 170.397 327.723 169.63C327.723 168.863 328.271 168.315 329.038 168.315H367.391C368.158 168.315 368.706 168.863 368.706 169.63C368.706 170.397 368.158 170.945 367.391 170.945Z" fill="white"/>
<path d="M319.504 183.876H273.48C272.713 183.876 272.166 183.328 272.166 182.561C272.166 181.794 272.713 181.246 273.48 181.246H319.504C320.162 181.246 320.819 181.794 320.819 182.561C320.819 183.328 320.271 183.876 319.504 183.876Z" fill="#263238"/>
<path opacity="0.4" d="M319.504 183.876H273.48C272.713 183.876 272.166 183.328 272.166 182.561C272.166 181.794 272.713 181.246 273.48 181.246H319.504C320.162 181.246 320.819 181.794 320.819 182.561C320.819 183.328 320.271 183.876 319.504 183.876Z" fill="white"/>
<path d="M314.573 189.026H273.48C272.823 189.026 272.166 188.479 272.166 187.711C272.166 186.944 272.713 186.396 273.48 186.396H314.573C315.34 186.396 315.888 186.944 315.888 187.711C315.888 188.479 315.34 189.026 314.573 189.026Z" fill="#263238"/>
<path opacity="0.4" d="M314.573 189.026H273.48C272.823 189.026 272.166 188.479 272.166 187.711C272.166 186.944 272.713 186.396 273.48 186.396H314.573C315.34 186.396 315.888 186.944 315.888 187.711C315.888 188.479 315.34 189.026 314.573 189.026Z" fill="white"/>
<path d="M308.546 194.176H273.48C272.713 194.176 272.166 193.628 272.166 192.861C272.166 192.094 272.713 191.546 273.48 191.546H308.546C309.313 191.546 309.861 192.094 309.861 192.861C309.752 193.628 309.204 194.176 308.546 194.176Z" fill="#263238"/>
<path opacity="0.4" d="M308.546 194.176H273.48C272.713 194.176 272.166 193.628 272.166 192.861C272.166 192.094 272.713 191.546 273.48 191.546H308.546C309.313 191.546 309.861 192.094 309.861 192.861C309.752 193.628 309.204 194.176 308.546 194.176Z" fill="white"/>
<path d="M371.774 183.876H329.038C328.271 183.876 327.723 183.328 327.723 182.561C327.723 181.794 328.271 181.246 329.038 181.246H371.774C372.541 181.246 373.089 181.794 373.089 182.561C373.089 183.328 372.541 183.876 371.774 183.876Z" fill="#263238"/>
<path opacity="0.4" d="M371.774 183.876H329.038C328.271 183.876 327.723 183.328 327.723 182.561C327.723 181.794 328.271 181.246 329.038 181.246H371.774C372.541 181.246 373.089 181.794 373.089 182.561C373.089 183.328 372.541 183.876 371.774 183.876Z" fill="white"/>
<path d="M366.953 189.026H329.147C328.49 189.026 327.832 188.479 327.832 187.711C327.832 186.944 328.38 186.396 329.147 186.396H366.953C367.72 186.396 368.268 186.944 368.268 187.711C368.268 188.479 367.61 189.026 366.953 189.026Z" fill="#263238"/>
<path opacity="0.4" d="M366.953 189.026H329.147C328.49 189.026 327.832 188.479 327.832 187.711C327.832 186.944 328.38 186.396 329.147 186.396H366.953C367.72 186.396 368.268 186.944 368.268 187.711C368.268 188.479 367.61 189.026 366.953 189.026Z" fill="white"/>
<path d="M367.391 194.176H329.038C328.271 194.176 327.723 193.628 327.723 192.861C327.723 192.094 328.271 191.546 329.038 191.546H367.391C368.158 191.546 368.706 192.094 368.706 192.861C368.706 193.628 368.158 194.176 367.391 194.176Z" fill="#263238"/>
<path opacity="0.4" d="M367.391 194.176H329.038C328.271 194.176 327.723 193.628 327.723 192.861C327.723 192.094 328.271 191.546 329.038 191.546H367.391C368.158 191.546 368.706 192.094 368.706 192.861C368.706 193.628 368.158 194.176 367.391 194.176Z" fill="white"/>
<path opacity="0.4" d="M398.293 189.465C397.087 189.465 396.211 188.478 396.211 187.383V175.219C396.211 174.014 397.197 173.137 398.293 173.137C399.498 173.137 400.375 174.123 400.375 175.219V187.383C400.375 188.588 399.498 189.465 398.293 189.465Z" fill="white"/>
<path d="M302.3 141.359H45.553C39.6357 141.359 34.9237 146.071 34.8141 151.988V314.715C34.8141 320.633 39.6357 325.454 45.553 325.454H79.6326V320.194C79.6326 318.66 80.8379 317.455 82.3721 317.455H265.372C266.906 317.455 268.111 318.66 268.111 320.194V325.454H302.191C308.108 325.454 312.93 320.633 312.93 314.715V151.988C312.93 146.071 308.108 141.359 302.3 141.359Z" fill="#263238"/>
<path d="M176.173 148.372C176.173 149.577 175.187 150.673 173.872 150.673C172.666 150.673 171.571 149.687 171.571 148.372C171.571 147.167 172.557 146.071 173.872 146.071C173.872 146.071 173.872 146.071 173.981 146.071C175.187 146.071 176.173 147.057 176.173 148.372Z" fill="#0066C5"/>
<path d="M334.079 321.399H13.8842V329.399H334.079V321.399Z" fill="#263238"/>
<path opacity="0.5" d="M334.079 321.399H13.8842V329.399H334.079V321.399Z" fill="white"/>
<path d="M13.8842 329.399L18.8154 333.344C22.1028 335.974 26.1573 337.399 30.3213 337.399H317.532C321.696 337.399 325.75 335.974 329.038 333.344L333.969 329.399H13.8842Z" fill="#263238"/>
<path opacity="0.3" d="M13.8842 329.399L18.8154 333.344C22.1028 335.974 26.1573 337.399 30.3213 337.399H317.532C321.696 337.399 325.75 335.974 329.038 333.344L333.969 329.399H13.8842Z" fill="white"/>
<path opacity="0.4" d="M143.189 321.619C143.189 323.701 144.833 325.344 146.915 325.344H200.938C203.02 325.344 204.664 323.701 204.664 321.619C204.664 321.509 204.664 321.399 204.664 321.399H143.189C143.189 321.509 143.189 321.619 143.189 321.619Z" fill="white"/>
<path d="M300.547 155.824H47.4159V299.922H300.547V155.824Z" fill="#0066C5"/>
<path opacity="0.6" d="M300.547 155.824H47.4159V299.922H300.547V155.824Z" fill="white"/>
<path d="M300.547 155.824H47.4159V173.137H300.547V155.824Z" fill="#0066C5"/>
<path opacity="0.8" d="M159.078 168.864H61.0039C58.7027 168.864 56.7302 167.001 56.7302 164.59C56.7302 162.289 58.5931 160.316 61.0039 160.316H159.078C161.38 160.316 163.352 162.179 163.352 164.59C163.352 166.891 161.38 168.864 159.078 168.864Z" fill="white"/>
<path opacity="0.8" d="M290.904 164.59C290.904 166.891 289.041 168.864 286.63 168.864C284.219 168.864 282.357 167.001 282.357 164.59C282.357 162.289 284.219 160.316 286.63 160.316C288.931 160.316 290.904 162.179 290.904 164.59Z" fill="white"/>
<path opacity="0.6" d="M271.837 168.864C274.197 168.864 276.11 166.95 276.11 164.59C276.11 162.23 274.197 160.316 271.837 160.316C269.477 160.316 267.563 162.23 267.563 164.59C267.563 166.95 269.477 168.864 271.837 168.864Z" fill="white"/>
<path opacity="0.4" d="M257.153 168.864C259.513 168.864 261.427 166.95 261.427 164.59C261.427 162.23 259.513 160.316 257.153 160.316C254.793 160.316 252.879 162.23 252.879 164.59C252.879 166.95 254.793 168.864 257.153 168.864Z" fill="white"/>
<path d="M290.904 189.793H56.7302V271.869H290.904V189.793Z" fill="#0066C5"/>
<path d="M79.1942 271.869L124.122 226.941C126.423 224.64 130.259 224.64 132.56 226.941L177.488 271.869H79.1942Z" fill="#0066C5"/>
<path opacity="0.3" d="M79.1942 271.869L124.122 226.941C126.423 224.64 130.259 224.64 132.56 226.941L177.488 271.869H79.1942Z" fill="black"/>
<path d="M132.56 226.941C130.916 225.297 128.396 224.75 126.204 225.626C126.204 229.352 134.532 232.311 134.532 236.036C134.532 239.762 126.204 242.721 126.204 246.446C126.204 250.172 141.546 253.131 141.546 256.857C141.546 260.582 126.204 263.541 126.204 267.267C126.204 268.582 127.848 270.225 130.04 271.869H177.488L132.56 226.941Z" fill="#0066C5"/>
<path opacity="0.4" d="M132.56 226.941C130.916 225.297 128.396 224.75 126.204 225.626C126.204 229.352 134.532 232.311 134.532 236.036C134.532 239.762 126.204 242.721 126.204 246.446C126.204 250.172 141.546 253.131 141.546 256.857C141.546 260.582 126.204 263.541 126.204 267.267C126.204 268.582 127.848 270.225 130.04 271.869H177.488L132.56 226.941Z" fill="white"/>
<path d="M158.969 271.87L217.156 213.682C220.224 210.724 225.046 210.724 228.114 213.682L286.411 271.979H158.969V271.87Z" fill="#0066C5"/>
<path opacity="0.3" d="M158.969 271.87L217.156 213.682C220.224 210.724 225.046 210.724 228.114 213.682L286.411 271.979H158.969V271.87Z" fill="black"/>
<path d="M228.224 213.682C226.032 211.49 222.854 210.832 220.005 211.928C220.005 216.75 230.854 220.695 230.854 225.407C230.854 230.119 220.005 234.173 220.005 238.885C220.005 243.597 239.949 247.652 239.949 252.363C239.949 257.075 220.005 261.13 220.005 265.842C220.005 267.595 222.197 269.787 224.936 271.869H286.411L228.224 213.682Z" fill="#0066C5"/>
<path opacity="0.4" d="M228.224 213.682C226.032 211.49 222.854 210.832 220.005 211.928C220.005 216.75 230.854 220.695 230.854 225.407C230.854 230.119 220.005 234.173 220.005 238.885C220.005 243.597 239.949 247.652 239.949 252.363C239.949 257.075 220.005 261.13 220.005 265.842C220.005 267.595 222.197 269.787 224.936 271.869H286.411L228.224 213.682Z" fill="white"/>
<path opacity="0.5" d="M174.748 183.876H149.764C148.23 183.876 147.025 182.671 147.025 181.136C147.025 179.602 148.23 178.397 149.764 178.397H174.748C176.283 178.397 177.488 179.602 177.488 181.136C177.488 182.561 176.283 183.876 174.748 183.876Z" fill="white"/>
<path d="M212.773 183.876H187.789C186.254 183.876 185.049 182.671 185.049 181.136C185.049 179.602 186.254 178.397 187.789 178.397H212.773C214.307 178.397 215.512 179.602 215.512 181.136C215.512 182.561 214.307 183.876 212.773 183.876Z" fill="#0066C5"/>
<path opacity="0.5" d="M250.797 183.876H225.813C224.279 183.876 223.073 182.671 223.073 181.136C223.073 179.602 224.279 178.397 225.813 178.397H250.797C252.331 178.397 253.537 179.602 253.537 181.136C253.537 182.561 252.331 183.876 250.797 183.876Z" fill="white"/>
<path d="M213.54 284.033H170.804C169.708 284.033 168.722 283.156 168.722 281.951C168.722 280.855 169.598 279.869 170.804 279.869H213.54C214.636 279.869 215.622 280.855 215.622 281.951C215.622 283.046 214.745 284.033 213.54 284.033Z" fill="#263238"/>
<path d="M245.647 284.033H221.32C220.224 284.033 219.238 283.156 219.238 281.951C219.238 280.855 220.115 279.869 221.32 279.869H245.647C246.743 279.869 247.729 280.855 247.729 281.951C247.729 283.046 246.743 284.033 245.647 284.033Z" fill="#263238"/>
<path d="M202.691 293.128H170.913C169.817 293.128 168.831 292.142 168.831 291.046C168.831 289.95 169.708 288.964 170.913 288.964H202.691C203.787 288.964 204.774 289.841 204.774 291.046C204.774 292.251 203.787 293.128 202.691 293.128Z" fill="#263238"/>
<path d="M232.497 293.128H210.143C209.047 293.128 208.061 292.142 208.061 291.046C208.061 289.95 208.938 288.964 210.143 288.964H232.497C233.593 288.964 234.579 289.841 234.579 291.046C234.579 292.251 233.593 293.128 232.497 293.128Z" fill="#263238"/>
<path opacity="0.4" d="M213.54 284.033H170.804C169.708 284.033 168.722 283.156 168.722 281.951C168.722 280.855 169.598 279.869 170.804 279.869H213.54C214.636 279.869 215.622 280.855 215.622 281.951C215.622 283.046 214.745 284.033 213.54 284.033Z" fill="white"/>
<path opacity="0.4" d="M245.647 284.033H221.32C220.224 284.033 219.238 283.156 219.238 281.951C219.238 280.855 220.115 279.869 221.32 279.869H245.647C246.743 279.869 247.729 280.855 247.729 281.951C247.729 283.046 246.743 284.033 245.647 284.033Z" fill="white"/>
<path opacity="0.4" d="M202.691 293.128H170.913C169.817 293.128 168.831 292.142 168.831 291.046C168.831 289.95 169.708 288.964 170.913 288.964H202.691C203.787 288.964 204.774 289.841 204.774 291.046C204.774 292.251 203.787 293.128 202.691 293.128Z" fill="white"/>
<path opacity="0.4" d="M232.497 293.128H210.143C209.047 293.128 208.061 292.142 208.061 291.046C208.061 289.95 208.938 288.964 210.143 288.964H232.497C233.593 288.964 234.579 289.841 234.579 291.046C234.579 292.251 233.593 293.128 232.497 293.128Z" fill="white"/>
<path opacity="0.5" d="M288.822 183.876H263.837C262.303 183.876 261.098 182.671 261.098 181.136C261.098 179.602 262.303 178.397 263.837 178.397H288.822C290.356 178.397 291.561 179.602 291.561 181.136C291.561 182.561 290.356 183.876 288.822 183.876Z" fill="white"/>
<path d="M157.983 233.406H77.9888V299.922H157.983V233.406Z" fill="#0066C5"/>
<path opacity="0.8" d="M157.983 233.406H77.9888V299.922H157.983V233.406Z" fill="white"/>
<path d="M143.408 240.858H92.6726V274.17H143.408V240.858Z" fill="#0066C5"/>
<path opacity="0.4" d="M143.408 240.858H92.6726V274.17H143.408V240.858Z" fill="white"/>
<path d="M109.986 259.048L94.8642 274.17H125.218L109.986 259.048Z" fill="#0066C5"/>
<path opacity="0.2" d="M109.986 259.048L94.8642 274.17H125.218L109.986 259.048Z" fill="black"/>
<path d="M142.861 274.171L127.848 248.529L112.835 274.171H142.861Z" fill="#0066C5"/>
<path opacity="0.8" d="M117.109 251.488C117.109 253.131 115.794 254.556 114.041 254.556C112.288 254.556 110.973 253.241 110.973 251.488C110.973 249.734 112.288 248.419 114.041 248.419C115.685 248.529 117.109 249.844 117.109 251.488Z" fill="white"/>
<path d="M271.398 203.162H270.303C270.303 201.628 269.097 200.423 267.563 200.423H265.81C265.81 198.888 264.604 197.683 263.07 197.683H246.195C244.661 197.683 243.455 198.888 243.455 200.423H241.702C240.168 200.423 238.963 201.628 238.963 203.162H233.264C231.73 203.272 230.635 204.587 230.744 206.121C230.854 207.436 231.949 208.532 233.264 208.641H271.508C273.042 208.532 274.138 207.217 274.028 205.682C273.809 204.258 272.713 203.272 271.398 203.162Z" fill="#0066C5"/>
<path opacity="0.8" d="M271.398 203.162H270.303C270.303 201.628 269.097 200.423 267.563 200.423H265.81C265.81 198.888 264.604 197.683 263.07 197.683H246.195C244.661 197.683 243.455 198.888 243.455 200.423H241.702C240.168 200.423 238.963 201.628 238.963 203.162H233.264C231.73 203.272 230.635 204.587 230.744 206.121C230.854 207.436 231.949 208.532 233.264 208.641H271.508C273.042 208.532 274.138 207.217 274.028 205.682C273.809 204.258 272.713 203.272 271.398 203.162Z" fill="white"/>
<path d="M128.615 223.544H127.629C127.629 222.229 126.643 221.243 125.328 221.243H123.794C123.794 219.928 122.807 218.941 121.492 218.941H116.561C115.246 218.941 114.26 219.928 114.26 221.243H112.726C111.411 221.243 110.425 222.229 110.425 223.544H105.603C104.288 223.544 103.302 224.64 103.302 225.845C103.302 227.16 104.288 228.146 105.603 228.146H128.505C129.82 228.146 130.807 227.05 130.807 225.845C130.916 224.53 129.93 223.544 128.615 223.544Z" fill="#0066C5"/>
<path opacity="0.8" d="M128.615 223.544H127.629C127.629 222.229 126.643 221.243 125.328 221.243H123.794C123.794 219.928 122.807 218.941 121.492 218.941H116.561C115.246 218.941 114.26 219.928 114.26 221.243H112.726C111.411 221.243 110.425 222.229 110.425 223.544H105.603C104.288 223.544 103.302 224.64 103.302 225.845C103.302 227.16 104.288 228.146 105.603 228.146H128.505C129.82 228.146 130.807 227.05 130.807 225.845C130.916 224.53 129.93 223.544 128.615 223.544Z" fill="white"/>
<path d="M207.951 230.887H206.856C206.856 229.352 205.65 228.147 204.116 228.147H202.363C202.363 227.709 202.253 227.161 202.034 226.722C202.801 225.407 202.363 223.764 201.048 222.997C200.609 222.778 200.171 222.668 199.623 222.668H193.706C192.172 222.668 190.966 223.873 190.966 225.407H188.665C187.131 225.407 185.926 226.613 185.926 228.147H184.172C182.638 228.147 181.433 229.352 181.433 230.887H175.735C174.201 230.996 173.105 232.311 173.214 233.845C173.324 235.16 174.42 236.256 175.735 236.366H207.951C209.485 236.256 210.581 234.941 210.472 233.407C210.253 232.092 209.266 230.996 207.951 230.887Z" fill="#0066C5"/>
<path opacity="0.8" d="M207.951 230.887H206.856C206.856 229.352 205.65 228.147 204.116 228.147H202.363C202.363 227.709 202.253 227.161 202.034 226.722C202.801 225.407 202.363 223.764 201.048 222.997C200.609 222.778 200.171 222.668 199.623 222.668H193.706C192.172 222.668 190.966 223.873 190.966 225.407H188.665C187.131 225.407 185.926 226.613 185.926 228.147H184.172C182.638 228.147 181.433 229.352 181.433 230.887H175.735C174.201 230.996 173.105 232.311 173.214 233.845C173.324 235.16 174.42 236.256 175.735 236.366H207.951C209.485 236.256 210.581 234.941 210.472 233.407C210.253 232.092 209.266 230.996 207.951 230.887Z" fill="white"/>
<path d="M139.902 282.17H93.878C93.2205 282.17 92.6726 281.622 92.6726 280.964C92.6726 280.307 93.2205 279.759 93.878 279.759H139.902C140.559 279.759 141.107 280.307 141.107 280.964C141.107 281.731 140.559 282.17 139.902 282.17Z" fill="#263238"/>
<path opacity="0.4" d="M139.902 282.17H93.878C93.2205 282.17 92.6726 281.622 92.6726 280.964C92.6726 280.307 93.2205 279.759 93.878 279.759H139.902C140.559 279.759 141.107 280.307 141.107 280.964C141.107 281.731 140.559 282.17 139.902 282.17Z" fill="white"/>
<path d="M132.45 286.991H93.878C93.2205 286.991 92.6726 286.443 92.6726 285.786C92.6726 285.128 93.2205 284.581 93.878 284.581H132.45C133.108 284.581 133.656 285.128 133.656 285.786C133.546 286.443 133.108 286.882 132.45 286.991Z" fill="#263238"/>
<path opacity="0.4" d="M132.45 286.991H93.878C93.2205 286.991 92.6726 286.443 92.6726 285.786C92.6726 285.128 93.2205 284.581 93.878 284.581H132.45C133.108 284.581 133.656 285.128 133.656 285.786C133.546 286.443 133.108 286.882 132.45 286.991Z" fill="white"/>
<path d="M134.861 291.593H93.878C93.2205 291.593 92.6726 291.045 92.6726 290.388C92.6726 289.731 93.2205 289.183 93.878 289.183H134.861C135.519 289.183 136.067 289.731 136.067 290.388C136.067 291.155 135.519 291.593 134.861 291.593Z" fill="#263238"/>
<path opacity="0.4" d="M134.861 291.593H93.878C93.2205 291.593 92.6726 291.045 92.6726 290.388C92.6726 289.731 93.2205 289.183 93.878 289.183H134.861C135.519 289.183 136.067 289.731 136.067 290.388C136.067 291.155 135.519 291.593 134.861 291.593Z" fill="white"/>
<path d="M110.534 162.07C109.658 161.303 108.233 161.303 107.466 162.179C106.699 163.056 106.699 164.261 107.466 165.138C108.233 165.905 109.329 166.015 110.206 165.357C110.206 165.467 110.315 165.576 110.315 165.686L111.849 167.11C112.068 167.329 112.397 167.329 112.616 167.11C112.835 166.891 112.835 166.562 112.616 166.343L111.192 164.809C111.082 164.7 110.973 164.7 110.863 164.7C111.411 163.932 111.301 162.727 110.534 162.07ZM110.096 164.7C109.438 165.357 108.452 165.357 107.904 164.7C107.247 164.042 107.247 163.056 107.904 162.508C108.562 161.85 109.548 161.85 110.096 162.508C110.753 163.056 110.753 164.042 110.096 164.7C110.206 164.7 110.206 164.7 110.096 164.7Z" fill="#0066C5"/>
<path opacity="0.2" d="M110.534 162.07C109.658 161.303 108.233 161.303 107.466 162.179C106.699 163.056 106.699 164.261 107.466 165.138C108.233 165.905 109.329 166.015 110.206 165.357C110.206 165.467 110.315 165.576 110.315 165.686L111.849 167.11C112.068 167.329 112.397 167.329 112.616 167.11C112.835 166.891 112.835 166.562 112.616 166.343L111.192 164.809C111.082 164.7 110.973 164.7 110.863 164.7C111.411 163.932 111.301 162.727 110.534 162.07ZM110.096 164.7C109.438 165.357 108.452 165.357 107.904 164.7C107.247 164.042 107.247 163.056 107.904 162.508C108.562 161.85 109.548 161.85 110.096 162.508C110.753 163.056 110.753 164.042 110.096 164.7C110.206 164.7 110.206 164.7 110.096 164.7Z" fill="black"/>
<path d="M347.228 230.886C346.023 230.886 345.037 231.872 345.037 233.078V254.446H327.175L330.682 250.939C331.558 250.063 331.558 248.748 330.682 247.871C329.805 246.995 328.49 246.995 327.613 247.871L318.847 256.638L327.613 265.404C328.49 266.281 329.805 266.281 330.682 265.404C331.558 264.527 331.558 263.212 330.682 262.336L327.175 258.829H349.42V233.187C349.42 231.872 348.434 230.886 347.228 230.886Z" fill="#0066C5"/>
<path opacity="0.7" d="M347.228 230.886C346.023 230.886 345.037 231.872 345.037 233.078V254.446H327.175L330.682 250.939C331.558 250.063 331.558 248.748 330.682 247.871C329.805 246.995 328.49 246.995 327.613 247.871L318.847 256.638L327.613 265.404C328.49 266.281 329.805 266.281 330.682 265.404C331.558 264.527 331.558 263.212 330.682 262.336L327.175 258.829H349.42V233.187C349.42 231.872 348.434 230.886 347.228 230.886Z" fill="#0066C5"/>
<path opacity="0.4" d="M407.169 0V10.4102H417.579L407.169 0Z" fill="white"/>
<path d="M418.017 14.5742L418.127 59.5022C418.127 60.0501 417.688 60.598 417.031 60.598L375.5 60.7076C374.842 60.7076 374.404 60.2693 374.404 59.6118L374.185 1.09581C374.185 0.438322 374.623 0 375.281 0H403.333L418.017 14.5742Z" fill="#0066C5"/>
<g opacity="0.7">
<path d="M418.017 14.5742L418.127 59.5022C418.127 60.0501 417.688 60.598 417.031 60.598L375.5 60.7076C374.842 60.7076 374.404 60.2693 374.404 59.6118L374.185 1.09581C374.185 0.438322 374.623 0 375.281 0H403.333L418.017 14.5742Z" fill="#0066C5"/>
</g>
<path d="M403.333 0V13.588C403.333 14.2455 403.772 14.6838 404.429 14.6838H417.908L403.333 0Z" fill="#0066C5"/>
<path opacity="0.9" d="M403.333 0V13.588C403.333 14.2455 403.772 14.6838 404.429 14.6838H417.908L403.333 0Z" fill="white"/>
<g opacity="0.8">
<path d="M407.388 27.1758H385.253C384.486 27.1758 383.938 26.6279 383.938 25.8609C383.938 25.0938 384.486 24.5459 385.253 24.5459H407.388C408.155 24.5459 408.703 25.0938 408.703 25.8609C408.703 26.6279 408.045 27.1758 407.388 27.1758Z" fill="white"/>
<path d="M407.169 34.6275H385.253C384.595 34.6275 383.938 34.0796 383.938 33.3125C383.938 32.5455 384.486 31.9976 385.253 31.9976H407.169C407.936 31.9976 408.484 32.5455 408.484 33.3125C408.374 33.97 407.826 34.6275 407.169 34.6275Z" fill="white"/>
<path d="M406.621 42.5171H385.253C384.486 42.5171 383.938 41.9692 383.938 41.2022C383.938 40.4351 384.486 39.8872 385.253 39.8872H406.621C407.388 39.8872 407.936 40.4351 407.936 41.2022C407.936 41.8597 407.388 42.5171 406.621 42.5171Z" fill="white"/>
</g>
<path d="M272.604 20.8203H212.225V60.598H272.604V20.8203Z" fill="#0066C5"/>
<path opacity="0.7" d="M272.604 20.8203H212.225V60.598H272.604V20.8203Z" fill="white"/>
<path d="M232.826 42.4082L214.745 60.489H250.907L232.826 42.4082Z" fill="#0066C5"/>
<path opacity="0.3" d="M232.826 42.4082L214.745 60.489H250.907L232.826 42.4082Z" fill="white"/>
<path d="M271.946 60.4885L254.085 29.9155L236.114 60.4885H271.946Z" fill="#0066C5"/>
<path opacity="0.5" d="M271.946 60.4885L254.085 29.9155L236.114 60.4885H271.946Z" fill="white"/>
<path opacity="0.8" d="M237.648 37.1478C239.645 37.1478 241.264 35.5288 241.264 33.5317C241.264 31.5345 239.645 29.9155 237.648 29.9155C235.651 29.9155 234.032 31.5345 234.032 33.5317C234.032 35.5288 235.651 37.1478 237.648 37.1478Z" fill="white"/>
<path d="M193.815 77.8021C193.815 77.3638 193.815 76.9255 193.706 76.4871L199.185 72.7614C198.856 71.4464 198.527 70.1315 197.98 68.9261L191.295 69.1452C190.857 68.3782 190.309 67.7207 189.761 67.0632L191.953 60.8171C190.966 59.9405 189.871 59.1734 188.665 58.4063L183.405 62.4608C182.638 62.1321 181.762 61.8033 180.885 61.6938L179.022 55.3381C178.365 55.2285 177.707 55.2285 177.05 55.2285C176.392 55.2285 175.735 55.2285 175.077 55.3381L173.214 61.6938C172.338 61.9129 171.571 62.1321 170.694 62.4608L165.434 58.4063C164.229 59.0638 163.133 59.8309 162.147 60.8171L164.338 67.0632C163.79 67.7207 163.242 68.4878 162.804 69.1452L156.12 68.9261C155.572 70.1315 155.134 71.4464 154.914 72.7614L160.393 76.4871C160.393 76.9255 160.284 77.3638 160.284 77.8021C160.284 78.2404 160.284 78.6787 160.393 79.1171L154.914 82.8428C155.243 84.1578 155.681 85.4727 156.12 86.6781L162.804 86.459C163.242 87.226 163.79 87.8835 164.338 88.541L162.147 94.7871C163.133 95.6637 164.229 96.4308 165.434 97.1979L170.694 93.1434C171.461 93.4721 172.338 93.6913 173.214 93.9104L175.077 100.266C175.735 100.266 176.392 100.376 177.05 100.376C177.707 100.376 178.365 100.376 179.022 100.266L180.885 93.9104C181.762 93.6913 182.529 93.4721 183.405 93.1434L188.665 97.1979C189.871 96.5404 190.966 95.6637 191.953 94.7871L189.761 88.541C190.309 87.8835 190.857 87.1164 191.295 86.459L197.98 86.6781C198.527 85.4727 198.856 84.1578 199.185 82.8428L193.706 79.1171C193.815 78.6787 193.815 78.2404 193.815 77.8021ZM177.159 85.4727C172.886 85.4727 169.489 82.0757 169.489 77.8021C169.489 73.5285 172.886 70.1315 177.159 70.1315C181.433 70.1315 184.83 73.5285 184.83 77.8021C184.83 82.0757 181.323 85.4727 177.159 85.4727Z" fill="#0066C5"/>
<path opacity="0.7" d="M193.815 77.8021C193.815 77.3638 193.815 76.9255 193.706 76.4871L199.185 72.7614C198.856 71.4464 198.527 70.1315 197.98 68.9261L191.295 69.1452C190.857 68.3782 190.309 67.7207 189.761 67.0632L191.953 60.8171C190.966 59.9405 189.871 59.1734 188.665 58.4063L183.405 62.4608C182.638 62.1321 181.762 61.8033 180.885 61.6938L179.022 55.3381C178.365 55.2285 177.707 55.2285 177.05 55.2285C176.392 55.2285 175.735 55.2285 175.077 55.3381L173.214 61.6938C172.338 61.9129 171.571 62.1321 170.694 62.4608L165.434 58.4063C164.229 59.0638 163.133 59.8309 162.147 60.8171L164.338 67.0632C163.79 67.7207 163.243 68.4878 162.804 69.1452L156.12 68.9261C155.572 70.1315 155.134 71.4464 154.914 72.7614L160.393 76.4871C160.393 76.9255 160.284 77.3638 160.284 77.8021C160.284 78.2404 160.284 78.6787 160.393 79.1171L154.914 82.8428C155.243 84.1578 155.681 85.4727 156.12 86.6781L162.804 86.459C163.243 87.226 163.79 87.8835 164.338 88.541L162.147 94.7871C163.133 95.6637 164.229 96.4308 165.434 97.1979L170.694 93.1434C171.461 93.4721 172.338 93.6913 173.214 93.9104L175.077 100.266C175.735 100.266 176.392 100.376 177.05 100.376C177.707 100.376 178.365 100.376 179.022 100.266L180.885 93.9104C181.762 93.6913 182.529 93.4721 183.405 93.1434L188.665 97.1979C189.871 96.5404 190.966 95.6637 191.953 94.7871L189.761 88.541C190.309 87.8835 190.857 87.1165 191.295 86.459L197.98 86.6781C198.527 85.4727 198.856 84.1578 199.185 82.8428L193.706 79.1171C193.815 78.6787 193.815 78.2404 193.815 77.8021ZM177.159 85.4727C172.886 85.4727 169.489 82.0757 169.489 77.8021C169.489 73.5285 172.886 70.1315 177.159 70.1315C181.433 70.1315 184.83 73.5285 184.83 77.8021C184.83 82.0757 181.323 85.4727 177.159 85.4727Z" fill="#99C2E8"/>
<path d="M214.745 104.649C214.745 104.43 214.745 104.101 214.745 103.772L218.252 101.362C218.033 100.485 217.814 99.718 217.485 98.9509L213.211 99.0605C212.882 98.6221 212.554 98.0742 212.225 97.7455L213.65 93.691C212.992 93.1431 212.335 92.5952 211.568 92.1569L208.171 94.7868C207.623 94.5677 207.075 94.3485 206.527 94.2389L205.321 90.0749C204.445 89.9653 203.568 89.9653 202.692 90.0749L201.486 94.2389C200.938 94.3485 200.39 94.5677 199.842 94.7868L196.445 92.1569C195.678 92.5952 195.021 93.1431 194.363 93.691L195.788 97.7455C195.459 98.1838 195.13 98.6221 194.802 99.0605L190.528 98.9509C190.199 99.718 189.871 100.595 189.761 101.362L193.268 103.772C193.268 103.992 193.268 104.32 193.268 104.649C193.268 104.978 193.268 105.197 193.268 105.526L189.651 107.936C189.871 108.813 190.09 109.58 190.418 110.347L194.692 110.238C195.021 110.676 195.35 111.224 195.678 111.553L194.254 115.607C194.911 116.155 195.569 116.703 196.336 117.141L199.733 114.511C200.281 114.73 200.829 114.95 201.377 115.059L202.582 119.223C203.02 119.223 203.459 119.223 203.897 119.223C204.335 119.223 204.774 119.223 205.212 119.223L206.417 115.059C206.965 114.95 207.513 114.73 208.061 114.511L211.458 117.141C212.225 116.703 212.882 116.155 213.54 115.607L212.115 111.553C212.444 111.114 212.773 110.676 213.102 110.238L217.375 110.347C217.704 109.58 218.033 108.704 218.142 107.936L214.636 105.526C214.745 105.197 214.745 104.868 214.745 104.649ZM204.006 109.58C201.267 109.58 199.075 107.389 199.075 104.649C199.075 101.91 201.267 99.718 204.006 99.718C206.746 99.718 208.938 101.91 208.938 104.649C208.938 107.389 206.746 109.58 204.006 109.58Z" fill="#0066C5"/>
<path opacity="0.7" d="M214.745 104.649C214.745 104.43 214.745 104.101 214.745 103.772L218.252 101.362C218.033 100.485 217.814 99.718 217.485 98.9509L213.211 99.0605C212.882 98.6221 212.554 98.0742 212.225 97.7455L213.65 93.691C212.992 93.1431 212.335 92.5952 211.568 92.1569L208.171 94.7868C207.623 94.5677 207.075 94.3485 206.527 94.2389L205.321 90.0749C204.445 89.9653 203.568 89.9653 202.692 90.0749L201.486 94.2389C200.938 94.3485 200.39 94.5677 199.842 94.7868L196.445 92.1569C195.678 92.5952 195.021 93.1431 194.363 93.691L195.788 97.7455C195.459 98.1838 195.13 98.6221 194.802 99.0605L190.528 98.9509C190.199 99.718 189.871 100.595 189.761 101.362L193.268 103.772C193.268 103.992 193.268 104.32 193.268 104.649C193.268 104.978 193.268 105.197 193.268 105.526L189.651 107.936C189.871 108.813 190.09 109.58 190.418 110.347L194.692 110.238C195.021 110.676 195.35 111.224 195.678 111.553L194.254 115.607C194.911 116.155 195.569 116.703 196.336 117.141L199.733 114.511C200.281 114.73 200.829 114.95 201.377 115.059L202.582 119.223C203.02 119.223 203.459 119.223 203.897 119.223C204.335 119.223 204.774 119.223 205.212 119.223L206.417 115.059C206.965 114.95 207.513 114.73 208.061 114.511L211.458 117.141C212.225 116.703 212.882 116.155 213.54 115.607L212.115 111.553C212.444 111.114 212.773 110.676 213.102 110.238L217.375 110.347C217.704 109.58 218.033 108.704 218.142 107.936L214.636 105.526C214.745 105.197 214.745 104.868 214.745 104.649ZM204.006 109.58C201.267 109.58 199.075 107.389 199.075 104.649C199.075 101.91 201.267 99.718 204.006 99.718C206.746 99.718 208.938 101.91 208.938 104.649C208.938 107.389 206.746 109.58 204.006 109.58Z" fill="#99C2E8"/>
<path d="M180.227 106.184V128.429L176.721 124.922C175.844 124.045 174.529 124.045 173.653 124.922C172.776 125.799 172.776 127.114 173.653 127.99L182.419 136.757L191.186 127.99C192.062 127.114 192.062 125.799 191.186 124.922C190.309 124.045 188.994 124.045 188.117 124.922L184.611 128.429V106.184C184.611 104.978 183.624 103.992 182.419 103.992C181.214 103.992 180.227 104.978 180.227 106.184Z" fill="#0066C5"/>
<path opacity="0.7" d="M180.227 106.184V128.429L176.721 124.922C175.844 124.045 174.529 124.045 173.653 124.922C172.776 125.799 172.776 127.114 173.653 127.99L182.419 136.757L191.186 127.99C192.062 127.114 192.062 125.799 191.186 124.922C190.309 124.045 188.994 124.045 188.117 124.922L184.611 128.429V106.184C184.611 104.978 183.624 103.992 182.419 103.992C181.214 103.992 180.227 104.978 180.227 106.184Z" fill="#0066C5"/>
<path d="M77.0026 119.114H142.532C146.696 119.114 150.093 122.511 150.093 126.675V138.181C150.093 142.345 146.696 145.742 142.532 145.742H77.0026C72.8386 145.742 69.4416 142.345 69.4416 138.181V126.675C69.4416 122.511 72.8386 119.114 77.0026 119.114Z" fill="#0066C5"/>
<path opacity="0.7" d="M77.0026 119.114H142.532C146.696 119.114 150.093 122.511 150.093 126.675V138.181C150.093 142.345 146.696 145.742 142.532 145.742H77.0026C72.8386 145.742 69.4416 142.345 69.4416 138.181V126.675C69.4416 122.511 72.8386 119.114 77.0026 119.114Z" fill="#00478A"/>
<path opacity="0.8" d="M112.178 125.031C109.438 122.292 105.055 122.292 102.316 125.031C99.5762 127.771 99.5762 132.154 102.316 134.893C104.727 137.304 108.343 137.633 111.082 135.77C111.082 136.099 111.301 136.428 111.521 136.756L116.232 141.468C116.89 142.126 117.986 142.126 118.534 141.468C119.191 140.811 119.191 139.825 118.534 139.167L113.822 134.455C113.603 134.236 113.274 134.017 112.835 134.017C114.917 131.058 114.589 127.442 112.178 125.031ZM110.863 133.469C108.891 135.441 105.822 135.441 103.85 133.469C101.877 131.496 101.877 128.428 103.85 126.456C105.822 124.483 108.891 124.483 110.863 126.456C112.835 128.428 112.835 131.496 110.863 133.469Z" fill="white"/>
</svg>
